<?xml version="1.0" encoding="utf-8"?>
<!-- Generator: Adobe Illustrator 15.0.2, SVG Export Plug-In . SVG Version: 6.00 Build 0)  -->
<!DOCTYPE svg PUBLIC "-//W3C//DTD SVG 1.1//EN" "http://www.w3.org/Graphics/SVG/1.1/DTD/svg11.dtd">
<svg version="1.1" id="Layer_1" xmlns="http://www.w3.org/2000/svg" xmlns:xlink="http://www.w3.org/1999/xlink" x="0px" y="0px"
	 width="632.528px" height="138.625px" viewBox="0 0 632.528 138.625" enable-background="new 0 0 632.528 138.625"
	 xml:space="preserve">
<path id="Arch" fill="#628BCF" d="M44.195,68.128c-0.539,0-1.064-0.271-1.368-0.764c-0.466-0.755-0.232-1.744,0.522-2.211
	C107.626,25.442,197.432,0,299.047,0c88.002,0,212.708,19.089,283.809,65.172c0.742,0.481,0.957,1.477,0.473,2.222
	c-0.48,0.744-1.477,0.958-2.221,0.474c-70.512-45.7-194.52-64.654-282.061-64.654c-101.036,0-190.226,25.269-254.009,64.673
	C44.775,68.05,44.483,68.128,44.195,68.128"/>
<g id="Company">
	<path id="path24" fill="#FFFFFF" d="M35.341,38.146c-0.062,0.883-1.136,1.011-1.136,1.011c-0.188,0-1.384-0.633-1.638-0.761
		c-2.077-0.877-5.795-2.013-9.826-2.013c-8.632,0-17.134,5.227-17.134,17.388c0,11.276,8.126,17.514,16.695,17.514
		c3.84,0,7.809-0.947,10.329-2.081c0.191-0.062,1.261-0.63,1.387-0.63c0.125,0,0.756,0.502,0.819,0.567c0.062,0.125,0,0.253,0,0.442
		l-0.505,2.644c-0.063,0.44-0.251,0.633-0.753,0.819c-0.505,0.19-5.481,1.389-11.969,1.389c-4.349,0-11.025-0.441-16.319-6.236
		C1.889,64.479,0,59.628,0,54.589c0-8.381,5.102-16.193,13.607-19.656c3.652-1.514,7.621-1.826,11.15-1.826
		c6.297,0,10.141,1.261,10.646,1.576c0.314,0.188,0.314,0.5,0.25,0.755L35.341,38.146"/>
	<path id="path26" fill="#FFFFFF" d="M56.717,73.737h4.21V39.519h-4.21V73.737z"/>
	<path id="path28" fill="#FFFFFF" d="M81.708,73.737h4.211V39.519h-4.211V73.737z"/>
	<path id="path30" fill="#FFFFFF" d="M125.241,59.977l-5.99-16.034l-6.745,16.034H125.241z M106.782,73.737h-4.316l15.865-34.219
		h3.349l13.225,34.219h-4.589l-4.049-11.062h-14.896L106.782,73.737"/>
	<path id="path32" fill="#FFFFFF" d="M156.179,56.305c0.861,0.106,2.104,0.164,3.617,0.164c4.263,0,9.877-0.597,9.877-7.398
		c0-6.745-5.183-6.909-8.746-6.909c-0.809,0-3.184,0.058-4.749,0.164L156.179,56.305L156.179,56.305z M156.179,73.737h-4.211V39.519
		c1.189,0,6.476-0.162,9.231-0.162c5.289,0,8.365,0.375,10.469,2.534c1.781,1.729,2.646,4.433,2.646,6.695
		c0,6.425-5.396,8.636-7.286,9.391c3.184,5.672,6.585,9.88,8.206,11.606c0.375,0.323,1.888,1.889,4.747,2.375l-0.542,1.672
		c-0.106,0.377-0.481,0.377-0.861,0.377c-5.18,0-7.609-0.858-15.871-15.057c-1.184,0.159-2.64,0.381-6.528,0.217V73.737"/>
	<path id="path34" fill="#FFFFFF" d="M206.482,42.542v31.195h-4.205V42.542h-14.415v-3.023h33.141v3.023H206.482"/>
	<path id="path36" fill="#FFFFFF" d="M239.354,70.664h17.976v3.073h-22.183V39.519h22.019v3.023h-17.812v11.497h15.817v3.019
		h-15.817V70.664"/>
	<path id="path38" fill="#FFFFFF" d="M280.212,56.305c0.868,0.106,2.107,0.164,3.62,0.164c4.263,0,9.875-0.597,9.875-7.398
		c0-6.745-5.179-6.909-8.744-6.909c-0.808,0-3.183,0.058-4.751,0.164V56.305z M280.212,73.737h-4.205V39.519
		c1.185,0,6.473-0.162,9.227-0.162c5.289,0,8.367,0.375,10.473,2.534c1.776,1.729,2.644,4.433,2.644,6.695
		c0,6.425-5.398,8.636-7.287,9.391c3.183,5.672,6.583,9.88,8.203,11.606c0.383,0.323,1.888,1.889,4.751,2.375l-0.543,1.672
		c-0.106,0.377-0.481,0.377-0.858,0.377c-5.183,0-7.612-0.858-15.87-15.057c-1.188,0.159-2.646,0.381-6.535,0.217V73.737"/>
	<path id="path40" fill="#FFFFFF" d="M345.553,38.396v0.256c0,0.188-0.883,0.567-1.07,0.567c-0.123,0-0.691-0.505-1.135-0.758
		c-1.824-1.005-5.041-2.078-8-2.078c-2.709,0-8.377,1.008-8.377,6.739c0,4.034,2.834,5.292,9.193,8
		c4.918,2.081,11.213,4.787,11.213,11.656c0,5.545-4.344,11.656-15.051,11.656c-3.025,0-7.307-0.636-9.578-1.197
		c-0.568-0.128-1.635-0.44-1.764-1.075l-0.568-3.526c-0.061-0.375,0-0.438,0.062-0.5c0.129-0.128,0.822-0.443,0.945-0.443
		c0.443,0,0.945,0.443,1.324,0.631c2.395,1.322,6.426,2.58,10.395,2.58c4.031,0,9.26-1.953,9.26-7.055
		c0-4.664-4.156-6.427-8.566-8.314c-6.617-2.773-11.656-4.852-11.656-11.401c0-6.177,4.979-11.089,14.43-11.089
		c3.969,0,7.367,1.011,7.688,1.073c0.312,0.125,0.627,0.312,0.689,0.815L345.553,38.396"/>
	<path id="path42" fill="#FFFFFF" d="M368.53,70.664h17.975v3.073h-22.184V39.519h22.02v3.023H368.53v11.497h15.814v3.019H368.53
		V70.664"/>
	<path id="path44" fill="#FFFFFF" d="M420.872,59.977l-5.992-16.034l-6.744,16.034H420.872z M402.411,73.737h-4.316l15.869-34.219
		h3.344l13.229,34.219h-4.586l-4.055-11.062h-14.896L402.411,73.737"/>
	<path id="path46" fill="#FFFFFF" d="M450.127,56.305c0.863,0.106,2.102,0.164,3.613,0.164c4.266,0,9.879-0.597,9.879-7.398
		c0-6.745-5.178-6.909-8.744-6.909c-0.809,0-3.186,0.058-4.748,0.164V56.305z M450.127,73.737h-4.211V39.519
		c1.188,0,6.475-0.162,9.23-0.162c5.287,0,8.363,0.375,10.471,2.534c1.777,1.729,2.645,4.433,2.645,6.695
		c0,6.425-5.398,8.636-7.287,9.391c3.184,5.672,6.584,9.88,8.201,11.606c0.383,0.323,1.891,1.889,4.752,2.375l-0.541,1.672
		c-0.105,0.377-0.48,0.377-0.857,0.377c-5.184,0-7.613-0.858-15.871-15.057c-1.188,0.159-2.648,0.381-6.531,0.217V73.737"/>
	<path id="path48" fill="#FFFFFF" d="M514.358,45.034c-0.055,0.758-0.973,0.864-0.973,0.864c-0.164,0-0.994-0.69-1.191-0.825
		c-1.65-1.131-4.818-2.32-8.27-2.305c-6.408,0.028-14.287,3.442-14.287,13.859c0,9.661,6.969,15.007,14.305,15.007
		c3.295,0,6.695-0.811,8.854-1.78c0.16-0.058,1.076-0.539,1.184-0.539c0.111,0,0.654,0.432,0.703,0.481c0.059,0.11,0,0.219,0,0.379
		l-0.432,2.27c-0.053,0.375-0.215,0.539-0.648,0.703c-0.432,0.159-4.691,1.186-10.252,1.186c-3.727,0-9.441-0.375-13.979-5.347
		c-2.912-3.18-4.531-7.339-4.531-11.656c0-7.183,3.115-13.273,10.4-16.242c3.131-1.3,5.814-1.57,8.842-1.57
		c4.484,0,10.072,2.614,10.504,2.885c0.271,0.162,0.271,0.433,0.215,0.648L514.358,45.034"/>
	<path id="path50" fill="#FFFFFF" d="M537.698,73.737h4.213V39.519h-4.213V73.737z"/>
	<path id="path52" fill="#FFFFFF" d="M562.694,73.737h4.203V39.519h-4.203V73.737z"/>
</g>
<g id="Tagline">
	<path id="path54" fill="#628BCF" d="M360.032,138.194c-1.215,0-2.328-0.286-3.309-0.853c-0.992-0.574-1.498-1.305-1.498-2.166
		c0-0.493,0.16-0.908,0.479-1.227c0.322-0.318,0.699-0.48,1.123-0.48c0.5,0,0.908,0.181,1.211,0.539
		c0.299,0.353,0.451,0.736,0.451,1.146c0,0.106-0.02,0.288-0.064,0.554l-0.041,0.361c0,0.229,0.154,0.448,0.475,0.661
		c0.326,0.218,0.729,0.328,1.193,0.328c1.68,0,3.111-0.911,4.264-2.705c1.166-1.822,2.506-5.521,3.984-10.997l3.625-12.105h-4.168
		l0.334-1.135h4.221c0.062-0.213,0.188-0.625,0.359-1.179c1.943-7.144,5.145-10.769,9.514-10.769c1.254,0,2.229,0.283,2.896,0.842
		c0.674,0.561,1.016,1.127,1.016,1.683c0,0.808-0.402,1.233-1.172,1.233c-0.611,0-1.234-0.498-1.906-1.524
		c-0.438-0.687-0.967-1.03-1.572-1.03c-0.945,0-1.861,0.442-2.73,1.316c-0.871,0.879-1.854,3.322-2.92,7.262l-0.646,2.166h3.799
		l-0.336,1.135h-3.848l-3.691,12.504c-1.518,5.674-3.205,9.539-5.01,11.488C364.245,137.201,362.215,138.194,360.032,138.194"/>
	<path id="path56" fill="#628BCF" d="M383.254,128.503c-0.689,0-1.305-0.25-1.826-0.746c-0.52-0.496-0.787-1.229-0.787-2.184
		c0-0.767,0.359-2.244,1.068-4.394l2.182-6.552c0.504-1.521,0.756-2.451,0.756-2.764c0-0.258-0.062-0.453-0.18-0.58
		c-0.119-0.123-0.295-0.185-0.543-0.185c-0.523,0-1.17,0.427-1.916,1.269c-0.756,0.854-1.293,1.637-1.604,2.328l-0.027,0.057h-1.246
		l0.07-0.139c0.787-1.564,1.701-2.818,2.715-3.725c1.025-0.914,1.998-1.378,2.891-1.378c0.695,0,1.277,0.241,1.723,0.718
		c0.443,0.477,0.67,1.104,0.67,1.87c0,0.771-0.342,2.183-1.02,4.192l-1.832,5.58c-0.668,1.994-1.008,3.264-1.008,3.774
		c0,0.396,0.076,0.692,0.227,0.884c0.145,0.186,0.354,0.276,0.645,0.276c1.018,0,2.246-1.263,3.65-3.755l0.027-0.049h1.238
		l-0.064,0.138c-0.672,1.392-1.557,2.644-2.635,3.721C385.34,127.951,384.274,128.503,383.254,128.503"/>
	<path id="path58" fill="#628BCF" d="M402.848,128.503c-0.666,0-1.248-0.205-1.727-0.612c-0.484-0.41-0.732-1.022-0.732-1.823
		c0-0.664,0.326-1.924,0.992-3.855l2.297-6.553c0.609-1.771,0.92-2.928,0.92-3.441c0-0.439-0.098-0.77-0.287-0.979
		c-0.189-0.205-0.486-0.31-0.885-0.31c-1.051,0-2.455,1.274-4.182,3.788c-1.74,2.537-3.26,5.902-4.51,10.006l-1.072,3.501h-2.82
		l0.039-0.123l3.779-12.203c0.68-2.229,1.025-3.521,1.025-3.839c0-0.221-0.037-0.383-0.109-0.48
		c-0.068-0.09-0.178-0.134-0.332-0.134c-0.809,0-1.795,1.039-2.938,3.089l-0.027,0.049h-1.205l0.076-0.142
		c1.807-3.271,3.547-4.928,5.186-4.928c0.586,0,1.035,0.183,1.334,0.541c0.293,0.354,0.439,0.894,0.439,1.6
		c0,1.022-0.33,2.522-0.986,4.47c2.383-4.387,4.738-6.609,7.014-6.609c0.809,0,1.521,0.271,2.121,0.811
		c0.607,0.539,0.916,1.33,0.916,2.358c0,0.661-0.291,1.853-0.889,3.64l-2.297,6.854c-0.758,2.277-0.916,2.923-0.916,3.062
		c0,0.243,0.059,0.428,0.176,0.547c0.113,0.115,0.291,0.174,0.523,0.174c0.459,0,0.961-0.27,1.498-0.799
		c0.549-0.543,1.143-1.363,1.766-2.44l0.029-0.048h1.311l-0.076,0.144c-0.863,1.548-1.754,2.728-2.652,3.505
		C404.737,128.105,403.795,128.503,402.848,128.503"/>
	<path id="path60" fill="#628BCF" d="M420.782,110.779c-0.9,0-1.865,0.545-2.867,1.614c-1.014,1.084-2.137,2.989-3.336,5.666
		c-1.201,2.672-1.812,4.938-1.812,6.739c0,0.781,0.139,1.373,0.404,1.761c0.26,0.386,0.639,0.571,1.158,0.571
		c0.93,0,2.029-0.666,3.264-1.979c1.246-1.32,2.414-3.535,3.467-6.58c1.053-3.05,1.586-5.002,1.586-5.802
		c0-0.505-0.174-0.97-0.518-1.38C421.793,110.986,421.34,110.779,420.782,110.779L420.782,110.779z M421.567,128.503
		c-0.785,0-1.389-0.242-1.793-0.721c-0.398-0.475-0.6-1.182-0.6-2.104c0-0.282,0.016-0.547,0.047-0.793
		c-1.959,2.4-3.807,3.617-5.496,3.617c-0.998,0-1.861-0.41-2.564-1.215c-0.699-0.802-1.055-1.971-1.055-3.479
		c0-2.084,0.584-4.351,1.732-6.733c1.15-2.385,2.594-4.263,4.295-5.576c1.705-1.317,3.209-1.986,4.475-1.986
		c0.662,0,1.232,0.158,1.699,0.468c0.41,0.271,0.75,0.666,1.018,1.173l2.557-8.425c0.389-1.261,0.471-1.696,0.471-1.842
		c0-0.313-0.082-0.528-0.252-0.655c-0.121-0.088-0.461-0.195-1.375-0.195h-0.729l0.336-1.094h0.07c2.059,0,3.719-0.258,4.936-0.766
		l0.035-0.008h0.668l-0.037,0.123l-6.92,22.623c-0.842,2.776-1.27,4.431-1.27,4.914c0,0.336,0.061,0.588,0.186,0.748
		c0.119,0.155,0.287,0.23,0.516,0.23c0.402,0,0.859-0.243,1.361-0.727c0.514-0.494,1.084-1.246,1.693-2.235l0.025-0.046h1.268
		l-0.076,0.141c-0.646,1.18-1.475,2.241-2.457,3.16C423.333,128.033,422.405,128.503,421.567,128.503"/>
	<path id="path62" fill="#628BCF" d="M434.467,138.625c-1.873,0-2.824-0.561-2.824-1.664c0-0.463,0.211-0.832,0.623-1.101
		c0.402-0.262,0.832-0.394,1.277-0.394c0.338,0,0.852,0.093,1.57,0.283c0.904,0.254,1.654,0.385,2.23,0.385
		c0.838,0,1.672-0.239,2.477-0.709c0.811-0.471,1.832-1.305,3.033-2.477c1.191-1.164,2.045-2.212,2.529-3.115
		c0.479-0.899,0.912-2.506,1.289-4.771c0.375-2.279,0.566-4.762,0.566-7.375c0-1.986-0.188-3.538-0.553-4.609
		c-0.355-1.041-0.789-1.568-1.285-1.568c-0.982,0-1.602,1.322-1.84,3.933l-0.008,0.086h-1.092l0.008-0.103
		c0.172-2.045,0.631-3.553,1.361-4.487c0.74-0.944,1.551-1.424,2.408-1.424c1.092,0,1.979,0.672,2.631,1.999
		c0.641,1.302,0.965,3.307,0.965,5.961c0,3.29-0.365,6.354-1.082,9.115c1.305-1.48,2.596-3.34,3.834-5.531
		c1.328-2.336,2-4.352,2-5.99c0-0.768-0.227-1.539-0.674-2.294c-0.473-0.78-0.701-1.358-0.701-1.769
		c0-0.394,0.119-0.742,0.355-1.037c0.236-0.301,0.533-0.454,0.877-0.454c0.551,0,1.004,0.312,1.354,0.93
		c0.336,0.604,0.506,1.494,0.506,2.647c0,1.719-0.535,3.845-1.59,6.32c-1.049,2.467-2.611,4.946-4.643,7.373
		c-2.023,2.414-4.068,4.627-6.076,6.58c-2.01,1.951-3.76,3.329-5.201,4.1C437.35,138.233,435.893,138.625,434.467,138.625"/>
	<path id="path64" fill="#628BCF" d="M467.292,110.757c-1.738,0-3.266,1.684-4.541,4.998c-1.285,3.35-1.938,6.334-1.938,8.873
		c0,0.748,0.197,1.394,0.584,1.92c0.385,0.522,0.9,0.777,1.576,0.777c1.865,0,3.428-1.814,4.646-5.394
		c1.23-3.611,1.854-6.405,1.854-8.306c0-0.963-0.184-1.689-0.551-2.166C468.559,110.988,468.026,110.757,467.292,110.757z
		 M462.887,128.397c-1.209,0-2.283-0.474-3.191-1.403c-0.91-0.932-1.371-2.56-1.371-4.838c0-1.723,0.406-3.625,1.209-5.652
		c0.805-2.03,1.971-3.703,3.467-4.969c1.5-1.27,2.979-1.912,4.398-1.912c1.303,0,2.387,0.559,3.225,1.66
		c0.832,1.092,1.254,2.59,1.254,4.449c0,2.239-0.465,4.391-1.383,6.398c-0.92,2.013-2.09,3.574-3.477,4.646
		C465.627,127.852,464.237,128.397,462.887,128.397"/>
	<path id="path66" fill="#628BCF" d="M486.647,128.503c-0.729,0-1.285-0.207-1.648-0.614c-0.365-0.402-0.551-1.013-0.551-1.812
		c0-0.916,0.287-2.3,0.854-4.119c-2.332,4.344-4.676,6.545-6.977,6.545c-0.924,0-1.662-0.291-2.193-0.867
		c-0.531-0.573-0.799-1.297-0.799-2.148c0-0.83,0.281-2.167,0.861-4.088l2.346-7.714c0.34-1.131,0.512-1.815,0.512-2.034
		c0-0.32-0.143-0.464-0.465-0.464c-0.855,0-1.826,1.203-2.879,3.575l-0.025,0.057h-1.23l0.049-0.129
		c0.576-1.514,1.342-2.764,2.273-3.718c0.943-0.968,1.891-1.459,2.814-1.459c0.578,0,1.078,0.187,1.49,0.551
		c0.412,0.366,0.621,0.922,0.621,1.649c0,0.51-0.227,1.531-0.672,3.033l-2.396,7.951c-0.453,1.53-0.684,2.549-0.684,3.023
		c0,0.418,0.092,0.736,0.277,0.947c0.182,0.205,0.455,0.312,0.812,0.312c1.225,0,2.713-1.336,4.428-3.97
		c1.727-2.659,3.453-6.652,5.143-11.87l0.408-1.349h2.795l-0.039,0.125l-3.998,12.317c-0.635,1.978-0.955,3.188-0.955,3.604
		c0,0.34,0.064,0.594,0.193,0.757c0.125,0.157,0.312,0.235,0.57,0.235c1.043,0,2.055-1.174,3.008-3.488l0.025-0.059h1.102
		l-0.045,0.129C490.448,126.792,488.758,128.503,486.647,128.503"/>
	<path id="path68" fill="#628BCF" d="M497.592,128.225h-2.76l0.039-0.122l3.463-11.389c0.646-2.162,0.975-3.641,0.975-4.396
		c0-0.396-0.051-0.691-0.15-0.88c-0.09-0.168-0.223-0.25-0.398-0.25c-0.438,0-1.012,0.5-1.701,1.483
		c-0.703,1.015-1.211,1.947-1.504,2.771l-0.021,0.062h-1.15l0.049-0.127c0.604-1.607,1.371-2.998,2.281-4.131
		c0.924-1.149,1.855-1.733,2.77-1.733c0.648,0,1.137,0.265,1.453,0.786c0.311,0.509,0.469,1.279,0.469,2.293
		c0,1.059-0.229,2.465-0.697,4.281c0.072-0.162,0.15-0.34,0.232-0.535c1.051-2.383,1.988-4.133,2.791-5.195
		c0.814-1.081,1.646-1.63,2.471-1.63c0.52,0,0.947,0.17,1.266,0.505c0.316,0.331,0.477,0.736,0.477,1.203
		c0,0.453-0.135,0.828-0.4,1.117s-0.588,0.438-0.959,0.438c-0.414,0-0.834-0.25-1.252-0.742c-0.139-0.162-0.273-0.246-0.398-0.246
		c-0.459,0-1.391,0.887-3.211,5.109c-1.473,3.411-2.691,6.68-3.627,9.714L497.592,128.225"/>
	<path id="path70" fill="#628BCF" d="M535.495,110.649c-0.529,0-1.141,0.705-1.814,2.093c-0.686,1.409-1.033,3.496-1.033,6.203
		c0,0.254,0.01,0.539,0.025,0.85c1.135-1.539,2-2.975,2.574-4.268c0.602-1.348,0.906-2.574,0.906-3.643
		c0-0.428-0.059-0.747-0.172-0.951C535.875,110.744,535.715,110.649,535.495,110.649z M522.754,128.503
		c-1.213,0-2.145-0.379-2.768-1.127c-0.621-0.744-0.938-1.682-0.938-2.787c0-2.397,1.561-5.823,4.639-10.182
		c0.557-0.767,0.938-1.307,1.15-1.637c-0.518,0.247-1.016,0.37-1.48,0.37c-0.525,0-1.084-0.276-1.658-0.82
		c-0.221-0.223-0.42-0.339-0.576-0.339c-0.299,0-0.551,0.264-0.752,0.775l-0.084,0.256h-1.115l0.031-0.118
		c0.568-2.172,1.357-3.272,2.348-3.272c0.6,0,1.225,0.373,1.857,1.106c1.113,1.274,1.885,1.354,2.219,0.103
		c0.24-0.875,0.611-1.317,1.104-1.317c0.631,0,0.76,0.38,0.76,0.696c0,0.131-0.123,0.521-1.193,2.365
		c-1.807,3.069-2.998,5.646-3.545,7.658c-0.549,2.016-0.826,3.415-0.826,4.16c0,0.704,0.174,1.312,0.51,1.805
		c0.336,0.483,0.801,0.719,1.418,0.719c0.918,0,2.006-0.449,3.23-1.334c1.223-0.885,2.211-1.777,2.943-2.653
		c-0.041-0.343-0.062-0.716-0.062-1.109c0-2.948,0.604-5.761,1.791-8.354c1.199-2.621,2.494-3.951,3.846-3.951
		c0.576,0,1.012,0.209,1.295,0.621c0.273,0.402,0.412,1.006,0.412,1.791c0,1.328-0.375,2.802-1.115,4.377
		c-0.732,1.564-1.854,3.279-3.33,5.099c0.131,1.774,0.492,3.171,1.07,4.146c0.572,0.967,1.293,1.457,2.143,1.457
		c0.816,0,1.785-0.493,2.879-1.469c1.104-0.98,2.105-2.486,2.975-4.474c0.871-1.987,1.312-3.688,1.312-5.058
		c0-0.812-0.229-1.715-0.68-2.686c-0.42-0.896-0.631-1.66-0.631-2.271c0-0.465,0.127-0.84,0.379-1.115
		c0.256-0.277,0.537-0.419,0.832-0.419c0.436,0,0.838,0.297,1.199,0.884c0.352,0.568,0.529,1.525,0.529,2.84
		c0,1.895-0.461,4.225-1.371,6.928c-0.908,2.715-2.197,4.801-3.828,6.203c-1.639,1.403-3.229,2.114-4.734,2.114
		c-1.283,0-2.338-0.478-3.135-1.417c-0.74-0.877-1.229-1.796-1.453-2.734c-1.332,1.354-2.635,2.394-3.873,3.088
		C525.192,128.139,523.938,128.503,522.754,128.503"/>
	<path id="path72" fill="#628BCF" d="M555.848,102.121c-0.553,0-1.025-0.201-1.402-0.6c-0.373-0.396-0.562-0.863-0.562-1.387
		c0-0.541,0.195-1.008,0.578-1.389c0.383-0.383,0.848-0.576,1.387-0.576s1.008,0.193,1.391,0.576
		c0.383,0.381,0.574,0.848,0.574,1.389s-0.193,1.011-0.574,1.398C556.856,101.921,556.387,102.121,555.848,102.121z
		 M551.354,128.503c-0.693,0-1.311-0.25-1.828-0.746c-0.521-0.493-0.785-1.229-0.785-2.184c0-0.773,0.357-2.253,1.066-4.394
		l2.184-6.552c0.498-1.517,0.752-2.445,0.752-2.764c0-0.261-0.061-0.455-0.176-0.58c-0.117-0.121-0.301-0.185-0.543-0.185
		c-0.529,0-1.174,0.427-1.916,1.267c-0.758,0.859-1.301,1.643-1.607,2.33l-0.025,0.057h-1.248l0.07-0.139
		c0.791-1.566,1.707-2.818,2.719-3.725c1.021-0.914,1.994-1.378,2.889-1.378c0.693,0,1.275,0.241,1.723,0.718
		s0.672,1.105,0.672,1.87c0,0.772-0.334,2.146-1.02,4.192l-1.836,5.58c-0.668,2-1.008,3.271-1.008,3.774
		c0,0.394,0.076,0.69,0.229,0.884c0.145,0.186,0.355,0.276,0.643,0.276c1.02,0,2.248-1.263,3.652-3.755l0.027-0.049h1.236
		l-0.064,0.138c-0.672,1.396-1.559,2.647-2.631,3.721C553.438,127.951,552.372,128.503,551.354,128.503"/>
	<path id="path74" fill="#628BCF" d="M570.942,128.503c-0.664,0-1.246-0.205-1.727-0.612c-0.484-0.41-0.73-1.022-0.73-1.823
		c0-0.656,0.322-1.916,0.992-3.855l2.301-6.553c0.605-1.771,0.916-2.93,0.916-3.441c0-0.439-0.098-0.77-0.285-0.979
		c-0.189-0.205-0.488-0.31-0.887-0.31c-1.049,0-2.455,1.274-4.186,3.788c-1.738,2.531-3.254,5.898-4.506,10.006l-1.072,3.501h-2.82
		l0.035-0.123l3.781-12.203c0.68-2.231,1.027-3.522,1.027-3.839c0-0.223-0.037-0.385-0.109-0.48c-0.07-0.09-0.18-0.134-0.336-0.134
		c-0.809,0-1.795,1.039-2.936,3.089l-0.025,0.049h-1.205l0.078-0.142c1.83-3.315,3.525-4.928,5.184-4.928
		c0.59,0,1.037,0.183,1.33,0.541c0.299,0.356,0.443,0.88,0.443,1.6c0,1.022-0.33,2.522-0.986,4.47
		c2.383-4.387,4.736-6.609,7.012-6.609c0.809,0,1.523,0.271,2.127,0.811s0.91,1.332,0.91,2.358c0,0.657-0.289,1.849-0.885,3.64
		l-2.297,6.854c-0.762,2.273-0.92,2.921-0.92,3.062c0,0.243,0.059,0.428,0.176,0.547c0.119,0.116,0.291,0.174,0.521,0.174
		c0.459,0,0.965-0.27,1.504-0.799c0.547-0.543,1.141-1.363,1.766-2.44l0.025-0.048h1.312l-0.078,0.144
		c-0.859,1.548-1.752,2.728-2.652,3.505C572.834,128.105,571.891,128.503,570.942,128.503"/>
	<path id="path76" fill="#628BCF" d="M587.719,110.585c-1.215,0-2.359,1.035-3.402,3.074c-1.059,2.061-1.592,4.059-1.592,5.939
		c0,0.771,0.221,1.4,0.65,1.869c0.43,0.465,0.975,0.699,1.615,0.699c0.76,0,1.447-0.309,2.049-0.916
		c0.613-0.619,1.219-1.785,1.807-3.467c0.588-1.684,0.889-3.141,0.889-4.33c0-0.961-0.172-1.689-0.512-2.17
		C588.887,110.815,588.397,110.585,587.719,110.585z M582.715,138.365c-2.598,0-4.65-0.431-6.105-1.281
		c-1.473-0.857-2.219-1.949-2.219-3.24c0-0.954,0.365-1.768,1.084-2.422c0.719-0.65,1.344-0.979,1.867-0.979
		c0.701,0,0.852,0.354,0.852,0.651c0,0.23-0.18,0.525-0.543,0.904c-0.566,0.608-0.855,1.209-0.855,1.781
		c0,0.896,0.463,1.7,1.379,2.396c0.926,0.699,2.365,1.056,4.283,1.056c2.061,0,3.645-0.356,4.705-1.062
		c1.049-0.694,1.582-1.516,1.582-2.438c0-0.731-0.361-1.312-1.096-1.771c-0.748-0.467-2.402-0.998-4.912-1.582
		c-2.246-0.523-3.604-1.061-4.15-1.641c-0.559-0.559-0.842-1.182-0.842-1.851c0-0.929,0.471-1.815,1.404-2.642
		c0.879-0.777,2.109-1.336,3.664-1.662c-0.832-0.504-1.475-1.147-1.91-1.918c-0.473-0.834-0.709-1.842-0.709-3
		c0-2.107,0.762-4.012,2.258-5.662c1.504-1.652,3.225-2.491,5.117-2.491c0.594,0,1.158,0.097,1.68,0.286
		c0.49,0.181,0.947,0.455,1.357,0.822c0.941-0.764,1.74-1.149,2.377-1.149c0.543,0,0.988,0.155,1.334,0.465
		c0.348,0.31,0.525,0.704,0.525,1.177c0,0.737-0.375,1.127-1.088,1.127c-0.4,0-0.795-0.26-1.168-0.771
		c-0.422-0.578-0.805-0.572-1.25,0.015c0.557,0.944,0.842,2.078,0.842,3.367c0,2.491-0.74,4.487-2.197,5.935
		c-1.473,1.44-3.283,2.312-5.385,2.582c-3.039,0.395-4.58,1.202-4.58,2.402c0,0.373,0.164,0.671,0.5,0.913
		c0.346,0.249,1.092,0.495,2.221,0.735c1.988,0.445,3.631,0.852,4.879,1.207c1.273,0.361,2.23,0.904,2.852,1.61
		c0.623,0.709,0.939,1.56,0.939,2.524c0,1.488-0.768,2.811-2.273,3.929C587.631,137.802,585.471,138.365,582.715,138.365"/>
	<path id="path78" fill="#628BCF" d="M598.073,128.503c-1.494,0-2.635-0.336-3.383-1c-0.76-0.67-1.143-1.397-1.143-2.168
		c0-0.418,0.119-0.785,0.355-1.09c0.238-0.311,0.553-0.467,0.924-0.467c0.822,0,1.258,0.458,1.258,1.32
		c0,0.193-0.045,0.461-0.133,0.818c-0.057,0.156-0.084,0.268-0.084,0.342c0,0.311,0.201,0.574,0.617,0.81
		c0.428,0.241,0.945,0.364,1.543,0.364c0.934,0,1.795-0.301,2.562-0.895c0.762-0.588,1.146-1.412,1.146-2.449
		c0-0.91-0.555-2.377-1.646-4.357c-1.293-2.32-1.945-4.05-1.943-5.136c0-1.397,0.561-2.595,1.666-3.554
		c1.104-0.957,2.375-1.443,3.777-1.443c1.035,0,1.932,0.266,2.666,0.792c0.746,0.53,1.125,1.114,1.125,1.731
		c0,1.021-0.564,1.234-1.041,1.234c-0.518,0-0.895-0.455-1.123-1.352c-0.219-0.898-0.801-1.336-1.777-1.336
		c-0.791,0-1.486,0.22-2.068,0.651c-0.572,0.425-0.865,0.987-0.865,1.673c0,0.961,0.48,2.299,1.43,3.979
		c0.918,1.575,1.514,2.739,1.818,3.56c0.312,0.822,0.469,1.68,0.469,2.547c0,1.354-0.523,2.606-1.561,3.729
		C601.625,127.934,600.081,128.503,598.073,128.503"/>
	<path id="path80" fill="#628BCF" d="M622.944,104.451l3.217,6.703l3.092-6.703h3.275v0.436c-0.557,0.016-0.908,0.115-1.064,0.298
		c-0.158,0.185-0.234,0.61-0.234,1.282v5.484c0,0.664,0.072,1.078,0.221,1.242c0.148,0.165,0.508,0.264,1.08,0.294v0.423h-4.666
		v-0.423c0.578-0.016,0.955-0.116,1.133-0.305c0.176-0.188,0.264-0.595,0.264-1.22v-5.766l-3.592,7.711h-0.371l-3.621-7.605v5.648
		c0,0.602,0.068,1.008,0.205,1.219s0.434,0.316,0.887,0.316h0.424v0.422h-3.588v-0.422c0.547,0,0.904-0.092,1.072-0.275
		s0.25-0.604,0.25-1.26v-5.461c0-0.695-0.074-1.137-0.227-1.324c-0.154-0.188-0.518-0.281-1.098-0.281v-0.434H622.944
		L622.944,104.451z M610.018,104.451h8.518l0.258,2.356h-0.396c-0.039-0.392-0.201-0.765-0.484-1.119s-0.879-0.534-1.781-0.534
		h-0.877v6.786c0,0.656,0.08,1.071,0.236,1.248c0.154,0.175,0.49,0.274,1.008,0.299v0.423h-4.383v-0.423
		c0.43-0.03,0.732-0.106,0.908-0.229c0.176-0.12,0.264-0.557,0.264-1.307v-6.798h-0.891c-0.773,0-1.312,0.13-1.609,0.388
		c-0.303,0.258-0.508,0.681-0.617,1.267h-0.398L610.018,104.451"/>
</g>
</svg>
