<?xml version="1.0" encoding="utf-8"?>
<!-- Generator: Adobe Illustrator 15.0.2, SVG Export Plug-In . SVG Version: 6.00 Build 0)  -->
<!DOCTYPE svg PUBLIC "-//W3C//DTD SVG 1.1//EN" "http://www.w3.org/Graphics/SVG/1.1/DTD/svg11.dtd">
<svg version="1.1" xmlns="http://www.w3.org/2000/svg" xmlns:xlink="http://www.w3.org/1999/xlink" x="0px" y="0px"
	 width="583.588px" height="74.435px" viewBox="0 0 583.588 74.435" enable-background="new 0 0 583.588 74.435"
	 xml:space="preserve">
<g id="Layer_4" display="none">
	<path display="inline" fill="#FFFFFF" d="M37.141,26.053c-1.961,5.198-7.353,8.957-12.444,10.62
		c-4.253,1.39-10.242,0.354-10.879-4.925c-1.124-9.318,6.553-20.743,13.013-26.83c4.702-4.431-2.383-11.489-7.071-7.071
		C12.617,4.576,4.402,16.904,3.718,28.209c-0.884,1.729-0.774,3.994,0.337,5.583c0.403,2.074,1.128,4.072,2.259,5.94
		c4.615,7.621,14.472,8.73,22.227,6.196c8.189-2.676,15.209-9.176,18.243-17.217C49.064,22.666,39.395,20.079,37.141,26.053z"/>
	
		<rect x="-24.204" y="-31.784" display="inline" fill="#F9A2A2" stroke="#ED1C24" stroke-miterlimit="10" width="632" height="138"/>
</g>
<g id="Original" display="none">
	<g id="g10" transform="matrix(1.3333333,0,0,-1.3333333,0,138.62667)" display="inline">
		<g id="g12" transform="scale(0.1)">
			<g id="g14">
				<g>
					<defs>
						<rect id="SVGID_1_" x="1872.191" y="691.259" width="632.528" height="138.624"/>
					</defs>
					<clipPath id="SVGID_2_">
						<use xlink:href="#SVGID_1_"  overflow="visible"/>
					</clipPath>
					<g id="g16" clip-path="url(#SVGID_2_)">
						<path id="path22" fill="#628BCF" d="M147.935,769.451c-4.039,0-7.983,2.036-10.261,5.728
							c-3.497,5.662-1.743,13.081,3.918,16.582c482.076,297.832,1155.623,488.65,1917.733,488.65
							c660.022,0,1595.31-143.167,2128.557-488.789c5.581-3.611,7.185-11.074,3.552-16.663c-3.611-5.581-11.074-7.185-16.663-3.552
							c-528.831,342.751-1458.889,484.907-2115.447,484.907c-757.771,0-1426.692-189.514-1905.07-485.046
							C152.285,770.037,150.095,769.451,147.935,769.451"/>
						<path id="path24" fill="#273679" d="M81.53,994.319c-0.469-6.621-8.518-7.581-8.518-7.581c-1.41,0-10.378,4.746-12.283,5.706
							c-15.579,6.577-43.466,15.095-73.696,15.095c-64.739,0-128.507-39.199-128.507-130.408
							c0-84.573,60.945-131.353,125.211-131.353c28.799,0,58.564,7.112,77.465,15.608c1.432,0.469,9.456,4.724,10.4,4.724
							c0.941,0,5.669-3.765,6.141-4.255c0.469-0.938,0-1.897,0-3.318l-3.79-19.827c-0.472-3.303-1.882-4.746-5.647-6.152
							c-3.79-1.428-41.111-10.408-89.769-10.408c-32.615,0-82.69,3.318-122.391,46.772c-25.507,27.891-39.672,64.277-39.672,102.07
							c0,62.856,38.262,121.45,102.056,147.422c27.393,11.353,57.158,13.696,83.628,13.696c47.23,0,76.055-9.456,79.845-11.821
							c2.355-1.406,2.355-3.75,1.879-5.662L81.53,994.319"/>
						<path id="path26" fill="#273679" d="M241.849,727.381h31.578v256.641h-31.578V727.381z"/>
						<path id="path28" fill="#273679" d="M429.28,727.381h31.582v256.641H429.28V727.381z"/>
						<path id="path30" fill="#273679" d="M755.783,830.586l-44.923,120.256l-50.585-120.256H755.783z M617.34,727.381h-32.369
							L703.96,984.021h25.118l99.185-256.641h-34.42l-30.366,82.969H651.753L617.34,727.381"/>
						<path id="path32" fill="#273679" d="M987.814,858.125c6.46-0.798,15.78-1.23,27.129-1.23c31.97,0,74.081,4.475,74.081,55.488
							c0,50.588-38.87,51.819-65.592,51.819c-6.068,0-23.877-0.432-35.618-1.23V858.125z M987.814,727.381h-31.582v256.641
							c8.921,0,48.571,1.216,69.232,1.216c39.668,0,62.739-2.812,78.519-19.006c13.359-12.971,19.841-33.245,19.841-50.215
							c0-48.186-40.47-64.768-54.642-70.43c23.881-42.539,49.391-74.099,61.542-87.048c2.809-2.424,14.158-14.165,35.599-17.812
							l-4.061-12.539c-0.798-2.834-3.607-2.834-6.46-2.834c-38.848,0-57.07,6.445-119.03,112.932
							c-8.881-1.194-19.801-2.856-48.959-1.626V727.381"/>
						<path id="path34" fill="#273679" d="M1365.092,961.346V727.381h-31.538v233.965h-108.109v22.676h248.558v-22.676H1365.092"/>
						<path id="path36" fill="#273679" d="M1611.625,750.43h134.817v-23.049h-166.37v256.641h165.143v-22.676h-133.59v-86.228
							h118.63v-22.639h-118.63V750.43"/>
						<path id="path38" fill="#273679" d="M1918.063,858.125c6.511-0.798,15.802-1.23,27.151-1.23
							c31.97,0,74.059,4.475,74.059,55.488c0,50.588-38.84,51.819-65.577,51.819c-6.061,0-23.873-0.432-35.632-1.23V858.125z
							 M1918.063,727.381h-31.538v256.641c8.888,0,48.549,1.216,69.199,1.216c39.668,0,62.75-2.812,78.549-19.006
							c13.319-12.971,19.83-33.245,19.83-50.215c0-48.186-40.488-64.768-54.65-70.43c23.87-42.539,49.369-74.099,61.52-87.048
							c2.871-2.424,14.162-14.165,35.632-17.812l-4.072-12.539c-0.798-2.834-3.611-2.834-6.438-2.834
							c-38.873,0-57.092,6.445-119.022,112.932c-8.91-1.194-19.849-2.856-49.01-1.626V727.381"/>
						<path id="path40" fill="#273679" d="M2408.126,992.444v-1.919c0-1.406-6.621-4.255-8.035-4.255
							c-0.93,0-5.193,3.787-8.503,5.684c-13.696,7.537-37.808,15.586-60,15.586c-20.325,0-62.834-7.559-62.834-50.544
							c0-30.256,21.262-39.69,68.958-60c36.885-15.608,84.097-35.903,84.097-87.422c0-41.587-32.578-87.422-112.881-87.422
							c-22.69,0-54.8,4.761-71.836,8.979c-4.263,0.959-12.268,3.303-13.228,8.071l-4.263,26.44c-0.454,2.812,0,3.281,0.469,3.75
							c0.967,0.959,6.167,3.325,7.09,3.325c3.325,0,7.09-3.325,9.932-4.731c17.959-9.917,48.201-19.351,77.959-19.351
							c30.242,0,69.448,14.648,69.448,52.91c0,34.98-31.172,48.201-64.248,62.358c-49.629,20.801-87.422,36.387-87.422,85.51
							c0,46.326,37.324,83.167,108.208,83.167c29.766,0,55.269-7.581,57.656-8.049c2.344-0.938,4.702-2.344,5.171-6.116
							L2408.126,992.444"/>
						<path id="path42" fill="#273679" d="M2580.443,750.43h134.81v-23.049h-166.37v256.641h165.139v-22.676h-133.579v-86.228
							h118.616v-22.639h-118.616V750.43"/>
						<path id="path44" fill="#273679" d="M2973.007,830.586l-44.941,120.256l-50.581-120.256H2973.007z M2834.55,727.381h-32.366
							l119.011,256.641h25.085l99.199-256.641h-34.387l-30.41,82.969h-111.716l-34.409-82.969"/>
						<path id="path46" fill="#273679" d="M3192.426,858.125c6.475-0.798,15.754-1.23,27.107-1.23
							c31.992,0,74.084,4.475,74.084,55.488c0,50.588-38.833,51.819-65.574,51.819c-6.072,0-23.899-0.432-35.618-1.23V858.125z
							 M3192.426,727.381h-31.582v256.641c8.899,0,48.567,1.216,69.229,1.216c39.668,0,62.739-2.812,78.538-19.006
							c13.323-12.971,19.827-33.245,19.827-50.215c0-48.186-40.496-64.768-54.653-70.43c23.87-42.539,49.38-74.099,61.509-87.048
							c2.871-2.424,14.18-14.165,35.64-17.812l-4.058-12.539c-0.798-2.834-3.611-2.834-6.438-2.834
							c-38.87,0-57.092,6.445-119.033,112.932c-8.892-1.194-19.856-2.856-48.977-1.626V727.381"/>
						<path id="path48" fill="#273679" d="M3674.162,942.654c-0.41-5.684-7.288-6.482-7.288-6.482c-1.23,0-7.463,5.178-8.943,6.189
							c-12.385,8.481-36.138,17.402-62.014,17.285c-48.062-0.212-107.153-25.818-107.153-103.945
							c0-72.458,52.251-112.559,107.271-112.559c24.712,0,50.222,6.079,66.409,13.359c1.208,0.432,8.079,4.043,8.877,4.043
							c0.842,0,4.915-3.237,5.281-3.611c0.432-0.82,0-1.641,0-2.849l-3.245-17.014c-0.396-2.812-1.604-4.043-4.863-5.273
							c-3.237-1.194-35.193-8.884-76.89-8.884c-27.949,0-70.818,2.812-104.846,40.093c-21.833,23.848-33.984,55.042-33.984,87.422
							c0,53.87,23.364,99.551,78.01,121.816c23.474,9.749,43.608,11.777,66.313,11.777c33.625,0,75.535-19.607,78.779-21.636
							c2.036-1.216,2.036-3.245,1.611-4.863L3674.162,942.654"/>
						<path id="path50" fill="#273679" d="M3849.21,727.381h31.597v256.641h-31.597V727.381z"/>
						<path id="path52" fill="#273679" d="M4036.681,727.381h31.523v256.641h-31.523V727.381z"/>
						<path id="path54" fill="#628BCF" d="M2516.715,243.953c-9.111,0-17.461,2.146-24.814,6.387
							c-7.449,4.314-11.228,9.785-11.228,16.245c0,3.706,1.201,6.819,3.582,9.207c2.41,2.388,5.244,3.589,8.423,3.589
							c3.75,0,6.812-1.348,9.075-4.043c2.249-2.637,3.391-5.522,3.391-8.584c0-0.806-0.146-2.161-0.483-4.153l-0.315-2.71
							c0-1.714,1.157-3.362,3.56-4.958c2.454-1.633,5.457-2.461,8.95-2.461c12.59,0,23.342,6.833,31.97,20.288
							c8.745,13.667,18.794,41.411,29.897,82.478l27.188,90.791h-31.267l2.512,8.518h31.655c0.454,1.589,1.392,4.688,2.695,8.833
							c14.568,53.577,38.577,80.757,71.353,80.757c9.39,0,16.707-2.124,21.724-6.306c5.054-4.204,7.61-8.452,7.61-12.62
							c0-6.057-3.025-9.258-8.782-9.258c-4.6,0-9.265,3.735-14.297,11.44c-3.289,5.142-7.258,7.734-11.807,7.734
							c-7.083,0-13.96-3.325-20.471-9.88c-6.541-6.592-13.909-24.924-21.907-54.463l-4.856-16.238h28.499l-2.527-8.518h-28.85
							l-27.686-93.779c-11.382-42.546-24.038-71.543-37.573-86.162C2548.305,251.409,2533.085,243.953,2516.715,243.953"/>
						<path id="path56" fill="#628BCF" d="M2690.885,316.631c-5.186,0-9.792,1.882-13.696,5.596
							c-3.911,3.721-5.903,9.229-5.903,16.384c0,5.742,2.695,16.831,8.013,32.944l16.362,49.138
							c3.765,11.404,5.662,18.384,5.662,20.728c0,1.926-0.461,3.398-1.34,4.343c-0.894,0.93-2.219,1.384-4.08,1.384
							c-3.933,0-8.767-3.201-14.363-9.514c-5.669-6.401-9.705-12.268-12.026-17.461l-0.205-0.417h-9.346l0.52,1.04
							c5.911,11.733,12.766,21.13,20.369,27.927c7.69,6.855,14.985,10.334,21.672,10.334c5.222,0,9.58-1.809,12.92-5.383
							c3.333-3.567,5.017-8.284,5.017-14.026c0-5.779-2.556-16.37-7.632-31.45l-13.74-41.851c-5.01-14.949-7.566-24.47-7.566-28.308
							c0-2.966,0.571-5.193,1.692-6.621c1.084-1.399,2.666-2.08,4.834-2.08c7.625,0,16.846,9.47,27.385,28.162l0.212,0.366h9.287
							l-0.491-1.033c-5.032-10.437-11.667-19.819-19.753-27.905C2706.53,320.777,2698.524,316.631,2690.885,316.631"/>
						<path id="path58" fill="#628BCF" d="M2837.831,316.631c-4.995,0-9.36,1.545-12.949,4.6c-3.625,3.076-5.486,7.676-5.486,13.674
							c0,4.98,2.439,14.429,7.434,28.923l17.234,49.138c4.57,13.279,6.892,21.958,6.892,25.818c0,3.296-0.725,5.764-2.153,7.339
							c-1.421,1.531-3.647,2.314-6.636,2.314c-7.874,0-18.413-9.558-31.362-28.418c-13.052-19.021-24.441-44.268-33.816-75.037
							l-8.042-26.257h-21.152l0.293,0.923l28.337,91.523c5.098,16.714,7.698,26.396,7.698,28.792c0,1.648-0.278,2.871-0.82,3.604
							c-0.513,0.674-1.333,1.003-2.498,1.003c-6.057,0-13.462-7.793-22.024-23.167l-0.205-0.359h-9.038l0.571,1.055
							c13.55,24.521,26.602,36.958,38.892,36.958c4.395,0,7.756-1.37,10.005-4.058c2.19-2.659,3.296-6.702,3.296-11.997
							c0-7.676-2.476-18.926-7.397-33.516c17.871,32.893,35.537,49.57,52.603,49.57c6.05,0,11.396-2.043,15.908-6.072
							c4.548-4.043,6.863-9.983,6.863-17.695c0-4.958-2.175-13.887-6.665-27.29l-17.227-51.409
							c-5.684-17.08-6.87-21.921-6.87-22.976c0-1.824,0.447-3.208,1.326-4.094c0.85-0.872,2.183-1.304,3.926-1.304
							c3.435,0,7.207,2.014,11.228,5.991c4.116,4.065,8.577,10.217,13.242,18.303l0.22,0.352h9.836l-0.579-1.069
							c-6.475-11.602-13.154-20.449-19.893-26.287C2851.996,319.62,2844.943,316.631,2837.831,316.631"/>
						<path id="path60" fill="#628BCF" d="M2972.34,449.566c-6.76,0-13.989-4.08-21.504-12.107
							c-7.603-8.13-16.033-22.427-25.02-42.495c-9.016-20.039-13.586-37.039-13.586-50.552c0-5.859,1.025-10.298,3.025-13.198
							c1.956-2.893,4.797-4.285,8.687-4.285c6.973,0,15.22,4.988,24.485,14.832c9.346,9.91,18.098,26.514,25.994,49.351
							c7.896,22.874,11.895,37.515,11.895,43.513c0,3.787-1.304,7.273-3.875,10.349
							C2979.921,448.013,2976.522,449.566,2972.34,449.566L2972.34,449.566z M2978.222,316.631c-5.881,0-10.4,1.816-13.44,5.413
							c-2.988,3.552-4.497,8.855-4.497,15.769c0,2.117,0.117,4.102,0.352,5.947c-14.692-18.003-28.542-27.129-41.221-27.129
							c-7.485,0-13.96,3.069-19.233,9.111c-5.251,6.006-7.91,14.773-7.91,26.089c0,15.63,4.38,32.622,13,50.508
							s19.453,31.963,32.205,41.821c12.788,9.88,24.075,14.897,33.56,14.897c4.958,0,9.25-1.187,12.744-3.508
							c3.076-2.036,5.625-4.995,7.625-8.796l19.175,63.186c2.915,9.456,3.53,12.729,3.53,13.813c0,2.358-0.615,3.962-1.89,4.915
							c-0.908,0.659-3.45,1.465-10.305,1.465h-5.479l2.527,8.203h0.527c15.432,0,27.883,1.934,37.009,5.742l0.271,0.059h5.01
							l-0.278-0.923l-51.899-169.68c-6.321-20.823-9.536-33.223-9.536-36.855c0-2.52,0.469-4.402,1.399-5.603
							c0.886-1.172,2.146-1.736,3.867-1.736c3.01,0,6.438,1.824,10.203,5.442c3.86,3.706,8.137,9.353,12.708,16.772l0.198,0.344h9.5
							l-0.579-1.055c-4.849-8.84-11.06-16.809-18.42-23.701C2991.471,320.169,2984.513,316.631,2978.222,316.631"/>
						<path id="path62" fill="#628BCF" d="M3074.982,240.73c-14.055,0-21.189,4.197-21.189,12.48c0,3.472,1.582,6.24,4.68,8.247
							c3.01,1.963,6.233,2.944,9.573,2.944c2.534,0,6.387-0.688,11.785-2.124c6.79-1.904,12.415-2.878,16.736-2.878
							c6.284,0,12.539,1.794,18.56,5.31c6.086,3.53,13.74,9.785,22.756,18.582c8.943,8.73,15.33,16.582,18.97,23.364
							c3.589,6.746,6.848,18.787,9.668,35.786c2.82,17.102,4.255,35.706,4.255,55.312c0,14.905-1.399,26.536-4.146,34.57
							c-2.673,7.815-5.918,11.77-9.639,11.77c-7.375,0-12.004-9.924-13.799-29.495l-0.059-0.645h-8.188l0.066,0.769
							c1.289,15.33,4.724,26.646,10.203,33.655c5.552,7.083,11.631,10.679,18.069,10.679c8.188,0,14.832-5.039,19.724-14.993
							c4.805-9.763,7.236-24.8,7.236-44.707c0-24.675-2.732-47.659-8.108-68.364c9.785,11.104,19.46,25.042,28.755,41.484
							c9.961,17.52,14.993,32.637,14.993,44.927c0,5.75-1.699,11.543-5.046,17.205c-3.545,5.852-5.266,10.195-5.266,13.257
							c0,2.952,0.894,5.574,2.666,7.778c1.787,2.256,4.006,3.413,6.584,3.413c4.124,0,7.529-2.344,10.144-6.973
							c2.52-4.526,3.801-11.206,3.801-19.856c0-12.891-4.014-28.835-11.924-47.41c-7.866-18.494-19.592-37.097-34.827-55.291
							c-15.176-18.105-30.505-34.702-45.564-49.351c-15.081-14.641-28.198-24.976-39.009-30.747
							C3096.603,243.66,3085.675,240.73,3074.982,240.73"/>
						<path id="path64" fill="#628BCF" d="M3321.164,449.727c-13.037,0-24.492-12.62-34.058-37.485
							c-9.646-25.115-14.531-47.505-14.531-66.541c0-5.61,1.479-10.452,4.38-14.399c2.886-3.926,6.76-5.83,11.821-5.83
							c13.989,0,25.708,13.608,34.856,40.444c9.229,27.085,13.901,48.04,13.901,62.285c0,7.222-1.377,12.678-4.131,16.245
							C3330.67,447.999,3326.671,449.727,3321.164,449.727z M3288.131,317.43c-9.067,0-17.131,3.545-23.95,10.532
							c-6.819,6.98-10.276,19.189-10.276,36.277c0,12.92,3.047,27.188,9.067,42.393c6.028,15.234,14.78,27.773,25.994,37.266
							c11.25,9.521,22.346,14.348,32.996,14.348c9.763,0,17.9-4.189,24.185-12.451c6.24-8.196,9.397-19.424,9.397-33.376
							c0-16.794-3.479-32.93-10.371-47.988c-6.899-15.095-15.667-26.814-26.067-34.841
							C3308.676,321.524,3298.253,317.43,3288.131,317.43"/>
						<path id="path66" fill="#628BCF" d="M3466.322,316.631c-5.457,0-9.631,1.553-12.356,4.614
							c-2.747,3.018-4.131,7.595-4.131,13.579c0,6.877,2.146,17.249,6.409,30.901c-17.49-32.585-35.068-49.094-52.324-49.094
							c-6.936,0-12.473,2.19-16.458,6.511c-3.977,4.299-5.991,9.719-5.991,16.113c0,6.233,2.109,16.252,6.46,30.659l17.593,57.854
							c2.549,8.481,3.838,13.616,3.838,15.256c0,2.402-1.069,3.479-3.486,3.479c-6.423,0-13.689-9.023-21.592-26.814l-0.183-0.425
							h-9.236l0.366,0.967c4.314,11.345,10.056,20.72,17.051,27.883c7.083,7.258,14.18,10.942,21.116,10.942
							c4.329,0,8.086-1.392,11.177-4.131c3.091-2.747,4.651-6.914,4.651-12.371c0-3.823-1.692-11.484-5.032-22.749l-17.981-59.641
							c-3.398-11.477-5.127-19.109-5.127-22.676c0-3.135,0.696-5.522,2.087-7.104c1.362-1.545,3.413-2.336,6.101-2.336
							c9.177,0,20.347,10.02,33.201,29.773c12.942,19.944,25.906,49.893,38.562,89.026l3.069,10.107h20.962l-0.3-0.938
							l-29.985-92.38c-4.746-14.832-7.156-23.921-7.156-27.026c0-2.549,0.491-4.453,1.45-5.676c0.938-1.187,2.336-1.765,4.277-1.765
							c7.83,0,15.41,8.796,22.559,26.155l0.19,0.439h8.269l-0.337-0.959C3494.835,329.471,3482.157,316.631,3466.322,316.631"/>
						<path id="path68" fill="#628BCF" d="M3548.412,318.726h-20.691l0.286,0.916l25.979,85.408
							c4.849,16.223,7.31,27.312,7.31,32.981c0,2.966-0.381,5.193-1.135,6.599c-0.674,1.26-1.67,1.875-2.996,1.875
							c-3.289,0-7.581-3.75-12.751-11.133c-5.288-7.603-9.089-14.597-11.279-20.779l-0.168-0.476h-8.635l0.374,0.959
							c4.512,12.056,10.283,22.478,17.102,30.981c6.936,8.621,13.916,13,20.771,13c4.863,0,8.525-1.985,10.906-5.903
							c2.322-3.809,3.501-9.587,3.501-17.197c0-7.932-1.707-18.479-5.229-32.109c0.542,1.223,1.128,2.556,1.75,4.014
							c7.881,17.878,14.919,30.996,20.933,38.972c6.108,8.108,12.349,12.224,18.523,12.224c3.911,0,7.104-1.274,9.492-3.787
							c2.373-2.483,3.574-5.522,3.574-9.023c0-3.398-1.011-6.218-3.003-8.379c-2-2.175-4.417-3.289-7.2-3.289
							c-3.098,0-6.248,1.875-9.382,5.566c-1.04,1.223-2.051,1.846-2.988,1.846c-3.45,0-10.437-6.65-24.089-38.32
							c-11.038-25.583-20.193-50.098-27.202-72.854L3548.412,318.726"/>
						<path id="path70" fill="#628BCF" d="M3832.68,450.54c-3.97,0-8.547-5.288-13.608-15.696
							c-5.142-10.569-7.749-26.221-7.749-46.523c0-1.904,0.073-4.043,0.198-6.365c8.503,11.543,14.993,22.302,19.307,32
							c4.504,10.107,6.79,19.307,6.79,27.312c0,3.208-0.432,5.61-1.282,7.141C3835.543,449.837,3834.342,450.54,3832.68,450.54z
							 M3737.135,316.631c-9.104,0-16.091,2.842-20.764,8.459c-4.658,5.574-7.017,12.605-7.017,20.896
							c0,17.988,11.697,43.682,34.775,76.37c4.182,5.742,7.031,9.792,8.635,12.268c-3.882-1.853-7.61-2.776-11.111-2.776
							c-3.94,0-8.123,2.073-12.429,6.152c-1.663,1.67-3.149,2.542-4.329,2.542c-2.241,0-4.131-1.97-5.632-5.823l-0.63-1.912h-8.364
							l0.234,0.886c4.255,16.289,10.181,24.551,17.607,24.551c4.49,0,9.17-2.798,13.923-8.306
							c8.357-9.565,14.136-10.159,16.641-0.769c1.809,6.562,4.585,9.888,8.269,9.888c4.731,0,5.706-2.849,5.706-5.229
							c0-0.981-0.93-3.896-8.958-17.739c-13.542-23.02-22.478-42.341-26.587-57.437c-4.116-15.117-6.196-25.613-6.196-31.201
							c0-5.281,1.296-9.836,3.823-13.528c2.52-3.633,5.999-5.398,10.627-5.398c6.892,0,15.044,3.369,24.236,10.005
							c9.17,6.636,16.589,13.337,22.075,19.907c-0.308,2.571-0.461,5.361-0.461,8.32c0,22.119,4.526,43.206,13.44,62.659
							c8.994,19.666,18.706,29.641,28.835,29.641c4.321,0,7.581-1.567,9.705-4.666c2.065-3.01,3.091-7.537,3.091-13.433
							c0-9.961-2.805-21.006-8.357-32.82c-5.493-11.733-13.901-24.595-24.983-38.24c0.989-13.315,3.691-23.774,8.035-31.099
							c4.299-7.244,9.697-10.92,16.069-10.92c6.116,0,13.389,3.699,21.592,11.016c8.269,7.354,15.776,18.64,22.295,33.545
							c6.541,14.912,9.851,27.671,9.851,37.932c0,6.094-1.707,12.861-5.09,20.134c-3.149,6.731-4.739,12.458-4.739,17.043
							c0,3.479,0.959,6.299,2.842,8.364c1.926,2.087,4.028,3.142,6.248,3.142c3.259,0,6.284-2.227,8.994-6.628
							c2.637-4.27,3.97-11.44,3.97-21.299c0-14.202-3.457-31.685-10.276-51.958c-6.819-20.354-16.479-36.006-28.718-46.516
							c-12.283-10.532-24.221-15.864-35.508-15.864c-9.624,0-17.534,3.574-23.511,10.627c-5.559,6.577-9.221,13.469-10.898,20.508
							c-9.99-10.151-19.761-17.944-29.055-23.159C3755.417,319.371,3746.012,316.631,3737.135,316.631"/>
						<path id="path72" fill="#628BCF" d="M3985.331,514.502c-4.146,0-7.698,1.516-10.518,4.497
							c-2.798,2.974-4.219,6.482-4.219,10.393c0,4.058,1.458,7.559,4.329,10.422s6.357,4.321,10.408,4.321
							c4.043,0,7.544-1.458,10.415-4.321s4.314-6.365,4.314-10.422c0-4.05-1.45-7.573-4.314-10.488
							S3989.381,514.502,3985.331,514.502z M3951.625,316.631c-5.2,0-9.822,1.882-13.711,5.596
							c-3.911,3.706-5.889,9.221-5.889,16.384c0,5.801,2.688,16.89,7.998,32.944l16.37,49.138
							c3.743,11.367,5.647,18.34,5.647,20.728c0,1.948-0.447,3.406-1.326,4.343c-0.872,0.916-2.249,1.384-4.072,1.384
							c-3.962,0-8.789-3.201-14.37-9.5c-5.676-6.445-9.741-12.319-12.048-17.476l-0.198-0.417h-9.353l0.527,1.04
							c5.933,11.741,12.795,21.138,20.391,27.927c7.661,6.855,14.956,10.334,21.65,10.334c5.215,0,9.573-1.809,12.92-5.383
							c3.354-3.574,5.039-8.291,5.039-14.026c0-5.801-2.498-16.091-7.639-31.45l-13.77-41.851c-5.01-15-7.559-24.529-7.559-28.308
							c0-2.952,0.579-5.178,1.707-6.621c1.091-1.399,2.673-2.08,4.819-2.08c7.646,0,16.86,9.47,27.393,28.162l0.205,0.366h9.287
							l-0.491-1.033c-5.046-10.474-11.689-19.863-19.739-27.905C3967.262,320.777,3959.264,316.631,3951.625,316.631"/>
						<path id="path74" fill="#628BCF" d="M4098.534,316.631c-4.98,0-9.338,1.545-12.935,4.6c-3.647,3.076-5.486,7.676-5.486,13.674
							c0,4.922,2.417,14.37,7.441,28.923l17.249,49.138c4.548,13.293,6.877,21.973,6.877,25.818c0,3.296-0.725,5.764-2.146,7.339
							c-1.414,1.531-3.662,2.314-6.643,2.314c-7.859,0-18.42-9.558-31.392-28.418c-13.03-18.984-24.397-44.238-33.787-75.037
							l-8.049-26.257h-21.152l0.271,0.923l28.359,91.523c5.098,16.736,7.698,26.426,7.698,28.792c0,1.67-0.271,2.878-0.82,3.604
							c-0.527,0.674-1.348,1.003-2.52,1.003c-6.057,0-13.455-7.793-22.009-23.167l-0.198-0.359h-9.038l0.586,1.055
							c13.733,24.866,26.44,36.958,38.884,36.958c4.417,0,7.778-1.37,9.976-4.058c2.234-2.673,3.325-6.599,3.325-11.997
							c0-7.676-2.483-18.926-7.405-33.516c17.871,32.893,35.53,49.57,52.581,49.57c6.072,0,11.44-2.043,15.959-6.072
							c4.534-4.05,6.833-9.998,6.833-17.695c0-4.937-2.175-13.865-6.643-27.29l-17.227-51.409
							c-5.706-17.051-6.892-21.907-6.892-22.976c0-1.824,0.432-3.208,1.311-4.094c0.901-0.879,2.19-1.304,3.918-1.304
							c3.442,0,7.229,2.014,11.272,5.991c4.109,4.065,8.555,10.217,13.25,18.303l0.19,0.352h9.836l-0.579-1.069
							c-6.453-11.609-13.147-20.457-19.9-26.287C4112.736,319.62,4105.661,316.631,4098.534,316.631"/>
						<path id="path76" fill="#628BCF" d="M4224.372,451.016c-9.119,0-17.71-7.764-25.525-23.057
							c-7.932-15.447-11.931-30.439-11.931-44.546c0-5.793,1.641-10.51,4.878-14.019c3.223-3.486,7.31-5.251,12.107-5.251
							c5.706,0,10.862,2.314,15.374,6.87c4.592,4.651,9.141,13.396,13.542,26.001c4.409,12.627,6.658,23.555,6.658,32.476
							c0,7.207-1.289,12.678-3.831,16.274C4233.124,449.295,4229.455,451.016,4224.372,451.016z M4186.835,242.671
							c-19.475,0-34.878,3.23-45.798,9.609c-11.03,6.438-16.626,14.619-16.626,24.302c0,7.163,2.732,13.264,8.123,18.164
							c5.383,4.885,10.078,7.354,14.011,7.354c5.251,0,6.372-2.651,6.372-4.893c0-1.721-1.333-3.933-4.072-6.782
							c-4.248-4.563-6.401-9.067-6.401-13.359c0-6.724,3.472-12.751,10.334-17.966c6.943-5.244,17.747-7.917,32.124-7.917
							c15.469,0,27.341,2.681,35.295,7.961c7.866,5.208,11.858,11.36,11.858,18.281c0,5.486-2.703,9.836-8.21,13.279
							c-5.618,3.494-18.018,7.478-36.848,11.858c-16.846,3.933-27.012,7.954-31.121,12.305c-4.189,4.189-6.321,8.862-6.321,13.879
							c0,6.958,3.53,13.616,10.54,19.812c6.592,5.83,15.82,10.02,27.48,12.458c-6.248,3.779-11.052,8.613-14.333,14.385
							c-3.538,6.255-5.31,13.821-5.31,22.507c0,15.806,5.706,30.081,16.934,42.458c11.272,12.4,24.177,18.691,38.379,18.691
							c4.453,0,8.687-0.725,12.598-2.146c3.669-1.355,7.104-3.42,10.173-6.167c7.068,5.72,13.066,8.621,17.827,8.621
							c4.072,0,7.419-1.172,10.005-3.486c2.615-2.314,3.948-5.281,3.948-8.826c0-5.53-2.812-8.445-8.152-8.445
							c-3.018,0-5.969,1.941-8.767,5.779c-3.164,4.336-6.028,4.292-9.375-0.11c4.182-7.09,6.313-15.586,6.313-25.254
							c0-18.691-5.552-33.662-16.487-44.502c-11.03-10.811-24.617-17.336-40.371-19.373c-22.793-2.952-34.351-9.016-34.351-18.018
							c0-2.798,1.23-5.032,3.75-6.848c2.578-1.868,8.181-3.721,16.641-5.515c14.919-3.347,27.239-6.387,36.599-9.053
							c9.551-2.717,16.736-6.79,21.387-12.085c4.666-5.317,7.031-11.697,7.031-18.94c0-11.162-5.75-21.072-17.051-29.458
							C4223.712,246.89,4207.511,242.671,4186.835,242.671"/>
						<path id="path78" fill="#628BCF" d="M4302.016,316.631c-11.206,0-19.753,2.527-25.371,7.507
							c-5.684,5.017-8.555,10.481-8.555,16.252c0,3.135,0.894,5.889,2.651,8.174c1.802,2.329,4.146,3.501,6.929,3.501
							c6.167,0,9.434-3.435,9.434-9.902c0-1.45-0.33-3.457-0.996-6.145c-0.425-1.165-0.63-2-0.63-2.563
							c0-2.322,1.516-4.299,4.636-6.064c3.208-1.809,7.097-2.732,11.572-2.732c6.995,0,13.455,2.256,19.219,6.709
							c5.706,4.409,8.599,10.583,8.599,18.362c0,6.833-4.153,17.827-12.341,32.688c-9.69,17.41-14.597,30.374-14.575,38.518
							c0,10.488,4.197,19.453,12.488,26.653c8.276,7.178,17.812,10.825,28.337,10.825c7.764,0,14.48-1.992,19.995-5.94
							c5.596-3.984,8.438-8.357,8.438-12.986c0-7.661-4.241-9.265-7.8-9.265c-3.889,0-6.716,3.413-8.43,10.129
							c-1.641,6.746-6.006,10.02-13.33,10.02c-5.933,0-11.147-1.641-15.513-4.885c-4.299-3.186-6.489-7.405-6.489-12.546
							c0-7.2,3.604-17.234,10.715-29.839c6.877-11.821,11.345-20.552,13.645-26.697c2.329-6.167,3.508-12.598,3.508-19.102
							c0-10.144-3.933-19.548-11.704-27.957C4328.661,320.909,4317.082,316.631,4302.016,316.631"/>
						<path id="path80" fill="#628BCF" d="M4488.556,497.027l24.119-50.273l23.196,50.273h24.565v-3.259
							c-4.175-0.117-6.819-0.864-7.991-2.234c-1.179-1.384-1.758-4.585-1.758-9.624v-41.133c0-4.98,0.549-8.086,1.655-9.316
							c1.113-1.238,3.809-1.97,8.093-2.205v-3.164h-34.995v3.164c4.343,0.117,7.17,0.879,8.503,2.285
							c1.311,1.406,1.97,4.453,1.97,9.141v43.242l-26.931-57.832h-2.791l-27.151,57.048v-42.363c0-4.512,0.513-7.559,1.538-9.141
							s3.245-2.38,6.643-2.38h3.171v-3.164h-26.902v3.164c4.102,0,6.782,0.688,8.049,2.065c1.252,1.377,1.875,4.526,1.875,9.456
							v40.957c0,5.215-0.564,8.518-1.707,9.924c-1.15,1.406-3.875,2.109-8.218,2.109v3.259H4488.556z M4391.605,497.027h63.875
							l1.941-17.673h-2.988c-0.293,2.93-1.501,5.728-3.633,8.394c-2.124,2.666-6.584,4.006-13.359,4.006h-6.57v-50.896
							c0-4.922,0.593-8.035,1.765-9.36c1.165-1.311,3.684-2.065,7.559-2.241v-3.164h-32.871v3.164
							c3.223,0.234,5.508,0.806,6.819,1.714c1.318,0.908,1.97,4.182,1.97,9.807v50.977h-6.68c-5.801,0-9.829-0.974-12.07-2.908
							c-2.271-1.934-3.809-5.098-4.629-9.492h-2.988L4391.605,497.027"/>
					</g>
				</g>
			</g>
		</g>
	</g>
</g>
<g id="Layer_2" display="none">
	<g id="g10_1_" transform="matrix(1.3333333,0,0,-1.3333333,0,138.62667)">
		<g id="g12_1_" transform="scale(0.1)" display="inline">
			<g id="g14_1_">
				<g>
					<defs>
						<rect id="SVGID_3_" x="1872.191" y="691.259" width="632.528" height="138.624"/>
					</defs>
					<clipPath id="SVGID_4_">
						<use xlink:href="#SVGID_3_"  overflow="visible"/>
					</clipPath>
				</g>
			</g>
		</g>
	</g>
	<g id="g16_1_" display="inline">
		<path id="path22_1_" fill="#628BCF" d="M44.195,68.128c-0.539,0-1.064-0.271-1.368-0.764c-0.466-0.755-0.232-1.744,0.522-2.211
			C107.626,25.442,197.432,0,299.047,0c88.003,0,212.708,19.089,283.808,65.172c0.744,0.481,0.958,1.477,0.474,2.222
			c-0.481,0.744-1.477,0.958-2.222,0.474c-70.511-45.7-194.519-64.654-282.06-64.654c-101.037,0-190.226,25.269-254.01,64.673
			C44.775,68.05,44.483,68.128,44.195,68.128"/>
		<path id="path24_1_" fill="#FFFFFF" d="M35.341,38.146c-0.062,0.883-1.136,1.011-1.136,1.011c-0.188,0-1.384-0.633-1.638-0.761
			c-2.077-0.877-5.795-2.013-9.826-2.013c-8.632,0-17.134,5.227-17.134,17.388c0,11.276,8.126,17.514,16.695,17.514
			c3.84,0,7.809-0.948,10.329-2.081c0.191-0.062,1.261-0.63,1.387-0.63c0.125,0,0.756,0.502,0.819,0.567
			c0.062,0.125,0,0.253,0,0.442l-0.505,2.644c-0.063,0.44-0.251,0.633-0.753,0.82c-0.505,0.19-5.481,1.388-11.969,1.388
			c-4.349,0-11.025-0.442-16.319-6.236C1.889,64.479,0,59.628,0,54.589c0-8.381,5.102-16.193,13.607-19.656
			c3.652-1.514,7.621-1.826,11.15-1.826c6.297,0,10.141,1.261,10.646,1.576c0.314,0.188,0.314,0.5,0.25,0.755L35.341,38.146"/>
		<path id="path26_1_" fill="#FFFFFF" d="M56.717,73.737h4.21V39.519h-4.21V73.737z"/>
		<path id="path28_1_" fill="#FFFFFF" d="M81.708,73.737h4.211V39.519h-4.211V73.737z"/>
		<path id="path30_1_" fill="#FFFFFF" d="M125.241,59.977l-5.99-16.034l-6.745,16.034H125.241z M106.782,73.737h-4.316
			l15.865-34.219h3.349l13.225,34.219h-4.589l-4.049-11.062h-14.896L106.782,73.737"/>
		<path id="path32_1_" fill="#FFFFFF" d="M156.179,56.305c0.861,0.106,2.104,0.164,3.617,0.164c4.263,0,9.877-0.597,9.877-7.398
			c0-6.745-5.183-6.909-8.746-6.909c-0.809,0-3.184,0.058-4.749,0.164V56.305z M156.179,73.737h-4.211V39.519
			c1.189,0,6.476-0.162,9.231-0.162c5.289,0,8.365,0.375,10.469,2.534c1.781,1.729,2.646,4.433,2.646,6.695
			c0,6.425-5.396,8.636-7.286,9.391c3.184,5.672,6.585,9.88,8.206,11.606c0.375,0.323,1.888,1.889,4.747,2.375l-0.542,1.672
			c-0.106,0.378-0.481,0.378-0.861,0.378c-5.18,0-7.609-0.859-15.871-15.058c-1.184,0.159-2.64,0.381-6.528,0.217V73.737"/>
		<path id="path34_1_" fill="#FFFFFF" d="M206.482,42.542v31.195h-4.205V42.542h-14.415v-3.023h33.141v3.023H206.482"/>
		<path id="path36_1_" fill="#FFFFFF" d="M239.354,70.664h17.976v3.073h-22.183V39.519h22.019v3.023h-17.812v11.497h15.817v3.019
			h-15.817V70.664"/>
		<path id="path38_1_" fill="#FFFFFF" d="M280.212,56.305c0.868,0.106,2.107,0.164,3.62,0.164c4.263,0,9.875-0.597,9.875-7.398
			c0-6.745-5.179-6.909-8.744-6.909c-0.808,0-3.183,0.058-4.751,0.164V56.305z M280.212,73.737h-4.205V39.519
			c1.185,0,6.473-0.162,9.227-0.162c5.289,0,8.367,0.375,10.473,2.534c1.776,1.729,2.645,4.433,2.645,6.695
			c0,6.425-5.399,8.636-7.287,9.391c3.183,5.672,6.583,9.88,8.203,11.606c0.383,0.323,1.888,1.889,4.751,2.375l-0.543,1.672
			c-0.106,0.378-0.481,0.378-0.858,0.378c-5.184,0-7.612-0.859-15.87-15.058c-1.188,0.159-2.646,0.381-6.535,0.217V73.737"/>
		<path id="path40_1_" fill="#FFFFFF" d="M345.554,38.396v0.256c0,0.188-0.883,0.567-1.071,0.567c-0.124,0-0.692-0.505-1.134-0.758
			c-1.826-1.005-5.041-2.078-8-2.078c-2.71,0-8.378,1.008-8.378,6.739c0,4.034,2.835,5.292,9.194,8
			c4.918,2.081,11.213,4.787,11.213,11.656c0,5.545-4.344,11.656-15.051,11.656c-3.025,0-7.307-0.635-9.578-1.197
			c-0.568-0.128-1.636-0.44-1.764-1.076l-0.568-3.525c-0.061-0.375,0-0.438,0.062-0.5c0.129-0.128,0.822-0.443,0.945-0.443
			c0.443,0,0.945,0.443,1.324,0.631c2.395,1.322,6.427,2.58,10.395,2.58c4.032,0,9.26-1.953,9.26-7.055
			c0-4.664-4.156-6.427-8.566-8.314c-6.617-2.773-11.656-4.852-11.656-11.401c0-6.177,4.977-11.089,14.428-11.089
			c3.969,0,7.369,1.011,7.688,1.073c0.312,0.125,0.627,0.312,0.689,0.815L345.554,38.396"/>
		<path id="path42_1_" fill="#FFFFFF" d="M368.53,70.664h17.975v3.073h-22.183V39.519h22.019v3.023H368.53v11.497h15.815v3.019
			H368.53V70.664"/>
		<path id="path44_1_" fill="#FFFFFF" d="M420.872,59.977l-5.992-16.034l-6.744,16.034H420.872z M402.411,73.737h-4.315
			l15.868-34.219h3.345l13.227,34.219h-4.585l-4.055-11.062H407L402.411,73.737"/>
		<path id="path46_1_" fill="#FFFFFF" d="M450.127,56.305c0.863,0.106,2.101,0.164,3.614,0.164c4.266,0,9.878-0.597,9.878-7.398
			c0-6.745-5.178-6.909-8.743-6.909c-0.81,0-3.187,0.058-4.749,0.164V56.305z M450.127,73.737h-4.211V39.519
			c1.187,0,6.476-0.162,9.23-0.162c5.289,0,8.365,0.375,10.472,2.534c1.776,1.729,2.644,4.433,2.644,6.695
			c0,6.425-5.399,8.636-7.287,9.391c3.183,5.672,6.584,9.88,8.201,11.606c0.383,0.323,1.891,1.889,4.752,2.375l-0.541,1.672
			c-0.106,0.378-0.481,0.378-0.858,0.378c-5.183,0-7.612-0.859-15.871-15.058c-1.186,0.159-2.647,0.381-6.53,0.217V73.737"/>
		<path id="path48_1_" fill="#FFFFFF" d="M514.359,45.034c-0.055,0.758-0.972,0.864-0.972,0.864c-0.164,0-0.995-0.69-1.192-0.825
			c-1.651-1.131-4.818-2.32-8.269-2.305c-6.408,0.028-14.287,3.442-14.287,13.859c0,9.661,6.967,15.008,14.303,15.008
			c3.295,0,6.696-0.811,8.854-1.781c0.161-0.058,1.077-0.539,1.184-0.539c0.112,0,0.655,0.432,0.704,0.481
			c0.058,0.109,0,0.219,0,0.38l-0.433,2.269c-0.053,0.375-0.214,0.539-0.648,0.703c-0.432,0.159-4.692,1.185-10.252,1.185
			c-3.727,0-9.442-0.375-13.979-5.346c-2.911-3.18-4.531-7.339-4.531-11.656c0-7.183,3.115-13.273,10.401-16.242
			c3.13-1.3,5.814-1.57,8.842-1.57c4.483,0,10.071,2.614,10.504,2.885c0.271,0.162,0.271,0.433,0.215,0.648L514.359,45.034"/>
		<path id="path50_1_" fill="#FFFFFF" d="M537.699,73.737h4.213V39.519h-4.213V73.737z"/>
		<path id="path52_1_" fill="#FFFFFF" d="M562.695,73.737h4.203V39.519h-4.203V73.737z"/>
	</g>
</g>
<g id="Layer_5">
	<g id="g16_2_">
		<path id="path22_2_" fill="#FFFFFF" d="M44.195,68.128c-0.539,0-1.064-0.271-1.368-0.764c-0.466-0.755-0.232-1.744,0.522-2.211
			C107.626,25.442,197.432,0,299.047,0c88.003,0,212.708,19.089,283.808,65.172c0.744,0.481,0.958,1.477,0.474,2.222
			c-0.481,0.744-1.477,0.958-2.222,0.474c-70.511-45.7-194.519-64.654-282.06-64.654c-101.037,0-190.226,25.269-254.01,64.673
			C44.775,68.05,44.483,68.128,44.195,68.128"/>
		<path id="path24_2_" fill="#FFFFFF" d="M35.341,38.146c-0.062,0.883-1.136,1.011-1.136,1.011c-0.188,0-1.384-0.633-1.638-0.761
			c-2.077-0.877-5.795-2.013-9.826-2.013c-8.632,0-17.134,5.227-17.134,17.388c0,11.276,8.126,17.514,16.695,17.514
			c3.84,0,7.809-0.948,10.329-2.081c0.191-0.062,1.261-0.63,1.387-0.63c0.125,0,0.756,0.502,0.819,0.567
			c0.062,0.125,0,0.253,0,0.442l-0.505,2.644c-0.063,0.44-0.251,0.633-0.753,0.82c-0.505,0.19-5.481,1.388-11.969,1.388
			c-4.349,0-11.025-0.442-16.319-6.236C1.889,64.479,0,59.628,0,54.589c0-8.381,5.102-16.193,13.607-19.656
			c3.652-1.514,7.621-1.826,11.15-1.826c6.297,0,10.141,1.261,10.646,1.576c0.314,0.188,0.314,0.5,0.25,0.755L35.341,38.146"/>
		<path id="path26_2_" fill="#FFFFFF" d="M56.717,73.737h4.21V39.519h-4.21V73.737z"/>
		<path id="path28_2_" fill="#FFFFFF" d="M81.708,73.737h4.211V39.519h-4.211V73.737z"/>
		<path id="path30_2_" fill="#FFFFFF" d="M125.241,59.977l-5.99-16.034l-6.745,16.034H125.241z M106.782,73.737h-4.316
			l15.865-34.219h3.349l13.225,34.219h-4.589l-4.049-11.062h-14.896L106.782,73.737"/>
		<path id="path32_2_" fill="#FFFFFF" d="M156.179,56.305c0.861,0.106,2.104,0.164,3.617,0.164c4.263,0,9.877-0.597,9.877-7.398
			c0-6.745-5.183-6.909-8.746-6.909c-0.809,0-3.184,0.058-4.749,0.164V56.305z M156.179,73.737h-4.211V39.519
			c1.189,0,6.476-0.162,9.231-0.162c5.289,0,8.365,0.375,10.469,2.534c1.781,1.729,2.646,4.433,2.646,6.695
			c0,6.425-5.396,8.636-7.286,9.391c3.184,5.672,6.585,9.88,8.206,11.606c0.375,0.323,1.888,1.889,4.747,2.375l-0.542,1.672
			c-0.106,0.378-0.481,0.378-0.861,0.378c-5.18,0-7.609-0.859-15.871-15.058c-1.184,0.159-2.64,0.381-6.528,0.217V73.737"/>
		<path id="path34_2_" fill="#FFFFFF" d="M206.482,42.542v31.195h-4.205V42.542h-14.415v-3.023h33.141v3.023H206.482"/>
		<path id="path36_2_" fill="#FFFFFF" d="M239.354,70.664h17.976v3.073h-22.183V39.519h22.019v3.023h-17.812v11.497h15.817v3.019
			h-15.817V70.664"/>
		<path id="path38_2_" fill="#FFFFFF" d="M280.212,56.305c0.868,0.106,2.107,0.164,3.62,0.164c4.263,0,9.875-0.597,9.875-7.398
			c0-6.745-5.179-6.909-8.744-6.909c-0.808,0-3.183,0.058-4.751,0.164V56.305z M280.212,73.737h-4.205V39.519
			c1.185,0,6.473-0.162,9.227-0.162c5.289,0,8.367,0.375,10.473,2.534c1.776,1.729,2.645,4.433,2.645,6.695
			c0,6.425-5.399,8.636-7.287,9.391c3.183,5.672,6.583,9.88,8.203,11.606c0.383,0.323,1.888,1.889,4.751,2.375l-0.543,1.672
			c-0.106,0.378-0.481,0.378-0.858,0.378c-5.184,0-7.612-0.859-15.87-15.058c-1.188,0.159-2.646,0.381-6.535,0.217V73.737"/>
		<path id="path40_2_" fill="#FFFFFF" d="M345.554,38.396v0.256c0,0.188-0.883,0.567-1.071,0.567c-0.124,0-0.692-0.505-1.134-0.758
			c-1.826-1.005-5.041-2.078-8-2.078c-2.71,0-8.378,1.008-8.378,6.739c0,4.034,2.835,5.292,9.194,8
			c4.918,2.081,11.213,4.787,11.213,11.656c0,5.545-4.344,11.656-15.051,11.656c-3.025,0-7.307-0.635-9.578-1.197
			c-0.568-0.128-1.636-0.44-1.764-1.076l-0.568-3.525c-0.061-0.375,0-0.438,0.062-0.5c0.129-0.128,0.822-0.443,0.945-0.443
			c0.443,0,0.945,0.443,1.324,0.631c2.395,1.322,6.427,2.58,10.395,2.58c4.032,0,9.26-1.953,9.26-7.055
			c0-4.664-4.156-6.427-8.566-8.314c-6.617-2.773-11.656-4.852-11.656-11.401c0-6.177,4.977-11.089,14.428-11.089
			c3.969,0,7.369,1.011,7.688,1.073c0.312,0.125,0.627,0.312,0.689,0.815L345.554,38.396"/>
		<path id="path42_2_" fill="#FFFFFF" d="M368.53,70.664h17.975v3.073h-22.183V39.519h22.019v3.023H368.53v11.497h15.815v3.019
			H368.53V70.664"/>
		<path id="path44_2_" fill="#FFFFFF" d="M420.872,59.977l-5.992-16.034l-6.744,16.034H420.872z M402.411,73.737h-4.315
			l15.868-34.219h3.345l13.227,34.219h-4.585l-4.055-11.062H407L402.411,73.737"/>
		<path id="path46_2_" fill="#FFFFFF" d="M450.127,56.305c0.863,0.106,2.101,0.164,3.614,0.164c4.266,0,9.878-0.597,9.878-7.398
			c0-6.745-5.178-6.909-8.743-6.909c-0.81,0-3.187,0.058-4.749,0.164V56.305z M450.127,73.737h-4.211V39.519
			c1.187,0,6.476-0.162,9.23-0.162c5.289,0,8.365,0.375,10.472,2.534c1.776,1.729,2.644,4.433,2.644,6.695
			c0,6.425-5.399,8.636-7.287,9.391c3.183,5.672,6.584,9.88,8.201,11.606c0.383,0.323,1.891,1.889,4.752,2.375l-0.541,1.672
			c-0.106,0.378-0.481,0.378-0.858,0.378c-5.183,0-7.612-0.859-15.871-15.058c-1.186,0.159-2.647,0.381-6.53,0.217V73.737"/>
		<path id="path48_2_" fill="#FFFFFF" d="M514.359,45.034c-0.055,0.758-0.972,0.864-0.972,0.864c-0.164,0-0.995-0.69-1.192-0.825
			c-1.651-1.131-4.818-2.32-8.269-2.305c-6.408,0.028-14.287,3.442-14.287,13.859c0,9.661,6.967,15.008,14.303,15.008
			c3.295,0,6.696-0.811,8.854-1.781c0.161-0.058,1.077-0.539,1.184-0.539c0.112,0,0.655,0.432,0.704,0.481
			c0.058,0.109,0,0.219,0,0.38l-0.433,2.269c-0.053,0.375-0.214,0.539-0.648,0.703c-0.432,0.159-4.692,1.185-10.252,1.185
			c-3.727,0-9.442-0.375-13.979-5.346c-2.911-3.18-4.531-7.339-4.531-11.656c0-7.183,3.115-13.273,10.401-16.242
			c3.13-1.3,5.814-1.57,8.842-1.57c4.483,0,10.071,2.614,10.504,2.885c0.271,0.162,0.271,0.433,0.215,0.648L514.359,45.034"/>
		<path id="path50_2_" fill="#FFFFFF" d="M537.699,73.737h4.213V39.519h-4.213V73.737z"/>
		<path id="path52_2_" fill="#FFFFFF" d="M562.695,73.737h4.203V39.519h-4.203V73.737z"/>
	</g>
</g>
</svg>
