<?xml version="1.0" encoding="utf-8"?>
<!-- Generator: Adobe Illustrator 15.0.2, SVG Export Plug-In . SVG Version: 6.00 Build 0)  -->
<!DOCTYPE svg PUBLIC "-//W3C//DTD SVG 1.1//EN" "http://www.w3.org/Graphics/SVG/1.1/DTD/svg11.dtd">
<svg version="1.1" id="Layer_1" xmlns="http://www.w3.org/2000/svg" xmlns:xlink="http://www.w3.org/1999/xlink" x="0px" y="0px"
	 width="632.528px" height="138.624px" viewBox="0 0 632.528 138.624" enable-background="new 0 0 632.528 138.624"
	 xml:space="preserve">
<path id="Arch" fill="#628BCF" d="M44.195,68.128c-0.539,0-1.064-0.271-1.368-0.764c-0.466-0.755-0.232-1.744,0.522-2.211
	C107.626,25.442,197.432,0,299.047,0c88.003,0,212.708,19.089,283.808,65.172c0.744,0.481,0.958,1.477,0.474,2.222
	c-0.481,0.744-1.477,0.958-2.222,0.474c-70.511-45.7-194.519-64.654-282.06-64.654c-101.036,0-190.226,25.269-254.009,64.673
	C44.775,68.05,44.483,68.128,44.195,68.128"/>
<g id="Company">
	<path id="path24" fill="#273679" d="M35.341,38.146c-0.062,0.883-1.136,1.011-1.136,1.011c-0.188,0-1.384-0.633-1.638-0.761
		c-2.077-0.877-5.795-2.013-9.826-2.013c-8.632,0-17.134,5.227-17.134,17.388c0,11.276,8.126,17.514,16.695,17.514
		c3.84,0,7.809-0.948,10.329-2.081c0.191-0.062,1.261-0.63,1.387-0.63c0.125,0,0.756,0.502,0.819,0.567c0.062,0.125,0,0.253,0,0.442
		l-0.505,2.644c-0.063,0.44-0.251,0.633-0.753,0.82c-0.505,0.19-5.481,1.388-11.969,1.388c-4.349,0-11.025-0.442-16.319-6.236
		C1.889,64.479,0,59.628,0,54.589c0-8.381,5.102-16.193,13.607-19.656c3.652-1.514,7.621-1.826,11.15-1.826
		c6.297,0,10.141,1.261,10.646,1.576c0.314,0.188,0.314,0.5,0.25,0.755L35.341,38.146"/>
	<path id="path26" fill="#273679" d="M56.717,73.737h4.21V39.519h-4.21V73.737z"/>
	<path id="path28" fill="#273679" d="M81.708,73.737h4.211V39.519h-4.211V73.737z"/>
	<path id="path30" fill="#273679" d="M125.241,59.977l-5.99-16.034l-6.745,16.034H125.241z M106.782,73.737h-4.316l15.865-34.219
		h3.349l13.225,34.219h-4.589l-4.049-11.062h-14.896L106.782,73.737"/>
	<path id="path32" fill="#273679" d="M156.179,56.305c0.861,0.106,2.104,0.164,3.617,0.164c4.263,0,9.877-0.597,9.877-7.398
		c0-6.745-5.183-6.909-8.746-6.909c-0.809,0-3.184,0.058-4.749,0.164V56.305z M156.179,73.737h-4.211V39.519
		c1.189,0,6.476-0.162,9.231-0.162c5.289,0,8.365,0.375,10.469,2.534c1.781,1.729,2.646,4.433,2.646,6.695
		c0,6.425-5.396,8.636-7.286,9.391c3.184,5.672,6.585,9.88,8.206,11.606c0.375,0.323,1.888,1.889,4.747,2.375l-0.542,1.672
		c-0.106,0.378-0.481,0.378-0.861,0.378c-5.18,0-7.609-0.859-15.871-15.058c-1.184,0.159-2.64,0.381-6.528,0.217V73.737"/>
	<path id="path34" fill="#273679" d="M206.482,42.542v31.195h-4.205V42.542h-14.415v-3.023h33.141v3.023H206.482"/>
	<path id="path36" fill="#273679" d="M239.354,70.664h17.976v3.073h-22.183V39.519h22.019v3.023h-17.812v11.497h15.817v3.019
		h-15.817V70.664"/>
	<path id="path38" fill="#273679" d="M280.212,56.305c0.868,0.106,2.107,0.164,3.62,0.164c4.263,0,9.875-0.597,9.875-7.398
		c0-6.745-5.179-6.909-8.744-6.909c-0.808,0-3.183,0.058-4.751,0.164V56.305z M280.212,73.737h-4.205V39.519
		c1.185,0,6.473-0.162,9.227-0.162c5.289,0,8.367,0.375,10.473,2.534c1.776,1.729,2.644,4.433,2.644,6.695
		c0,6.425-5.398,8.636-7.287,9.391c3.183,5.672,6.583,9.88,8.203,11.606c0.383,0.323,1.888,1.889,4.751,2.375l-0.543,1.672
		c-0.106,0.378-0.481,0.378-0.858,0.378c-5.183,0-7.612-0.859-15.87-15.058c-1.188,0.159-2.646,0.381-6.535,0.217V73.737"/>
	<path id="path40" fill="#273679" d="M345.554,38.396v0.256c0,0.188-0.883,0.567-1.071,0.567c-0.124,0-0.692-0.505-1.134-0.758
		c-1.826-1.005-5.041-2.078-8-2.078c-2.71,0-8.378,1.008-8.378,6.739c0,4.034,2.835,5.292,9.194,8
		c4.918,2.081,11.213,4.787,11.213,11.656c0,5.545-4.344,11.656-15.051,11.656c-3.025,0-7.307-0.635-9.578-1.197
		c-0.568-0.128-1.636-0.44-1.764-1.076l-0.568-3.525c-0.061-0.375,0-0.438,0.062-0.5c0.129-0.128,0.822-0.443,0.945-0.443
		c0.443,0,0.945,0.443,1.324,0.631c2.395,1.322,6.427,2.58,10.395,2.58c4.032,0,9.26-1.953,9.26-7.055
		c0-4.664-4.156-6.427-8.566-8.314c-6.617-2.773-11.656-4.852-11.656-11.401c0-6.177,4.977-11.089,14.428-11.089
		c3.969,0,7.369,1.011,7.688,1.073c0.312,0.125,0.627,0.312,0.689,0.815L345.554,38.396"/>
	<path id="path42" fill="#273679" d="M368.529,70.664h17.975v3.073h-22.183V39.519h22.019v3.023h-17.811v11.497h15.815v3.019
		h-15.815V70.664"/>
	<path id="path44" fill="#273679" d="M420.871,59.977l-5.992-16.034l-6.744,16.034H420.871z M402.41,73.737h-4.315l15.868-34.219
		h3.345l13.227,34.219h-4.585l-4.055-11.062h-14.896L402.41,73.737"/>
	<path id="path46" fill="#273679" d="M450.127,56.305c0.863,0.106,2.101,0.164,3.614,0.164c4.266,0,9.878-0.597,9.878-7.398
		c0-6.745-5.178-6.909-8.743-6.909c-0.81,0-3.187,0.058-4.749,0.164V56.305z M450.127,73.737h-4.211V39.519
		c1.187,0,6.476-0.162,9.23-0.162c5.289,0,8.365,0.375,10.472,2.534c1.776,1.729,2.644,4.433,2.644,6.695
		c0,6.425-5.399,8.636-7.287,9.391c3.183,5.672,6.584,9.88,8.201,11.606c0.383,0.323,1.891,1.889,4.752,2.375l-0.541,1.672
		c-0.106,0.378-0.481,0.378-0.858,0.378c-5.183,0-7.612-0.859-15.871-15.058c-1.186,0.159-2.647,0.381-6.53,0.217V73.737"/>
	<path id="path48" fill="#273679" d="M514.358,45.034c-0.055,0.758-0.972,0.864-0.972,0.864c-0.164,0-0.995-0.69-1.192-0.825
		c-1.651-1.131-4.818-2.32-8.269-2.305c-6.408,0.028-14.287,3.442-14.287,13.859c0,9.661,6.967,15.008,14.303,15.008
		c3.295,0,6.696-0.811,8.854-1.781c0.161-0.058,1.077-0.539,1.184-0.539c0.112,0,0.655,0.432,0.704,0.481
		c0.058,0.109,0,0.219,0,0.38l-0.433,2.269c-0.053,0.375-0.214,0.539-0.648,0.703c-0.432,0.159-4.692,1.185-10.252,1.185
		c-3.727,0-9.442-0.375-13.979-5.346c-2.911-3.18-4.531-7.339-4.531-11.656c0-7.183,3.115-13.273,10.401-16.242
		c3.13-1.3,5.814-1.57,8.842-1.57c4.483,0,10.071,2.614,10.504,2.885c0.271,0.162,0.271,0.433,0.215,0.648L514.358,45.034"/>
	<path id="path50" fill="#273679" d="M537.698,73.737h4.213V39.519h-4.213V73.737z"/>
	<path id="path52" fill="#273679" d="M562.694,73.737h4.203V39.519h-4.203V73.737z"/>
</g>
<g id="Tagline">
	<path id="path54" fill="#628BCF" d="M360.032,138.194c-1.215,0-2.328-0.286-3.309-0.852c-0.993-0.575-1.497-1.305-1.497-2.166
		c0-0.494,0.16-0.909,0.478-1.228c0.321-0.318,0.699-0.479,1.123-0.479c0.5,0,0.908,0.18,1.21,0.539
		c0.3,0.352,0.452,0.736,0.452,1.145c0,0.107-0.02,0.288-0.064,0.554l-0.042,0.361c0,0.229,0.154,0.448,0.475,0.661
		c0.327,0.218,0.728,0.328,1.193,0.328c1.679,0,3.112-0.911,4.263-2.705c1.166-1.822,2.506-5.521,3.986-10.997l3.625-12.105h-4.169
		l0.335-1.136h4.221c0.061-0.212,0.186-0.625,0.359-1.178c1.942-7.144,5.144-10.768,9.514-10.768c1.252,0,2.228,0.283,2.896,0.841
		c0.674,0.561,1.015,1.127,1.015,1.683c0,0.808-0.403,1.234-1.171,1.234c-0.613,0-1.235-0.498-1.906-1.525
		c-0.438-0.686-0.968-1.031-1.574-1.031c-0.944,0-1.861,0.443-2.729,1.317c-0.872,0.879-1.854,3.323-2.921,7.262l-0.647,2.165h3.8
		l-0.337,1.136h-3.847l-3.691,12.504c-1.518,5.673-3.205,9.539-5.01,11.488C364.244,137.2,362.215,138.194,360.032,138.194"/>
	<path id="path56" fill="#628BCF" d="M383.255,128.504c-0.691,0-1.306-0.251-1.826-0.746c-0.521-0.496-0.787-1.23-0.787-2.185
		c0-0.766,0.359-2.244,1.068-4.393l2.182-6.552c0.502-1.521,0.755-2.451,0.755-2.764c0-0.257-0.062-0.453-0.179-0.579
		c-0.119-0.124-0.296-0.185-0.544-0.185c-0.524,0-1.169,0.427-1.915,1.269c-0.756,0.854-1.294,1.636-1.604,2.328l-0.027,0.056
		h-1.246l0.069-0.139c0.788-1.564,1.702-2.817,2.716-3.724c1.025-0.914,1.998-1.378,2.89-1.378c0.696,0,1.277,0.241,1.723,0.718
		c0.444,0.476,0.669,1.104,0.669,1.87c0,0.771-0.341,2.183-1.018,4.193l-1.832,5.58c-0.668,1.993-1.009,3.263-1.009,3.774
		c0,0.396,0.076,0.692,0.226,0.883c0.145,0.187,0.355,0.277,0.645,0.277c1.017,0,2.246-1.263,3.651-3.755l0.028-0.049h1.238
		l-0.065,0.138c-0.671,1.392-1.556,2.643-2.634,3.721C385.341,127.951,384.273,128.504,383.255,128.504"/>
	<path id="path58" fill="#628BCF" d="M402.848,128.504c-0.666,0-1.248-0.206-1.727-0.613c-0.483-0.41-0.731-1.023-0.731-1.823
		c0-0.664,0.325-1.924,0.991-3.856l2.298-6.552c0.609-1.771,0.919-2.928,0.919-3.442c0-0.439-0.097-0.769-0.287-0.979
		c-0.189-0.204-0.486-0.309-0.885-0.309c-1.05,0-2.455,1.274-4.182,3.789c-1.74,2.536-3.259,5.902-4.509,10.005l-1.072,3.501h-2.82
		l0.039-0.123l3.778-12.203c0.68-2.229,1.026-3.52,1.026-3.839c0-0.22-0.037-0.383-0.109-0.48c-0.068-0.09-0.178-0.134-0.333-0.134
		c-0.808,0-1.795,1.039-2.937,3.089l-0.027,0.048h-1.205l0.076-0.141c1.807-3.27,3.547-4.928,5.186-4.928
		c0.586,0,1.034,0.183,1.334,0.541c0.292,0.354,0.439,0.894,0.439,1.6c0,1.023-0.33,2.523-0.986,4.469
		c2.383-4.386,4.738-6.609,7.014-6.609c0.807,0,1.52,0.272,2.121,0.81c0.606,0.539,0.915,1.331,0.915,2.359
		c0,0.661-0.29,1.852-0.889,3.639l-2.297,6.854c-0.758,2.277-0.916,2.923-0.916,3.063c0,0.243,0.06,0.428,0.177,0.546
		c0.113,0.116,0.291,0.174,0.523,0.174c0.458,0,0.961-0.269,1.497-0.799c0.549-0.542,1.144-1.362,1.766-2.44l0.029-0.047h1.312
		l-0.077,0.143c-0.863,1.547-1.754,2.727-2.652,3.505C404.736,128.105,403.796,128.504,402.848,128.504"/>
	<path id="path60" fill="#628BCF" d="M420.782,110.779c-0.901,0-1.865,0.544-2.867,1.614c-1.014,1.084-2.138,2.99-3.336,5.666
		c-1.202,2.672-1.812,4.938-1.812,6.74c0,0.781,0.137,1.373,0.403,1.76c0.261,0.386,0.64,0.571,1.158,0.571
		c0.93,0,2.029-0.665,3.265-1.978c1.246-1.321,2.413-3.535,3.466-6.58c1.053-3.05,1.586-5.002,1.586-5.802
		c0-0.505-0.174-0.97-0.517-1.38C421.793,110.986,421.34,110.779,420.782,110.779L420.782,110.779z M421.566,128.504
		c-0.784,0-1.387-0.242-1.792-0.722c-0.398-0.474-0.6-1.181-0.6-2.103c0-0.282,0.016-0.547,0.047-0.793
		c-1.959,2.4-3.806,3.617-5.496,3.617c-0.998,0-1.861-0.409-2.564-1.215c-0.7-0.801-1.055-1.97-1.055-3.479
		c0-2.084,0.584-4.35,1.733-6.734s2.594-4.262,4.294-5.576c1.705-1.317,3.21-1.986,4.475-1.986c0.661,0,1.233,0.158,1.699,0.468
		c0.41,0.271,0.75,0.666,1.017,1.173l2.557-8.425c0.389-1.261,0.471-1.697,0.471-1.842c0-0.314-0.082-0.528-0.252-0.655
		c-0.121-0.088-0.46-0.195-1.374-0.195h-0.73l0.337-1.094h0.07c2.058,0,3.718-0.258,4.935-0.766l0.036-0.008h0.668l-0.037,0.123
		l-6.92,22.624c-0.843,2.776-1.271,4.43-1.271,4.914c0,0.336,0.062,0.587,0.187,0.747c0.118,0.156,0.286,0.231,0.516,0.231
		c0.401,0,0.858-0.243,1.36-0.726c0.515-0.494,1.085-1.247,1.694-2.236l0.026-0.046h1.267l-0.077,0.141
		c-0.646,1.179-1.475,2.241-2.456,3.16C423.333,128.032,422.405,128.504,421.566,128.504"/>
	<path id="path62" fill="#628BCF" d="M434.468,138.624c-1.874,0-2.825-0.56-2.825-1.664c0-0.463,0.211-0.832,0.624-1.1
		c0.401-0.262,0.831-0.393,1.276-0.393c0.338,0,0.852,0.092,1.571,0.283c0.905,0.254,1.655,0.384,2.231,0.384
		c0.838,0,1.672-0.239,2.475-0.708c0.812-0.471,1.832-1.305,3.034-2.478c1.192-1.164,2.044-2.211,2.529-3.115
		c0.479-0.899,0.913-2.505,1.289-4.771c0.376-2.28,0.567-4.761,0.567-7.375c0-1.987-0.187-3.538-0.553-4.609
		c-0.356-1.042-0.789-1.569-1.285-1.569c-0.983,0-1.601,1.323-1.84,3.933l-0.008,0.086h-1.092l0.009-0.103
		c0.172-2.044,0.63-3.553,1.36-4.487c0.74-0.944,1.551-1.424,2.409-1.424c1.092,0,1.978,0.672,2.63,1.999
		c0.641,1.302,0.965,3.307,0.965,5.961c0,3.29-0.364,6.354-1.081,9.115c1.305-1.48,2.595-3.339,3.834-5.531
		c1.328-2.336,1.999-4.352,1.999-5.99c0-0.767-0.227-1.539-0.673-2.294c-0.473-0.78-0.702-1.359-0.702-1.768
		c0-0.394,0.119-0.743,0.355-1.037c0.238-0.301,0.534-0.455,0.878-0.455c0.55,0,1.004,0.312,1.353,0.93
		c0.336,0.604,0.507,1.494,0.507,2.647c0,1.719-0.535,3.845-1.59,6.321c-1.049,2.466-2.612,4.946-4.644,7.372
		c-2.023,2.414-4.067,4.627-6.075,6.58c-2.011,1.952-3.76,3.33-5.201,4.1C437.351,138.233,435.894,138.624,434.468,138.624"/>
	<path id="path64" fill="#628BCF" d="M467.292,110.758c-1.738,0-3.266,1.683-4.541,4.998c-1.286,3.349-1.938,6.334-1.938,8.872
		c0,0.748,0.197,1.394,0.584,1.92c0.385,0.523,0.901,0.777,1.576,0.777c1.865,0,3.428-1.814,4.647-5.393
		c1.23-3.611,1.854-6.405,1.854-8.305c0-0.963-0.184-1.69-0.551-2.166C468.56,110.988,468.026,110.758,467.292,110.758z
		 M462.888,128.397c-1.209,0-2.284-0.473-3.193-1.404c-0.909-0.931-1.37-2.559-1.37-4.837c0-1.723,0.406-3.625,1.209-5.652
		c0.804-2.031,1.971-3.703,3.466-4.969c1.5-1.27,2.979-1.913,4.399-1.913c1.302,0,2.387,0.559,3.225,1.66
		c0.832,1.093,1.253,2.59,1.253,4.45c0,2.239-0.464,4.391-1.383,6.398c-0.92,2.013-2.089,3.575-3.476,4.646
		C465.627,127.852,464.237,128.397,462.888,128.397"/>
	<path id="path66" fill="#628BCF" d="M486.646,128.504c-0.728,0-1.284-0.207-1.647-0.615c-0.366-0.402-0.551-1.013-0.551-1.811
		c0-0.917,0.286-2.3,0.854-4.12c-2.332,4.345-4.676,6.546-6.977,6.546c-0.925,0-1.663-0.292-2.194-0.868
		c-0.53-0.573-0.799-1.296-0.799-2.148c0-0.831,0.281-2.167,0.861-4.088l2.346-7.714c0.34-1.131,0.512-1.815,0.512-2.034
		c0-0.32-0.143-0.464-0.465-0.464c-0.856,0-1.825,1.203-2.879,3.575l-0.024,0.057h-1.231l0.049-0.129
		c0.575-1.513,1.341-2.763,2.273-3.718c0.944-0.968,1.891-1.459,2.815-1.459c0.577,0,1.078,0.186,1.49,0.551
		c0.412,0.366,0.62,0.922,0.62,1.649c0,0.51-0.226,1.531-0.671,3.033l-2.397,7.952c-0.453,1.53-0.684,2.548-0.684,3.023
		c0,0.418,0.093,0.736,0.278,0.947c0.182,0.206,0.455,0.312,0.813,0.312c1.224,0,2.713-1.336,4.427-3.97
		c1.726-2.659,3.454-6.652,5.142-11.87l0.409-1.348h2.795l-0.04,0.125l-3.998,12.317c-0.633,1.978-0.954,3.189-0.954,3.604
		c0,0.34,0.065,0.594,0.193,0.757c0.125,0.158,0.312,0.235,0.57,0.235c1.044,0,2.055-1.173,3.008-3.487l0.025-0.059h1.103
		l-0.045,0.128C490.448,126.792,488.758,128.504,486.646,128.504"/>
	<path id="path68" fill="#628BCF" d="M497.592,128.225h-2.759l0.038-0.122l3.464-11.388c0.646-2.163,0.975-3.642,0.975-4.397
		c0-0.396-0.051-0.692-0.151-0.88c-0.09-0.168-0.223-0.25-0.399-0.25c-0.438,0-1.011,0.5-1.7,1.484
		c-0.705,1.014-1.212,1.946-1.504,2.771l-0.022,0.063h-1.151l0.05-0.128c0.602-1.607,1.371-2.997,2.28-4.131
		c0.925-1.149,1.855-1.733,2.77-1.733c0.648,0,1.137,0.265,1.454,0.787c0.31,0.508,0.467,1.278,0.467,2.293
		c0,1.058-0.228,2.464-0.697,4.281c0.072-0.163,0.15-0.341,0.233-0.535c1.051-2.384,1.989-4.133,2.791-5.196
		c0.814-1.081,1.646-1.63,2.47-1.63c0.521,0,0.947,0.17,1.266,0.505c0.316,0.331,0.477,0.736,0.477,1.203
		c0,0.453-0.135,0.829-0.4,1.117c-0.267,0.29-0.589,0.438-0.96,0.438c-0.413,0-0.833-0.25-1.251-0.742
		c-0.139-0.163-0.273-0.246-0.398-0.246c-0.46,0-1.392,0.887-3.212,5.109c-1.472,3.411-2.692,6.68-3.627,9.714L497.592,128.225"/>
	<path id="path70" fill="#628BCF" d="M535.494,110.649c-0.529,0-1.14,0.705-1.814,2.093c-0.686,1.409-1.033,3.496-1.033,6.203
		c0,0.254,0.01,0.539,0.026,0.849c1.134-1.539,1.999-2.974,2.574-4.267c0.601-1.348,0.905-2.574,0.905-3.642
		c0-0.428-0.058-0.748-0.171-0.952C535.876,110.743,535.716,110.649,535.494,110.649z M522.755,128.504
		c-1.214,0-2.146-0.379-2.769-1.128c-0.621-0.743-0.936-1.681-0.936-2.786c0-2.398,1.56-5.824,4.637-10.183
		c0.558-0.766,0.938-1.306,1.151-1.636c-0.518,0.247-1.015,0.37-1.481,0.37c-0.525,0-1.083-0.276-1.657-0.82
		c-0.222-0.223-0.42-0.339-0.577-0.339c-0.299,0-0.551,0.263-0.751,0.776l-0.084,0.255h-1.115l0.031-0.118
		c0.567-2.172,1.357-3.273,2.348-3.273c0.599,0,1.223,0.373,1.856,1.107c1.114,1.275,1.885,1.354,2.219,0.103
		c0.241-0.875,0.611-1.318,1.103-1.318c0.631,0,0.761,0.38,0.761,0.697c0,0.131-0.124,0.52-1.194,2.365
		c-1.806,3.069-2.997,5.646-3.545,7.658c-0.549,2.016-0.826,3.415-0.826,4.16c0,0.704,0.173,1.312,0.51,1.804
		c0.336,0.484,0.8,0.72,1.417,0.72c0.919,0,2.006-0.449,3.231-1.334c1.223-0.885,2.212-1.778,2.943-2.654
		c-0.041-0.343-0.062-0.715-0.062-1.109c0-2.949,0.604-5.761,1.792-8.354c1.199-2.622,2.494-3.952,3.845-3.952
		c0.576,0,1.011,0.209,1.294,0.622c0.275,0.401,0.412,1.005,0.412,1.791c0,1.328-0.374,2.801-1.114,4.376
		c-0.732,1.564-1.854,3.279-3.331,5.099c0.132,1.775,0.492,3.17,1.071,4.146c0.573,0.966,1.293,1.456,2.143,1.456
		c0.815,0,1.785-0.493,2.879-1.469c1.103-0.98,2.104-2.485,2.973-4.473c0.872-1.988,1.313-3.689,1.313-5.058
		c0-0.812-0.228-1.715-0.679-2.685c-0.42-0.897-0.632-1.661-0.632-2.272c0-0.464,0.128-0.84,0.379-1.115
		c0.257-0.278,0.537-0.419,0.833-0.419c0.435,0,0.838,0.297,1.199,0.884c0.352,0.569,0.529,1.525,0.529,2.84
		c0,1.894-0.461,4.225-1.37,6.928c-0.909,2.714-2.197,4.801-3.829,6.202c-1.638,1.404-3.229,2.115-4.734,2.115
		c-1.283,0-2.338-0.477-3.135-1.417c-0.741-0.877-1.229-1.796-1.453-2.734c-1.332,1.354-2.635,2.393-3.874,3.088
		C525.192,128.139,523.938,128.504,522.755,128.504"/>
	<path id="path72" fill="#628BCF" d="M555.848,102.121c-0.553,0-1.026-0.202-1.402-0.6c-0.373-0.396-0.562-0.864-0.562-1.386
		c0-0.541,0.194-1.008,0.577-1.39s0.848-0.576,1.388-0.576c0.539,0,1.006,0.194,1.389,0.576s0.575,0.849,0.575,1.39
		c0,0.54-0.193,1.01-0.575,1.398S556.388,102.121,555.848,102.121z M551.354,128.504c-0.693,0-1.31-0.251-1.828-0.746
		c-0.521-0.494-0.785-1.229-0.785-2.185c0-0.773,0.358-2.252,1.066-4.393l2.183-6.552c0.499-1.516,0.753-2.445,0.753-2.764
		c0-0.26-0.06-0.454-0.177-0.579c-0.116-0.122-0.3-0.185-0.543-0.185c-0.528,0-1.172,0.427-1.916,1.267
		c-0.757,0.859-1.299,1.643-1.606,2.33l-0.026,0.056h-1.247l0.07-0.139c0.791-1.565,1.706-2.818,2.719-3.724
		c1.021-0.914,1.994-1.378,2.887-1.378c0.695,0,1.276,0.241,1.723,0.718c0.447,0.477,0.672,1.105,0.672,1.87
		c0,0.773-0.333,2.146-1.019,4.193l-1.836,5.58c-0.668,2-1.008,3.271-1.008,3.774c0,0.394,0.077,0.69,0.228,0.883
		c0.146,0.187,0.356,0.277,0.643,0.277c1.02,0,2.248-1.263,3.652-3.755l0.027-0.049h1.238l-0.065,0.138
		c-0.673,1.396-1.559,2.648-2.632,3.721C553.438,127.951,552.372,128.504,551.354,128.504"/>
	<path id="path74" fill="#628BCF" d="M570.941,128.504c-0.664,0-1.245-0.206-1.725-0.613c-0.486-0.41-0.731-1.023-0.731-1.823
		c0-0.656,0.322-1.916,0.992-3.856l2.3-6.552c0.606-1.772,0.917-2.93,0.917-3.442c0-0.439-0.097-0.769-0.286-0.979
		c-0.188-0.204-0.488-0.309-0.886-0.309c-1.048,0-2.456,1.274-4.186,3.789c-1.737,2.531-3.253,5.898-4.505,10.005l-1.073,3.501
		h-2.82l0.036-0.123l3.781-12.203c0.68-2.231,1.026-3.523,1.026-3.839c0-0.223-0.036-0.384-0.109-0.48
		c-0.07-0.09-0.18-0.134-0.336-0.134c-0.808,0-1.794,1.039-2.935,3.089l-0.026,0.048h-1.205l0.078-0.141
		c1.831-3.315,3.525-4.928,5.185-4.928c0.589,0,1.037,0.183,1.33,0.541c0.298,0.356,0.443,0.88,0.443,1.6
		c0,1.023-0.331,2.523-0.987,4.469c2.383-4.386,4.737-6.609,7.011-6.609c0.81,0,1.525,0.272,2.128,0.81
		c0.604,0.54,0.911,1.333,0.911,2.359c0,0.658-0.29,1.849-0.886,3.639l-2.297,6.854c-0.761,2.273-0.919,2.921-0.919,3.063
		c0,0.243,0.058,0.428,0.175,0.546c0.12,0.117,0.292,0.174,0.522,0.174c0.459,0,0.964-0.269,1.503-0.799
		c0.548-0.542,1.141-1.362,1.767-2.44l0.025-0.047h1.312l-0.077,0.143c-0.86,1.548-1.753,2.728-2.653,3.505
		C572.835,128.105,571.892,128.504,570.941,128.504"/>
	<path id="path76" fill="#628BCF" d="M587.72,110.586c-1.216,0-2.361,1.035-3.403,3.074c-1.058,2.06-1.591,4.059-1.591,5.939
		c0,0.772,0.219,1.401,0.65,1.869c0.43,0.465,0.975,0.7,1.614,0.7c0.761,0,1.448-0.309,2.05-0.916
		c0.612-0.62,1.219-1.786,1.806-3.467c0.588-1.684,0.888-3.141,0.888-4.33c0-0.961-0.172-1.69-0.511-2.17
		C588.887,110.815,588.397,110.586,587.72,110.586z M582.715,138.365c-2.597,0-4.65-0.431-6.106-1.281
		c-1.471-0.858-2.217-1.949-2.217-3.24c0-0.955,0.364-1.769,1.083-2.422c0.718-0.651,1.344-0.98,1.868-0.98
		c0.7,0,0.85,0.354,0.85,0.652c0,0.229-0.178,0.524-0.543,0.904c-0.566,0.608-0.854,1.209-0.854,1.781
		c0,0.896,0.463,1.7,1.378,2.396c0.926,0.699,2.366,1.056,4.283,1.056c2.062,0,3.646-0.357,4.706-1.062
		c1.049-0.694,1.581-1.515,1.581-2.438c0-0.731-0.36-1.312-1.095-1.771c-0.749-0.466-2.402-0.997-4.913-1.581
		c-2.246-0.524-3.602-1.061-4.149-1.641c-0.559-0.559-0.843-1.182-0.843-1.851c0-0.928,0.471-1.815,1.405-2.642
		c0.879-0.777,2.109-1.336,3.664-1.661c-0.833-0.504-1.474-1.148-1.911-1.918c-0.472-0.834-0.708-1.843-0.708-3.001
		c0-2.107,0.761-4.011,2.258-5.661c1.503-1.653,3.224-2.492,5.117-2.492c0.594,0,1.158,0.097,1.68,0.286
		c0.489,0.181,0.947,0.456,1.356,0.822c0.942-0.763,1.742-1.149,2.377-1.149c0.543,0,0.989,0.156,1.334,0.465
		c0.349,0.309,0.526,0.704,0.526,1.177c0,0.737-0.375,1.126-1.087,1.126c-0.402,0-0.796-0.259-1.169-0.771
		c-0.422-0.578-0.804-0.572-1.25,0.015c0.558,0.945,0.842,2.078,0.842,3.367c0,2.492-0.74,4.488-2.198,5.934
		c-1.471,1.441-3.282,2.312-5.383,2.583c-3.039,0.394-4.58,1.202-4.58,2.402c0,0.373,0.164,0.671,0.5,0.913
		c0.344,0.249,1.091,0.496,2.219,0.735c1.989,0.446,3.632,0.852,4.88,1.207c1.273,0.362,2.231,0.905,2.852,1.611
		c0.622,0.709,0.938,1.56,0.938,2.525c0,1.488-0.767,2.81-2.273,3.928C587.632,137.803,585.472,138.365,582.715,138.365"/>
	<path id="path78" fill="#628BCF" d="M598.072,128.504c-1.494,0-2.634-0.337-3.383-1.001c-0.758-0.669-1.141-1.397-1.141-2.167
		c0-0.418,0.119-0.785,0.354-1.09c0.24-0.311,0.553-0.467,0.924-0.467c0.822,0,1.258,0.458,1.258,1.32
		c0,0.193-0.044,0.461-0.133,0.819c-0.057,0.155-0.084,0.267-0.084,0.342c0,0.31,0.202,0.573,0.618,0.809
		c0.428,0.241,0.946,0.364,1.543,0.364c0.933,0,1.794-0.301,2.562-0.895c0.761-0.588,1.146-1.411,1.146-2.448
		c0-0.911-0.554-2.377-1.646-4.358c-1.292-2.321-1.946-4.05-1.943-5.136c0-1.398,0.56-2.594,1.665-3.554
		c1.104-0.957,2.375-1.443,3.778-1.443c1.035,0,1.931,0.266,2.666,0.792c0.746,0.531,1.125,1.114,1.125,1.731
		c0,1.021-0.565,1.235-1.04,1.235c-0.519,0-0.896-0.455-1.124-1.351c-0.219-0.899-0.801-1.336-1.777-1.336
		c-0.791,0-1.486,0.219-2.068,0.651c-0.573,0.425-0.865,0.987-0.865,1.673c0,0.96,0.48,2.298,1.429,3.979
		c0.917,1.576,1.513,2.74,1.819,3.56c0.311,0.822,0.468,1.68,0.468,2.547c0,1.353-0.524,2.606-1.561,3.728
		C601.625,127.934,600.081,128.504,598.072,128.504"/>
	<path id="path80" fill="#628BCF" d="M622.944,104.451l3.216,6.703l3.093-6.703h3.275v0.435c-0.557,0.016-0.909,0.115-1.065,0.298
		c-0.157,0.185-0.234,0.611-0.234,1.283v5.484c0,0.664,0.073,1.078,0.221,1.242c0.148,0.165,0.508,0.263,1.079,0.294v0.422h-4.666
		v-0.422c0.579-0.016,0.956-0.117,1.134-0.305c0.175-0.188,0.263-0.594,0.263-1.219v-5.766l-3.591,7.711h-0.372l-3.62-7.606v5.648
		c0,0.602,0.068,1.008,0.205,1.219s0.433,0.317,0.886,0.317h0.423v0.422h-3.587v-0.422c0.547,0,0.904-0.092,1.073-0.275
		c0.167-0.184,0.25-0.604,0.25-1.261v-5.461c0-0.695-0.075-1.136-0.228-1.323c-0.153-0.188-0.517-0.281-1.096-0.281v-0.435H622.944z
		 M610.018,104.451h8.517l0.259,2.356h-0.398c-0.039-0.391-0.2-0.764-0.484-1.119c-0.283-0.355-0.878-0.534-1.781-0.534h-0.876
		v6.786c0,0.656,0.079,1.071,0.235,1.248c0.155,0.175,0.491,0.275,1.008,0.299v0.422h-4.383v-0.422
		c0.43-0.031,0.734-0.107,0.909-0.229c0.176-0.121,0.263-0.558,0.263-1.308v-6.797h-0.891c-0.773,0-1.311,0.13-1.609,0.388
		c-0.303,0.258-0.508,0.68-0.617,1.266h-0.398L610.018,104.451"/>
</g>
</svg>
