<svg xmlns="http://www.w3.org/2000/svg" width="632.528" height="138.625" viewBox="0 0 632.528 138.625"><path fill="#628BCF" d="M44.195 68.128c-.54 0-1.064-.27-1.368-.764-.466-.755-.232-1.744.522-2.21C107.625 25.44 197.43 0 299.046 0c88.002 0 212.708 19.09 283.81 65.172.74.48.956 1.477.472 2.222-.48.744-1.478.958-2.222.474-70.512-45.7-194.52-64.654-282.06-64.654-101.037 0-190.227 25.27-254.01 64.673-.263.163-.555.24-.843.24"/><g fill="#FFF"><path d="M35.34 38.146c-.06.883-1.135 1.01-1.135 1.01-.188 0-1.384-.632-1.638-.76-2.077-.877-5.795-2.013-9.826-2.013-8.63 0-17.133 5.227-17.133 17.388 0 11.277 8.126 17.515 16.695 17.515 3.84 0 7.81-.947 10.33-2.08.19-.063 1.26-.63 1.386-.63.125 0 .756.5.82.566.06.126 0 .254 0 .443l-.506 2.644c-.063.44-.25.633-.753.82-.506.19-5.482 1.388-11.97 1.388-4.35 0-11.025-.44-16.32-6.236C1.89 64.48 0 59.627 0 54.59c0-8.382 5.102-16.194 13.607-19.657 3.652-1.514 7.62-1.826 11.15-1.826 6.297 0 10.14 1.26 10.646 1.576.314.188.314.5.25.755l-.312 2.708M56.717 73.737h4.21V39.52h-4.21v34.217zM81.708 73.737h4.21V39.52h-4.21v34.217zM125.24 59.977l-5.99-16.034-6.744 16.034h12.735zm-18.458 13.76h-4.316l15.865-34.22h3.35l13.225 34.22h-4.59l-4.048-11.062H111.37l-4.588 11.062M156.18 56.305c.86.106 2.103.164 3.616.164 4.263 0 9.877-.598 9.877-7.4 0-6.744-5.183-6.908-8.746-6.908-.81 0-3.184.058-4.75.164l.002 13.98zm0 17.432h-4.212V39.52c1.19 0 6.476-.163 9.23-.163 5.29 0 8.366.375 10.47 2.534 1.78 1.73 2.646 4.434 2.646 6.696 0 6.425-5.396 8.636-7.286 9.39 3.184 5.673 6.585 9.88 8.206 11.607.375.323 1.888 1.89 4.747 2.375l-.54 1.672c-.107.377-.482.377-.862.377-5.18 0-7.61-.858-15.87-15.057-1.185.16-2.64.38-6.53.217v14.57M206.482 42.542v31.195h-4.205V42.542h-14.415V39.52h33.14v3.022h-14.52M239.354 70.664h17.976v3.073h-22.183V39.52h22.02v3.022h-17.813V54.04h15.817v3.018h-15.816v13.606M280.212 56.305c.868.106 2.107.164 3.62.164 4.263 0 9.875-.598 9.875-7.4 0-6.744-5.18-6.908-8.744-6.908-.808 0-3.183.058-4.75.164v13.98zm0 17.432h-4.205V39.52c1.185 0 6.473-.163 9.227-.163 5.29 0 8.367.375 10.473 2.534 1.776 1.73 2.644 4.434 2.644 6.696 0 6.425-5.397 8.636-7.286 9.39 3.183 5.673 6.583 9.88 8.203 11.607.383.323 1.888 1.89 4.75 2.375l-.542 1.672c-.106.377-.48.377-.858.377-5.183 0-7.612-.858-15.87-15.057-1.188.16-2.646.38-6.535.217v14.57M345.553 38.396v.256c0 .188-.883.567-1.07.567-.123 0-.69-.506-1.135-.76-1.824-1.004-5.04-2.077-8-2.077-2.71 0-8.377 1.008-8.377 6.74 0 4.033 2.835 5.29 9.194 8 4.918 2.08 11.213 4.786 11.213 11.655 0 5.545-4.344 11.656-15.05 11.656-3.026 0-7.308-.636-9.58-1.197-.567-.128-1.634-.44-1.763-1.075l-.568-3.526c-.06-.375 0-.438.062-.5.13-.128.822-.443.945-.443.443 0 .945.443 1.324.63 2.395 1.323 6.426 2.58 10.395 2.58 4.03 0 9.26-1.952 9.26-7.054 0-4.665-4.156-6.428-8.566-8.315-6.617-2.773-11.656-4.852-11.656-11.4 0-6.178 4.98-11.09 14.43-11.09 3.97 0 7.367 1.01 7.688 1.073.312.125.627.312.69.815l.565 3.463M368.53 70.664h17.975v3.073H364.32V39.52h22.02v3.022h-17.81V54.04h15.814v3.018H368.53v13.606M420.872 59.977l-5.992-16.034-6.744 16.034h12.736zm-18.46 13.76h-4.317l15.87-34.22h3.343l13.23 34.22h-4.587l-4.054-11.062H407l-4.59 11.062M450.127 56.305c.863.106 2.102.164 3.613.164 4.266 0 9.88-.598 9.88-7.4 0-6.744-5.18-6.908-8.745-6.908-.81 0-3.186.058-4.748.164v13.98zm0 17.432h-4.21V39.52c1.187 0 6.474-.163 9.23-.163 5.286 0 8.362.375 10.47 2.534 1.777 1.73 2.645 4.434 2.645 6.696 0 6.425-5.398 8.636-7.287 9.39 3.184 5.673 6.584 9.88 8.2 11.607.384.323 1.892 1.89 4.753 2.375l-.54 1.672c-.106.377-.48.377-.858.377-5.184 0-7.613-.858-15.87-15.057-1.19.16-2.65.38-6.532.217v14.57M514.358 45.034c-.055.758-.973.864-.973.864-.164 0-.994-.69-1.19-.825-1.65-1.13-4.82-2.32-8.27-2.305-6.41.028-14.288 3.442-14.288 13.86 0 9.66 6.97 15.006 14.305 15.006 3.295 0 6.695-.81 8.854-1.78.16-.058 1.076-.54 1.184-.54.11 0 .654.433.703.482.06.11 0 .22 0 .38l-.432 2.27c-.052.374-.214.538-.647.702-.432.16-4.69 1.186-10.252 1.186-3.726 0-9.44-.375-13.978-5.347-2.912-3.18-4.53-7.34-4.53-11.656 0-7.182 3.114-13.272 10.4-16.24 3.13-1.3 5.813-1.57 8.84-1.57 4.485 0 10.073 2.613 10.505 2.884.27.162.27.433.215.648l-.444 1.982M537.698 73.737h4.213V39.52H537.7v34.217zM562.694 73.737h4.203V39.52h-4.203v34.217z"/></g><g fill="#628BCF"><path d="M360.032 138.194c-1.215 0-2.328-.286-3.31-.853-.99-.573-1.497-1.304-1.497-2.165 0-.493.16-.908.48-1.227.32-.318.698-.48 1.122-.48.5 0 .908.18 1.21.54.3.352.452.735.452 1.145 0 .106-.02.288-.065.554l-.04.36c0 .23.153.45.474.662.325.217.728.327 1.192.327 1.68 0 3.11-.91 4.264-2.705 1.166-1.822 2.506-5.52 3.984-10.997l3.625-12.105h-4.168l.334-1.135h4.222c.062-.213.188-.625.36-1.18 1.942-7.143 5.144-10.768 9.513-10.768 1.254 0 2.23.283 2.896.842.675.56 1.017 1.126 1.017 1.682 0 .808-.402 1.233-1.172 1.233-.61 0-1.234-.498-1.906-1.524-.44-.686-.968-1.03-1.573-1.03-.945 0-1.86.443-2.73 1.317-.87.88-1.854 3.322-2.92 7.262l-.646 2.165h3.8l-.336 1.135h-3.848l-3.69 12.504c-1.52 5.674-3.206 9.54-5.01 11.488-1.82 1.96-3.85 2.952-6.034 2.952M383.254 128.503c-.69 0-1.305-.25-1.826-.746-.52-.496-.787-1.23-.787-2.184 0-.767.36-2.244 1.07-4.394l2.18-6.553c.505-1.52.757-2.45.757-2.764 0-.258-.062-.453-.18-.58-.12-.123-.295-.185-.543-.185-.523 0-1.17.427-1.916 1.27-.756.853-1.293 1.636-1.604 2.327l-.027.057h-1.246l.07-.14c.788-1.563 1.702-2.817 2.716-3.724 1.025-.914 1.998-1.378 2.89-1.378.696 0 1.278.24 1.724.718.443.477.67 1.104.67 1.87 0 .77-.342 2.183-1.02 4.192l-1.832 5.58c-.668 1.994-1.008 3.264-1.008 3.774 0 .396.076.692.227.884.145.186.354.276.645.276 1.018 0 2.246-1.263 3.65-3.755l.027-.05h1.237l-.064.138c-.672 1.392-1.557 2.644-2.635 3.72-1.088 1.093-2.154 1.645-3.174 1.645M402.848 128.503c-.666 0-1.248-.205-1.727-.612-.483-.41-.73-1.02-.73-1.822 0-.664.325-1.924.99-3.855l2.298-6.553c.61-1.77.92-2.928.92-3.44 0-.44-.098-.77-.287-.98-.188-.205-.485-.31-.884-.31-1.05 0-2.455 1.274-4.182 3.788-1.74 2.537-3.26 5.902-4.51 10.006l-1.072 3.5h-2.82l.04-.122 3.778-12.203c.68-2.23 1.025-3.522 1.025-3.84 0-.22-.037-.383-.11-.48-.067-.09-.177-.134-.33-.134-.81 0-1.796 1.04-2.94 3.09l-.026.048h-1.206l.076-.142c1.807-3.27 3.547-4.928 5.186-4.928.586 0 1.035.183 1.334.54.293.355.44.895.44 1.6 0 1.023-.33 2.523-.987 4.47 2.383-4.386 4.738-6.608 7.014-6.608.81 0 1.52.27 2.12.81.608.54.917 1.33.917 2.36 0 .66-.29 1.852-.89 3.64l-2.296 6.853c-.758 2.276-.916 2.922-.916 3.06 0 .244.06.43.176.548.113.115.29.174.523.174.46 0 .962-.27 1.5-.8.548-.542 1.142-1.362 1.765-2.44l.03-.047h1.31l-.076.144c-.864 1.547-1.755 2.727-2.653 3.504-.91.78-1.852 1.18-2.8 1.18M420.782 110.78c-.9 0-1.865.544-2.867 1.613-1.014 1.084-2.137 2.99-3.336 5.666-1.202 2.67-1.813 4.937-1.813 6.738 0 .78.14 1.373.404 1.76.26.387.64.572 1.16.572.93 0 2.028-.666 3.263-1.98 1.246-1.32 2.414-3.534 3.467-6.58 1.053-3.05 1.586-5 1.586-5.8 0-.506-.174-.97-.518-1.38-.335-.404-.788-.61-1.346-.61zm.785 17.723c-.785 0-1.39-.242-1.793-.72-.398-.476-.6-1.183-.6-2.105 0-.282.016-.547.047-.793-1.958 2.4-3.806 3.617-5.495 3.617-.998 0-1.86-.41-2.564-1.215-.698-.802-1.054-1.97-1.054-3.48 0-2.083.584-4.35 1.732-6.732 1.15-2.385 2.594-4.263 4.295-5.576 1.705-1.318 3.21-1.987 4.475-1.987.662 0 1.232.158 1.7.468.41.272.75.667 1.017 1.174l2.557-8.425c.39-1.262.47-1.697.47-1.843 0-.313-.08-.528-.25-.655-.122-.088-.462-.195-1.376-.195h-.73l.337-1.094h.07c2.06 0 3.72-.258 4.936-.766l.034-.008h.668l-.037.122-6.92 22.623c-.842 2.776-1.27 4.43-1.27 4.914 0 .335.06.587.186.747.12.155.288.23.517.23.402 0 .86-.243 1.36-.727.515-.494 1.085-1.246 1.694-2.235l.026-.046h1.268l-.076.14c-.646 1.18-1.475 2.24-2.457 3.16-.997.933-1.925 1.403-2.763 1.403M434.467 138.625c-1.873 0-2.824-.56-2.824-1.664 0-.462.21-.83.623-1.1.402-.262.832-.394 1.277-.394.338 0 .852.093 1.57.283.904.253 1.654.384 2.23.384.838 0 1.672-.24 2.477-.71.81-.47 1.832-1.304 3.033-2.476 1.19-1.164 2.045-2.212 2.53-3.115.478-.9.91-2.506 1.288-4.77.376-2.28.567-4.763.567-7.376 0-1.986-.188-3.538-.553-4.61-.355-1.04-.79-1.567-1.285-1.567-.983 0-1.603 1.322-1.84 3.933l-.01.086h-1.09l.007-.104c.172-2.045.63-3.553 1.36-4.487.74-.945 1.552-1.425 2.41-1.425 1.09 0 1.978.672 2.63 2 .64 1.3.965 3.306.965 5.96 0 3.29-.365 6.354-1.082 9.115 1.305-1.48 2.596-3.34 3.834-5.53 1.328-2.337 2-4.353 2-5.99 0-.77-.227-1.54-.674-2.295-.473-.78-.7-1.358-.7-1.77 0-.393.118-.74.354-1.036.236-.302.533-.455.877-.455.552 0 1.005.312 1.355.93.336.604.506 1.494.506 2.647 0 1.72-.534 3.845-1.59 6.32-1.048 2.467-2.61 4.946-4.642 7.373-2.023 2.414-4.068 4.627-6.076 6.58-2.01 1.95-3.76 3.33-5.2 4.1-1.442.768-2.9 1.16-4.325 1.16M467.292 110.757c-1.738 0-3.266 1.684-4.54 4.998-1.286 3.35-1.94 6.334-1.94 8.873 0 .748.198 1.394.585 1.92.385.522.9.777 1.576.777 1.865 0 3.428-1.814 4.646-5.394 1.23-3.61 1.853-6.404 1.853-8.305 0-.963-.184-1.69-.55-2.166-.364-.472-.897-.703-1.63-.703zm-4.405 17.64c-1.21 0-2.283-.474-3.19-1.403-.91-.932-1.372-2.56-1.372-4.838 0-1.723.406-3.625 1.21-5.652.804-2.03 1.97-3.703 3.466-4.97 1.5-1.27 2.98-1.91 4.4-1.91 1.302 0 2.386.558 3.224 1.66.832 1.09 1.254 2.59 1.254 4.448 0 2.24-.465 4.39-1.383 6.398-.92 2.013-2.09 3.574-3.477 4.646-1.39 1.076-2.78 1.62-4.13 1.62M486.647 128.503c-.73 0-1.285-.207-1.648-.614-.366-.403-.552-1.014-.552-1.813 0-.916.287-2.3.854-4.12-2.332 4.345-4.676 6.546-6.977 6.546-.924 0-1.662-.29-2.193-.867-.53-.573-.8-1.297-.8-2.148 0-.83.282-2.167.862-4.088l2.346-7.714c.34-1.13.512-1.815.512-2.034 0-.32-.143-.464-.465-.464-.855 0-1.826 1.203-2.88 3.575l-.024.057h-1.23l.05-.13c.575-1.513 1.34-2.763 2.272-3.717.943-.968 1.89-1.46 2.814-1.46.577 0 1.077.188 1.49.552.41.366.62.922.62 1.65 0 .51-.227 1.53-.672 3.032l-2.396 7.95c-.453 1.53-.684 2.55-.684 3.024 0 .42.092.737.277.948.182.205.455.312.812.312 1.225 0 2.713-1.336 4.428-3.97 1.727-2.66 3.453-6.652 5.143-11.87l.408-1.35h2.795l-.038.126-3.998 12.317c-.635 1.978-.955 3.188-.955 3.604 0 .34.063.594.192.757.125.157.312.235.57.235 1.043 0 2.055-1.175 3.008-3.49l.025-.058h1.102l-.045.13c-1.224 3.38-2.914 5.09-5.025 5.09M497.592 128.225h-2.76l.04-.122 3.462-11.39c.646-2.16.975-3.64.975-4.395 0-.396-.052-.69-.15-.88-.09-.168-.224-.25-.4-.25-.437 0-1.01.5-1.7 1.483-.703 1.016-1.21 1.948-1.504 2.772l-.02.062h-1.15l.048-.127c.604-1.607 1.37-2.998 2.28-4.13.925-1.15 1.856-1.734 2.77-1.734.65 0 1.138.265 1.454.786.31.508.47 1.278.47 2.292 0 1.06-.23 2.465-.698 4.28.072-.16.15-.34.232-.534 1.05-2.383 1.988-4.133 2.79-5.195.815-1.08 1.647-1.63 2.472-1.63.52 0 .947.17 1.266.505.316.33.477.736.477 1.203 0 .454-.135.83-.4 1.118s-.588.438-.96.438c-.413 0-.833-.25-1.25-.742-.14-.162-.274-.246-.4-.246-.458 0-1.39.887-3.21 5.11-1.473 3.41-2.69 6.68-3.627 9.713l-.508 1.615M535.495 110.65c-.53 0-1.14.704-1.814 2.092-.685 1.41-1.032 3.496-1.032 6.203 0 .254.01.54.025.85 1.135-1.54 2-2.975 2.574-4.268.602-1.348.906-2.574.906-3.643 0-.428-.06-.747-.172-.95-.105-.19-.265-.285-.485-.285zm-12.74 17.853c-1.214 0-2.146-.38-2.77-1.127-.62-.744-.937-1.682-.937-2.787 0-2.398 1.56-5.824 4.64-10.183.556-.767.937-1.307 1.15-1.637-.52.247-1.017.37-1.48.37-.526 0-1.085-.276-1.66-.82-.22-.223-.42-.34-.575-.34-.3 0-.55.265-.752.776l-.083.256h-1.115l.03-.118c.57-2.172 1.358-3.272 2.35-3.272.6 0 1.224.373 1.856 1.106 1.113 1.274 1.885 1.354 2.22.103.24-.874.61-1.316 1.103-1.316.632 0 .76.38.76.696 0 .13-.122.52-1.192 2.365-1.807 3.07-2.998 5.646-3.545 7.658-.55 2.016-.826 3.415-.826 4.16 0 .704.174 1.312.51 1.805.336.483.8.72 1.418.72.918 0 2.006-.45 3.23-1.335 1.223-.885 2.21-1.777 2.943-2.653-.04-.343-.062-.716-.062-1.11 0-2.947.604-5.76 1.79-8.353 1.2-2.62 2.495-3.95 3.847-3.95.576 0 1.012.208 1.295.62.273.402.412 1.006.412 1.79 0 1.33-.375 2.803-1.115 4.378-.732 1.564-1.854 3.28-3.33 5.1.13 1.773.492 3.17 1.07 4.145.572.967 1.293 1.457 2.143 1.457.816 0 1.785-.493 2.88-1.47 1.103-.98 2.104-2.485 2.974-4.473.87-1.987 1.312-3.688 1.312-5.058 0-.812-.23-1.715-.68-2.686-.42-.896-.63-1.66-.63-2.27 0-.466.126-.84.378-1.116.256-.277.537-.42.832-.42.436 0 .838.298 1.2.885.35.567.528 1.524.528 2.84 0 1.894-.46 4.224-1.37 6.927-.91 2.715-2.198 4.8-3.83 6.203-1.638 1.403-3.228 2.114-4.733 2.114-1.284 0-2.34-.478-3.136-1.417-.74-.877-1.23-1.796-1.453-2.734-1.33 1.354-2.634 2.394-3.872 3.088-1.286.72-2.54 1.083-3.724 1.083M555.848 102.12c-.553 0-1.025-.2-1.402-.6-.373-.395-.562-.862-.562-1.386 0-.54.195-1.008.578-1.39.383-.382.848-.575 1.387-.575s1.007.192 1.39.575c.383.38.574.848.574 1.39s-.193 1.01-.574 1.397c-.384.39-.853.59-1.392.59zm-4.494 26.383c-.693 0-1.31-.25-1.828-.746-.52-.493-.785-1.23-.785-2.184 0-.773.358-2.253 1.067-4.394l2.184-6.553c.5-1.517.753-2.445.753-2.764 0-.26-.06-.455-.176-.58-.117-.12-.3-.185-.543-.185-.53 0-1.174.427-1.916 1.267-.758.86-1.3 1.643-1.607 2.33l-.024.057h-1.248l.07-.14c.79-1.565 1.707-2.817 2.72-3.724 1.02-.914 1.993-1.378 2.888-1.378.693 0 1.275.24 1.723.718s.67 1.105.67 1.87c0 .772-.333 2.146-1.02 4.192l-1.835 5.58c-.668 2-1.008 3.27-1.008 3.774 0 .394.076.69.23.884.144.186.354.276.642.276 1.02 0 2.247-1.263 3.65-3.755l.028-.05h1.236l-.064.138c-.672 1.396-1.56 2.647-2.63 3.72-1.092 1.093-2.158 1.645-3.176 1.645M570.942 128.503c-.664 0-1.246-.205-1.727-.612-.484-.41-.73-1.02-.73-1.822 0-.656.322-1.916.992-3.855l2.3-6.553c.606-1.77.917-2.93.917-3.44 0-.44-.098-.77-.285-.98-.19-.205-.49-.31-.888-.31-1.05 0-2.455 1.274-4.186 3.788-1.738 2.53-3.254 5.898-4.506 10.006l-1.072 3.5h-2.82l.035-.122 3.78-12.203c.68-2.232 1.028-3.523 1.028-3.84 0-.223-.036-.385-.108-.48-.07-.09-.18-.134-.336-.134-.81 0-1.795 1.04-2.936 3.09l-.025.048h-1.205l.078-.142c1.83-3.315 3.525-4.928 5.184-4.928.59 0 1.037.183 1.33.54.3.357.443.88.443 1.6 0 1.023-.33 2.523-.986 4.47 2.382-4.386 4.735-6.608 7.01-6.608.81 0 1.524.27 2.128.81s.91 1.333.91 2.36c0 .656-.29 1.848-.885 3.64l-2.297 6.853c-.762 2.272-.92 2.92-.92 3.06 0 .244.06.43.176.548.12.116.29.174.52.174.46 0 .966-.27 1.505-.8.547-.542 1.14-1.362 1.766-2.44l.025-.047h1.312l-.078.144c-.86 1.547-1.752 2.727-2.652 3.504-.906.78-1.85 1.18-2.798 1.18M587.72 110.585c-1.216 0-2.36 1.035-3.403 3.074-1.06 2.06-1.592 4.058-1.592 5.938 0 .77.22 1.4.65 1.87.43.464.975.698 1.615.698.76 0 1.447-.31 2.05-.916.612-.62 1.218-1.785 1.806-3.467.588-1.684.89-3.14.89-4.33 0-.96-.173-1.69-.513-2.17-.336-.468-.826-.698-1.504-.698zm-5.005 27.78c-2.598 0-4.65-.43-6.105-1.28-1.473-.858-2.22-1.95-2.22-3.24 0-.955.366-1.77 1.085-2.423.72-.65 1.344-.98 1.867-.98.7 0 .852.355.852.652 0 .23-.18.525-.543.904-.565.608-.854 1.21-.854 1.78 0 .897.463 1.7 1.38 2.397.925.7 2.364 1.056 4.282 1.056 2.06 0 3.645-.355 4.705-1.06 1.05-.695 1.582-1.517 1.582-2.44 0-.73-.36-1.31-1.096-1.77-.75-.467-2.403-.998-4.913-1.582-2.246-.523-3.604-1.06-4.15-1.64-.56-.56-.842-1.183-.842-1.852 0-.93.47-1.815 1.404-2.642.878-.777 2.108-1.336 3.663-1.662-.832-.504-1.475-1.147-1.91-1.918-.473-.834-.71-1.842-.71-3 0-2.107.763-4.012 2.26-5.662 1.503-1.652 3.224-2.49 5.116-2.49.593 0 1.157.096 1.68.285.49.18.946.455 1.356.822.94-.765 1.74-1.15 2.377-1.15.543 0 .988.155 1.334.465.348.31.525.704.525 1.177 0 .737-.375 1.127-1.088 1.127-.4 0-.795-.26-1.168-.772-.422-.578-.805-.572-1.25.015.557.944.842 2.078.842 3.367 0 2.49-.74 4.487-2.197 5.935-1.472 1.44-3.282 2.312-5.384 2.582-3.04.395-4.58 1.202-4.58 2.402 0 .372.164.67.5.912.346.25 1.092.495 2.22.735 1.99.445 3.632.852 4.88 1.207 1.273.36 2.23.904 2.852 1.61.623.71.94 1.56.94 2.524 0 1.488-.77 2.81-2.274 3.93-1.503 1.114-3.663 1.677-6.42 1.677M598.073 128.503c-1.494 0-2.635-.336-3.383-1-.76-.67-1.143-1.397-1.143-2.168 0-.418.12-.785.355-1.09.238-.31.553-.467.924-.467.822 0 1.258.458 1.258 1.32 0 .193-.045.46-.133.818-.056.156-.083.268-.083.342 0 .31.2.574.617.81.428.24.945.364 1.543.364.934 0 1.795-.3 2.562-.895.76-.588 1.145-1.412 1.145-2.45 0-.91-.555-2.376-1.646-4.356-1.294-2.32-1.946-4.05-1.944-5.135 0-1.397.56-2.595 1.666-3.554 1.104-.956 2.375-1.442 3.777-1.442 1.034 0 1.93.266 2.665.792.746.53 1.125 1.114 1.125 1.73 0 1.022-.564 1.235-1.04 1.235-.52 0-.896-.455-1.124-1.352-.22-.898-.8-1.336-1.777-1.336-.792 0-1.487.22-2.07.65-.57.426-.864.988-.864 1.674 0 .962.48 2.3 1.43 3.98.918 1.575 1.514 2.74 1.818 3.56.312.822.47 1.68.47 2.547 0 1.354-.524 2.606-1.562 3.73-1.037 1.127-2.58 1.696-4.59 1.696M622.944 104.45l3.217 6.704 3.093-6.703h3.275v.437c-.557.016-.908.115-1.064.298-.158.185-.234.61-.234 1.282v5.484c0 .665.072 1.08.22 1.243.15.165.51.264 1.08.294v.423h-4.665v-.423c.578-.016.955-.116 1.133-.305.176-.188.264-.595.264-1.22v-5.766l-3.592 7.71h-.37l-3.622-7.604v5.648c0 .602.068 1.008.205 1.22s.434.315.887.315h.424v.422h-3.588v-.422c.547 0 .904-.092 1.072-.275s.25-.604.25-1.26v-5.46c0-.696-.074-1.138-.227-1.325-.153-.188-.517-.28-1.097-.28v-.435h3.34zm-12.926 0h8.518l.258 2.357h-.396c-.04-.392-.2-.765-.484-1.12s-.88-.533-1.78-.533h-.878v6.786c0 .656.08 1.07.236 1.248.154.175.49.274 1.008.3v.422h-4.383v-.423c.43-.03.732-.106.908-.23.176-.12.264-.556.264-1.306v-6.797h-.892c-.773 0-1.312.13-1.61.388-.302.26-.507.682-.616 1.268h-.398l.244-2.357"/></g></svg>