<svg xmlns="http://www.w3.org/2000/svg" xmlns:xlink="http://www.w3.org/1999/xlink" width="632.528" height="138.624" viewBox="0 0 632.528 138.624"><g transform="matrix(.13333 0 0 -.13333 0 138.627)"><defs><path id="a" d="M2055.717 450.548h632.528v138.624h-632.528z"/></defs><clipPath id="b"><use xlink:href="#a" overflow="visible"/></clipPath><g clip-path="url(#b)"><path fill="#628BCF" d="M331.46 528.74c-4.038 0-7.982 2.037-10.26 5.73-3.497 5.66-1.743 13.08 3.918 16.58C807.194 848.884 1480.74 1039.7 2242.85 1039.7c660.023 0 1595.312-143.166 2128.56-488.788 5.58-3.61 7.184-11.074 3.55-16.663-3.61-5.582-11.073-7.186-16.662-3.553-528.83 342.75-1458.89 484.907-2115.447 484.907-757.77 0-1426.69-189.514-1905.07-485.046-1.968-1.23-4.158-1.817-6.32-1.817"/><path fill="#273679" d="M265.056 753.61c-.47-6.622-8.518-7.582-8.518-7.582-1.41 0-10.378 4.746-12.283 5.706-15.58 6.577-43.466 15.095-73.696 15.095-64.74 0-128.508-39.2-128.508-130.41 0-84.572 60.945-131.352 125.21-131.352 28.8 0 58.565 7.112 77.466 15.608 1.432.47 9.456 4.724 10.4 4.724.94 0 5.67-3.765 6.14-4.255.47-.938 0-1.897 0-3.318L257.48 498c-.47-3.303-1.88-4.746-5.646-6.152-3.79-1.428-41.11-10.408-89.77-10.408-32.614 0-82.69 3.318-122.39 46.772C14.165 556.104 0 592.492 0 630.284c0 62.856 38.262 121.45 102.056 147.422 27.393 11.353 57.158 13.696 83.628 13.696 47.23 0 76.055-9.456 79.845-11.82 2.354-1.407 2.354-3.75 1.878-5.663l-2.352-20.31M425.376 486.67h31.578v256.64h-31.578V486.67zM612.806 486.67h31.582v256.64h-31.582V486.67zM939.31 589.876l-44.924 120.256L843.8 589.876h95.51zM800.866 486.67h-32.37l118.99 256.64h25.118l99.185-256.64h-34.42l-30.366 82.97H835.28l-34.413-82.97M1171.34 617.415c6.46-.798 15.78-1.23 27.13-1.23 31.97 0 74.08 4.475 74.08 55.488 0 50.588-38.87 51.82-65.592 51.82-6.068 0-23.877-.433-35.618-1.23V617.414zm0-130.745h-31.582v256.64c8.92 0 48.57 1.217 69.232 1.217 39.668 0 62.74-2.812 78.52-19.006 13.358-12.97 19.84-33.244 19.84-50.214 0-48.186-40.47-64.768-54.642-70.43 23.88-42.54 49.39-74.1 61.542-87.048 2.81-2.424 14.158-14.165 35.6-17.812l-4.062-12.54c-.798-2.833-3.607-2.833-6.46-2.833-38.848 0-57.07 6.445-119.03 112.932-8.88-1.194-19.8-2.856-48.96-1.626V486.67M1548.618 720.635V486.67h-31.538v233.965h-108.11v22.676h248.56v-22.675h-108.912M1795.15 509.72h134.818v-23.05h-166.37v256.64h165.143v-22.675h-133.59v-86.228h118.63v-22.64h-118.63V509.72M2101.59 617.415c6.51-.798 15.8-1.23 27.15-1.23 31.97 0 74.06 4.475 74.06 55.488 0 50.588-38.84 51.82-65.58 51.82-6.06 0-23.872-.433-35.63-1.23V617.414zm0-130.745h-31.54v256.64c8.89 0 48.55 1.217 69.2 1.217 39.668 0 62.75-2.812 78.55-19.006 13.318-12.97 19.83-33.244 19.83-50.214 0-48.186-40.49-64.768-54.65-70.43 23.87-42.54 49.37-74.1 61.52-87.048 2.87-2.424 14.162-14.165 35.633-17.812l-4.072-12.54c-.797-2.833-3.61-2.833-6.437-2.833-38.874 0-57.093 6.445-119.022 112.932-8.91-1.194-19.848-2.856-49.01-1.626V486.67M2591.653 751.734v-1.92c0-1.405-6.62-4.254-8.035-4.254-.93 0-5.193 3.787-8.503 5.684-13.696 7.537-37.808 15.586-60 15.586-20.325 0-62.834-7.56-62.834-50.544 0-30.256 21.263-39.69 68.96-60 36.884-15.608 84.096-35.903 84.096-87.422 0-41.587-32.578-87.422-112.88-87.422-22.69 0-54.8 4.76-71.837 8.98-4.264.958-12.27 3.302-13.23 8.07l-4.262 26.44c-.454 2.812 0 3.28.47 3.75.966.96 6.166 3.325 7.09 3.325 3.324 0 7.09-3.325 9.93-4.73 17.96-9.918 48.202-19.352 77.96-19.352 30.242 0 69.448 14.648 69.448 52.91 0 34.98-31.172 48.2-64.248 62.358-49.63 20.8-87.422 36.387-87.422 85.51 0 46.326 37.324 83.167 108.208 83.167 29.766 0 55.27-7.58 57.656-8.05 2.344-.937 4.702-2.343 5.17-6.115l4.263-25.97M2763.97 509.72h134.81v-23.05h-166.37v256.64h165.14v-22.675h-133.58v-86.228h118.616v-22.64H2763.97V509.72M3156.534 589.876l-44.94 120.256-50.582-120.256h95.522zM3018.077 486.67h-32.366l119.012 256.64h25.085l99.2-256.64h-34.388l-30.41 82.97h-111.717l-34.41-82.97M3375.953 617.415c6.475-.798 15.754-1.23 27.107-1.23 31.992 0 74.084 4.475 74.084 55.488 0 50.588-38.833 51.82-65.574 51.82-6.072 0-23.9-.433-35.618-1.23V617.414zm0-130.745h-31.582v256.64c8.9 0 48.568 1.217 69.23 1.217 39.668 0 62.74-2.812 78.538-19.006 13.323-12.97 19.827-33.244 19.827-50.214 0-48.186-40.496-64.768-54.653-70.43 23.87-42.54 49.38-74.1 61.51-87.048 2.87-2.424 14.18-14.165 35.64-17.812l-4.06-12.54c-.797-2.833-3.61-2.833-6.437-2.833-38.87 0-57.092 6.445-119.033 112.932-8.892-1.194-19.856-2.856-48.977-1.626V486.67M3857.688 701.944c-.41-5.684-7.288-6.482-7.288-6.482-1.23 0-7.463 5.178-8.943 6.19-12.385 8.48-36.138 17.4-62.014 17.284-48.062-.212-107.153-25.818-107.153-103.945 0-72.457 52.25-112.558 107.27-112.558 24.713 0 50.223 6.08 66.41 13.36 1.208.43 8.08 4.042 8.877 4.042.842 0 4.915-3.237 5.28-3.61.433-.82 0-1.642 0-2.85l-3.244-17.014c-.396-2.812-1.604-4.043-4.863-5.273-3.237-1.194-35.193-8.884-76.89-8.884-27.95 0-70.818 2.812-104.846 40.093-21.833 23.848-33.984 55.042-33.984 87.422 0 53.87 23.364 99.55 78.01 121.816 23.474 9.75 43.608 11.777 66.313 11.777 33.625 0 75.535-19.606 78.78-21.635 2.035-1.216 2.035-3.245 1.61-4.863l-3.325-14.868M4032.737 486.67h31.597v256.64h-31.597V486.67zM4220.208 486.67h31.523v256.64h-31.522V486.67z"/><path fill="#628BCF" d="M2700.242 3.243c-9.11 0-17.46 2.146-24.814 6.387-7.45 4.314-11.228 9.785-11.228 16.245 0 3.706 1.2 6.82 3.582 9.207 2.41 2.388 5.244 3.59 8.423 3.59 3.75 0 6.812-1.35 9.075-4.044 2.25-2.637 3.39-5.522 3.39-8.584 0-.806-.145-2.16-.482-4.153l-.315-2.71c0-1.713 1.157-3.36 3.56-4.957 2.454-1.633 5.457-2.46 8.95-2.46 12.59 0 23.342 6.832 31.97 20.287 8.745 13.667 18.794 41.41 29.897 82.478l27.188 90.79h-31.267l2.513 8.52h31.655c.454 1.588 1.392 4.687 2.695 8.832 14.568 53.577 38.577 80.757 71.353 80.757 9.39 0 16.707-2.124 21.724-6.306 5.054-4.203 7.61-8.45 7.61-12.62 0-6.056-3.025-9.257-8.782-9.257-4.6 0-9.265 3.735-14.297 11.44-3.288 5.142-7.257 7.734-11.806 7.734-7.083 0-13.96-3.325-20.47-9.88-6.542-6.592-13.91-24.924-21.908-54.463l-4.856-16.238h28.5l-2.528-8.518h-28.85l-27.686-93.78c-11.382-42.545-24.038-71.542-37.573-86.16-13.63-14.68-28.85-22.135-45.22-22.135M2874.412 75.92c-5.186 0-9.792 1.883-13.696 5.597-3.91 3.72-5.903 9.23-5.903 16.384 0 5.743 2.695 16.832 8.013 32.945l16.362 49.138c3.765 11.404 5.662 18.384 5.662 20.728 0 1.927-.46 3.4-1.34 4.344-.894.93-2.22 1.384-4.08 1.384-3.933 0-8.767-3.2-14.363-9.514-5.67-6.4-9.705-12.268-12.026-17.46l-.204-.418h-9.346l.52 1.04c5.91 11.733 12.766 21.13 20.37 27.927 7.69 6.855 14.984 10.334 21.67 10.334 5.223 0 9.58-1.81 12.92-5.383 3.334-3.567 5.018-8.284 5.018-14.026 0-5.78-2.556-16.37-7.632-31.45l-13.74-41.85c-5.01-14.95-7.566-24.47-7.566-28.31 0-2.965.57-5.192 1.692-6.62 1.084-1.4 2.666-2.08 4.834-2.08 7.625 0 16.846 9.47 27.385 28.162l.213.366h9.287l-.49-1.033c-5.033-10.437-11.668-19.82-19.754-27.905-8.16-8.152-16.165-12.297-23.804-12.297M3021.358 75.92c-4.995 0-9.36 1.546-12.95 4.6-3.624 3.077-5.485 7.677-5.485 13.675 0 4.98 2.44 14.43 7.434 28.923l17.234 49.138c4.57 13.28 6.893 21.958 6.893 25.818 0 3.296-.725 5.764-2.153 7.34-1.42 1.53-3.647 2.313-6.636 2.313-7.874 0-18.413-9.558-31.362-28.418-13.052-19.022-24.44-44.27-33.816-75.038l-8.042-26.257h-21.152l.293.923 28.337 91.523c5.098 16.715 7.698 26.397 7.698 28.793 0 1.648-.278 2.87-.82 3.604-.513.674-1.333 1.003-2.498 1.003-6.057 0-13.462-7.793-22.024-23.167l-.205-.36h-9.038l.57 1.056c13.55 24.52 26.603 36.957 38.893 36.957 4.395 0 7.756-1.37 10.005-4.058 2.19-2.66 3.296-6.703 3.296-11.998 0-7.676-2.477-18.926-7.398-33.516 17.87 32.893 35.537 49.57 52.603 49.57 6.05 0 11.396-2.043 15.908-6.072 4.548-4.043 6.863-9.983 6.863-17.695 0-4.96-2.175-13.888-6.665-27.29l-17.226-51.41c-5.684-17.08-6.87-21.92-6.87-22.976 0-1.824.447-3.208 1.326-4.094.85-.872 2.183-1.304 3.926-1.304 3.435 0 7.207 2.014 11.228 5.99 4.116 4.066 8.577 10.218 13.242 18.304l.22.352h9.836l-.58-1.07c-6.474-11.6-13.153-20.448-19.892-26.286-6.827-5.887-13.88-8.875-20.992-8.875M3155.867 208.855c-6.76 0-13.99-4.08-21.504-12.107-7.603-8.13-16.033-22.427-25.02-42.495-9.016-20.04-13.586-37.04-13.586-50.552 0-5.858 1.025-10.297 3.025-13.197 1.956-2.893 4.797-4.285 8.687-4.285 6.972 0 15.22 4.988 24.484 14.832 9.346 9.91 18.098 26.514 25.994 49.35 7.896 22.875 11.895 37.516 11.895 43.514 0 3.787-1.304 7.273-3.875 10.35-2.52 3.04-5.92 4.59-10.1 4.59zm5.882-132.934c-5.882 0-10.4 1.817-13.44 5.414-2.99 3.552-4.498 8.855-4.498 15.77 0 2.116.117 4.1.352 5.946-14.692-18.003-28.542-27.13-41.22-27.13-7.486 0-13.96 3.07-19.234 9.112-5.25 6.006-7.91 14.773-7.91 26.09 0 15.63 4.38 32.62 13 50.507s19.453 31.962 32.205 41.82c12.788 9.88 24.075 14.897 33.56 14.897 4.958 0 9.25-1.187 12.744-3.508 3.075-2.037 5.624-4.996 7.624-8.797l19.175 63.186c2.914 9.455 3.53 12.728 3.53 13.812 0 2.358-.616 3.962-1.89 4.915-.91.66-3.45 1.465-10.306 1.465h-5.48l2.528 8.203h.527c15.43 0 27.882 1.934 37.008 5.742l.27.06h5.01l-.277-.924-51.898-169.68c-6.32-20.823-9.536-33.223-9.536-36.855 0-2.52.47-4.402 1.4-5.603.885-1.172 2.145-1.736 3.866-1.736 3.01 0 6.438 1.823 10.203 5.44 3.86 3.707 8.137 9.354 12.708 16.773l.198.344h9.5l-.578-1.055c-4.85-8.84-11.06-16.81-18.42-23.7-7.474-6.974-14.432-10.51-20.723-10.51M3258.51.02c-14.056 0-21.19 4.197-21.19 12.48 0 3.472 1.582 6.24 4.68 8.247 3.01 1.963 6.233 2.944 9.573 2.944 2.534 0 6.387-.687 11.785-2.123 6.79-1.904 12.415-2.878 16.736-2.878 6.284 0 12.54 1.793 18.56 5.31 6.086 3.53 13.74 9.784 22.756 18.58 8.943 8.73 15.33 16.583 18.97 23.365 3.59 6.746 6.848 18.787 9.668 35.786 2.82 17.103 4.255 35.707 4.255 55.313 0 14.905-1.4 26.536-4.146 34.57-2.673 7.815-5.918 11.77-9.64 11.77-7.374 0-12.003-9.924-13.798-29.495l-.06-.645h-8.188l.066.77c1.29 15.33 4.724 26.645 10.203 33.654 5.553 7.083 11.632 10.68 18.07 10.68 8.188 0 14.832-5.04 19.724-14.994 4.805-9.763 7.236-24.8 7.236-44.707 0-24.675-2.732-47.66-8.108-68.364 9.785 11.104 19.46 25.042 28.755 41.484 9.96 17.52 14.993 32.637 14.993 44.927 0 5.75-1.7 11.543-5.046 17.205-3.545 5.852-5.266 10.195-5.266 13.257 0 2.952.894 5.574 2.666 7.778 1.787 2.256 4.006 3.413 6.584 3.413 4.124 0 7.53-2.344 10.144-6.973 2.52-4.526 3.8-11.206 3.8-19.856 0-12.89-4.013-28.835-11.923-47.41-7.867-18.494-19.593-37.097-34.828-55.29-15.176-18.106-30.505-34.703-45.564-49.352-15.08-14.64-28.198-24.976-39.01-30.747C3280.13 2.95 3269.203.02 3258.51.02M3504.69 209.017c-13.037 0-24.492-12.62-34.058-37.485-9.646-25.115-14.53-47.505-14.53-66.54 0-5.61 1.478-10.453 4.38-14.4 2.885-3.926 6.76-5.83 11.82-5.83 13.99 0 25.708 13.608 34.856 40.444 9.23 27.085 13.9 48.04 13.9 62.285 0 7.223-1.376 12.68-4.13 16.246-2.73 3.552-6.73 5.28-12.238 5.28zM3471.658 76.72c-9.067 0-17.13 3.544-23.95 10.53-6.82 6.98-10.276 19.19-10.276 36.278 0 12.92 3.047 27.188 9.067 42.393 6.027 15.235 14.78 27.774 25.993 37.267 11.25 9.52 22.346 14.348 32.996 14.348 9.762 0 17.9-4.19 24.184-12.45 6.24-8.197 9.397-19.425 9.397-33.377 0-16.794-3.478-32.93-10.37-47.988-6.9-15.095-15.667-26.814-26.067-34.84-10.43-8.067-20.853-12.16-30.975-12.16M3649.85 75.92c-5.458 0-9.632 1.554-12.357 4.615-2.747 3.018-4.13 7.595-4.13 13.58 0 6.876 2.145 17.248 6.408 30.9-17.49-32.585-35.067-49.094-52.323-49.094-6.936 0-12.473 2.19-16.458 6.512-3.978 4.3-5.992 9.72-5.992 16.113 0 6.233 2.11 16.252 6.46 30.66l17.593 57.853c2.55 8.48 3.84 13.616 3.84 15.256 0 2.402-1.07 3.48-3.487 3.48-6.423 0-13.69-9.024-21.592-26.815l-.182-.426h-9.236l.366.967c4.314 11.346 10.056 20.72 17.05 27.884 7.084 7.258 14.18 10.942 21.117 10.942 4.33 0 8.086-1.392 11.177-4.13 3.09-2.748 4.65-6.915 4.65-12.372 0-3.823-1.69-11.484-5.03-22.75l-17.982-59.64c-3.398-11.477-5.127-19.11-5.127-22.676 0-3.135.696-5.522 2.087-7.104 1.362-1.545 3.413-2.336 6.1-2.336 9.178 0 20.348 10.02 33.202 29.773 12.942 19.945 25.906 49.894 38.562 89.027l3.07 10.107h20.96l-.3-.938-29.984-92.38c-4.746-14.832-7.156-23.92-7.156-27.026 0-2.55.49-4.453 1.45-5.676.938-1.187 2.336-1.765 4.277-1.765 7.83 0 15.41 8.795 22.56 26.154l.19.44h8.27l-.338-.96c-9.2-25.334-21.878-38.173-37.713-38.173M3731.94 78.016h-20.692l.286.916 25.98 85.408c4.848 16.223 7.31 27.312 7.31 32.98 0 2.967-.382 5.194-1.136 6.6-.674 1.26-1.67 1.875-2.996 1.875-3.29 0-7.58-3.75-12.75-11.133-5.29-7.603-9.09-14.597-11.28-20.78l-.168-.475h-8.635l.373.96c4.512 12.055 10.283 22.477 17.102 30.98 6.936 8.62 13.916 13 20.77 13 4.864 0 8.526-1.985 10.907-5.903 2.322-3.81 3.5-9.587 3.5-17.197 0-7.932-1.706-18.48-5.228-32.11.542 1.224 1.128 2.557 1.75 4.015 7.88 17.878 14.92 30.996 20.933 38.972 6.108 8.108 12.35 12.224 18.523 12.224 3.91 0 7.104-1.274 9.492-3.787 2.373-2.482 3.574-5.52 3.574-9.022 0-3.398-1.01-6.218-3.003-8.38-2-2.174-4.417-3.288-7.2-3.288-3.098 0-6.248 1.875-9.382 5.566-1.04 1.223-2.05 1.846-2.987 1.846-3.45 0-10.437-6.65-24.09-38.32-11.037-25.583-20.192-50.098-27.2-72.854l-3.754-12.092M4016.207 209.83c-3.97 0-8.547-5.288-13.608-15.696-5.143-10.57-7.75-26.22-7.75-46.523 0-1.903.073-4.042.198-6.364 8.503 11.543 14.993 22.302 19.307 32 4.504 10.107 6.79 19.307 6.79 27.312 0 3.208-.432 5.61-1.282 7.14-.793 1.428-1.994 2.132-3.656 2.132zm-95.545-133.91c-9.104 0-16.09 2.843-20.764 8.46-4.658 5.574-7.017 12.605-7.017 20.896 0 17.988 11.698 43.682 34.776 76.37 4.182 5.742 7.03 9.792 8.635 12.268-3.88-1.853-7.61-2.776-11.11-2.776-3.94 0-8.123 2.073-12.43 6.152-1.662 1.67-3.148 2.542-4.328 2.542-2.24 0-4.13-1.97-5.632-5.823l-.63-1.913h-8.364l.234.886c4.255 16.29 10.18 24.55 17.607 24.55 4.49 0 9.17-2.797 13.923-8.305 8.357-9.565 14.136-10.16 16.64-.77 1.81 6.563 4.586 9.89 8.27 9.89 4.73 0 5.706-2.85 5.706-5.23 0-.98-.93-3.896-8.958-17.74-13.542-23.02-22.478-42.34-26.587-57.436-4.115-15.117-6.195-25.613-6.195-31.2 0-5.282 1.296-9.837 3.823-13.53 2.52-3.632 6-5.397 10.627-5.397 6.892 0 15.044 3.37 24.236 10.005 9.17 6.636 16.59 13.337 22.076 19.907-.308 2.57-.46 5.36-.46 8.32 0 22.12 4.525 43.206 13.44 62.66 8.993 19.665 18.705 29.64 28.834 29.64 4.32 0 7.58-1.567 9.705-4.666 2.065-3.01 3.09-7.536 3.09-13.432 0-9.96-2.804-21.006-8.356-32.82-5.494-11.733-13.902-24.595-24.984-38.24.99-13.315 3.69-23.774 8.035-31.1 4.3-7.243 9.698-10.92 16.07-10.92 6.116 0 13.39 3.7 21.592 11.017 8.27 7.354 15.776 18.64 22.295 33.545 6.54 14.912 9.85 27.67 9.85 37.932 0 6.094-1.706 12.86-5.09 20.134-3.148 6.73-4.738 12.458-4.738 17.043 0 3.478.958 6.298 2.84 8.363 1.927 2.087 4.03 3.142 6.25 3.142 3.258 0 6.283-2.227 8.993-6.628 2.637-4.27 3.97-11.44 3.97-21.3 0-14.2-3.457-31.684-10.276-51.957-6.82-20.354-16.48-36.006-28.718-46.516-12.284-10.532-24.222-15.864-35.51-15.864-9.623 0-17.533 3.574-23.51 10.627-5.56 6.577-9.22 13.47-10.898 20.508-9.99-10.15-19.76-17.944-29.055-23.16-9.624-5.395-19.028-8.134-27.905-8.134M4168.858 273.792c-4.146 0-7.698 1.516-10.518 4.497-2.798 2.973-4.22 6.48-4.22 10.392 0 4.058 1.46 7.56 4.33 10.422s6.357 4.32 10.408 4.32c4.043 0 7.544-1.457 10.415-4.32s4.314-6.365 4.314-10.422c0-4.05-1.45-7.573-4.314-10.488s-6.365-4.402-10.415-4.402zm-33.706-197.87c-5.2 0-9.822 1.88-13.71 5.595-3.912 3.706-5.89 9.22-5.89 16.384 0 5.802 2.688 16.89 7.998 32.945l16.37 49.138c3.743 11.367 5.647 18.34 5.647 20.728 0 1.95-.447 3.407-1.326 4.344-.87.916-2.248 1.384-4.07 1.384-3.963 0-8.79-3.2-14.37-9.5-5.677-6.445-9.742-12.32-12.05-17.476l-.197-.417h-9.353l.527 1.04c5.933 11.74 12.795 21.138 20.39 27.927 7.662 6.855 14.957 10.334 21.65 10.334 5.216 0 9.574-1.81 12.92-5.383 3.355-3.574 5.04-8.29 5.04-14.026 0-5.8-2.498-16.09-7.64-31.45l-13.77-41.85c-5.01-15-7.558-24.53-7.558-28.31 0-2.95.578-5.177 1.706-6.62 1.09-1.4 2.673-2.08 4.82-2.08 7.645 0 16.86 9.47 27.392 28.162l.205.365h9.287l-.49-1.033c-5.047-10.474-11.69-19.863-19.74-27.905-8.15-8.15-16.15-12.296-23.788-12.296M4282.06 75.92c-4.98 0-9.337 1.546-12.934 4.6-3.647 3.077-5.486 7.677-5.486 13.675 0 4.922 2.417 14.37 7.44 28.923l17.25 49.138c4.548 13.293 6.877 21.973 6.877 25.818 0 3.296-.725 5.764-2.146 7.34-1.413 1.53-3.66 2.313-6.642 2.313-7.86 0-18.42-9.558-31.392-28.418-13.03-18.985-24.397-44.24-33.787-75.038l-8.05-26.257h-21.152l.27.923 28.36 91.523c5.098 16.737 7.698 26.427 7.698 28.793 0 1.67-.27 2.878-.82 3.604-.527.674-1.348 1.003-2.52 1.003-6.057 0-13.455-7.793-22.01-23.167l-.197-.36h-9.04l.587 1.056c13.733 24.865 26.44 36.957 38.884 36.957 4.418 0 7.78-1.37 9.977-4.058 2.234-2.674 3.325-6.6 3.325-11.998 0-7.676-2.483-18.926-7.405-33.516 17.87 32.893 35.53 49.57 52.58 49.57 6.073 0 11.44-2.043 15.96-6.072 4.534-4.05 6.833-9.998 6.833-17.695 0-4.938-2.175-13.866-6.643-27.29l-17.227-51.41c-5.706-17.05-6.892-21.907-6.892-22.976 0-1.824.432-3.208 1.31-4.094.902-.88 2.19-1.304 3.92-1.304 3.44 0 7.228 2.014 11.27 5.99 4.11 4.066 8.556 10.218 13.25 18.304l.19.352h9.837l-.58-1.07c-6.452-11.608-13.146-20.456-19.9-26.286-6.792-5.887-13.867-8.875-20.994-8.875M4407.898 210.306c-9.12 0-17.71-7.764-25.525-23.057-7.932-15.448-11.93-30.44-11.93-44.547 0-5.793 1.64-10.51 4.877-14.02 3.223-3.485 7.31-5.25 12.107-5.25 5.706 0 10.862 2.314 15.374 6.87 4.593 4.65 9.142 13.396 13.543 26 4.41 12.628 6.658 23.556 6.658 32.477 0 7.207-1.288 12.678-3.83 16.274-2.52 3.53-6.19 5.252-11.272 5.252zM4370.362 1.96c-19.475 0-34.878 3.23-45.798 9.61-11.03 6.438-16.626 14.62-16.626 24.302 0 7.163 2.732 13.264 8.123 18.164 5.384 4.885 10.08 7.354 14.012 7.354 5.25 0 6.372-2.65 6.372-4.893 0-1.72-1.333-3.933-4.072-6.782-4.248-4.563-6.4-9.067-6.4-13.36 0-6.723 3.47-12.75 10.333-17.965 6.943-5.244 17.747-7.917 32.124-7.917 15.468 0 27.34 2.68 35.294 7.96 7.866 5.21 11.858 11.36 11.858 18.282 0 5.486-2.703 9.836-8.21 13.28-5.618 3.493-18.018 7.477-36.848 11.857-16.846 3.933-27.012 7.954-31.12 12.305-4.19 4.19-6.322 8.862-6.322 13.88 0 6.957 3.53 13.615 10.54 19.81 6.592 5.83 15.82 10.02 27.48 12.46-6.248 3.778-11.052 8.612-14.333 14.384-3.54 6.256-5.31 13.822-5.31 22.508 0 15.806 5.705 30.08 16.933 42.458 11.272 12.4 24.177 18.69 38.38 18.69 4.452 0 8.686-.724 12.597-2.145 3.67-1.354 7.104-3.42 10.173-6.166 7.068 5.72 13.066 8.62 17.827 8.62 4.072 0 7.42-1.17 10.005-3.485 2.615-2.315 3.948-5.282 3.948-8.827 0-5.53-2.812-8.445-8.152-8.445-3.017 0-5.968 1.94-8.766 5.78-3.164 4.335-6.028 4.29-9.375-.11 4.18-7.09 6.312-15.587 6.312-25.255 0-18.69-5.552-33.662-16.487-44.502-11.03-10.81-24.617-17.335-40.37-19.372-22.794-2.952-34.352-9.016-34.352-18.018 0-2.798 1.23-5.032 3.75-6.848 2.578-1.868 8.18-3.72 16.64-5.515 14.92-3.347 27.24-6.387 36.6-9.053 9.55-2.717 16.736-6.79 21.387-12.085 4.666-5.318 7.03-11.698 7.03-18.94 0-11.163-5.75-21.073-17.05-29.46-11.25-8.34-27.452-12.56-48.128-12.56M4485.542 75.92c-11.206 0-19.753 2.528-25.37 7.508-5.685 5.017-8.556 10.48-8.556 16.252 0 3.135.894 5.89 2.65 8.174 1.803 2.33 4.147 3.5 6.93 3.5 6.167 0 9.434-3.434 9.434-9.9 0-1.45-.33-3.458-.996-6.146-.425-1.165-.63-2-.63-2.563 0-2.322 1.516-4.3 4.636-6.064 3.208-1.808 7.097-2.73 11.572-2.73 6.995 0 13.455 2.255 19.22 6.708 5.705 4.41 8.598 10.583 8.598 18.362 0 6.833-4.153 17.827-12.34 32.688-9.69 17.41-14.598 30.374-14.576 38.518 0 10.488 4.197 19.453 12.488 26.653 8.276 7.177 17.812 10.824 28.337 10.824 7.763 0 14.48-1.992 19.994-5.94 5.596-3.984 8.438-8.357 8.438-12.986 0-7.66-4.24-9.265-7.8-9.265-3.89 0-6.716 3.413-8.43 10.13-1.64 6.745-6.006 10.02-13.33 10.02-5.933 0-11.147-1.642-15.513-4.886-4.3-3.186-6.49-7.405-6.49-12.546 0-7.2 3.604-17.233 10.715-29.838 6.877-11.82 11.345-20.552 13.645-26.697 2.33-6.167 3.508-12.598 3.508-19.102 0-10.144-3.933-19.548-11.704-27.957-7.786-8.438-19.366-12.715-34.432-12.715M4672.083 256.316l24.12-50.273 23.195 50.273h24.565v-3.26c-4.175-.116-6.82-.863-7.99-2.233-1.18-1.384-1.76-4.585-1.76-9.624v-41.134c0-4.98.55-8.086 1.656-9.316 1.112-1.238 3.808-1.97 8.092-2.205v-3.164h-34.995v3.165c4.343.117 7.17.88 8.503 2.285 1.31 1.406 1.97 4.453 1.97 9.14v43.243l-26.93-57.832h-2.792l-27.15 57.05v-42.364c0-4.512.512-7.56 1.537-9.14s3.245-2.38 6.643-2.38h3.17v-3.165h-26.9v3.165c4.1 0 6.78.688 8.048 2.065 1.252 1.377 1.875 4.526 1.875 9.456v40.957c0 5.215-.563 8.518-1.706 9.924-1.15 1.406-3.875 2.11-8.218 2.11v3.258h25.067zm-96.95 0h63.874l1.94-17.673h-2.987c-.293 2.93-1.5 5.728-3.633 8.394-2.124 2.666-6.584 4.006-13.36 4.006h-6.57v-50.896c0-4.922.594-8.035 1.766-9.36 1.165-1.31 3.684-2.065 7.56-2.24v-3.165h-32.872v3.164c3.224.234 5.51.806 6.82 1.714 1.318.908 1.97 4.182 1.97 9.807v50.977h-6.68c-5.8 0-9.83-.974-12.07-2.908-2.27-1.934-3.81-5.098-4.63-9.492h-2.987l1.86 17.672"/></g></g></svg>