<svg xmlns="http://www.w3.org/2000/svg" width="583.588" height="74.435" viewBox="0 0 583.588 74.435"><path fill="#628BCF" d="M44.195 68.128c-.54 0-1.064-.27-1.368-.764-.466-.755-.232-1.744.522-2.21C107.625 25.44 197.43 0 299.046 0c88.003 0 212.708 19.09 283.808 65.172.744.48.958 1.477.474 2.222-.482.744-1.478.958-2.223.474-70.51-45.7-194.52-64.654-282.06-64.654-101.037 0-190.226 25.27-254.01 64.673-.262.163-.554.24-.842.24"/><path fill="#FFF" d="M35.34 38.146c-.06.883-1.135 1.01-1.135 1.01-.188 0-1.384-.632-1.638-.76-2.077-.877-5.795-2.013-9.826-2.013-8.63 0-17.133 5.227-17.133 17.388 0 11.277 8.126 17.515 16.695 17.515 3.84 0 7.81-.948 10.33-2.08.19-.063 1.26-.63 1.386-.63.125 0 .756.5.82.566.06.126 0 .254 0 .443l-.506 2.644c-.063.44-.25.633-.753.82-.506.19-5.482 1.388-11.97 1.388-4.35 0-11.025-.442-16.32-6.236C1.89 64.48 0 59.627 0 54.59c0-8.382 5.102-16.194 13.607-19.657 3.652-1.514 7.62-1.826 11.15-1.826 6.297 0 10.14 1.26 10.646 1.576.314.188.314.5.25.755l-.312 2.708M56.717 73.737h4.21V39.52h-4.21v34.217zM81.708 73.737h4.21V39.52h-4.21v34.217zM125.24 59.977l-5.99-16.034-6.744 16.034h12.735zm-18.458 13.76h-4.316l15.865-34.22h3.35l13.225 34.22h-4.59l-4.048-11.062H111.37l-4.588 11.062M156.18 56.305c.86.106 2.103.164 3.616.164 4.263 0 9.877-.598 9.877-7.4 0-6.744-5.183-6.908-8.746-6.908-.81 0-3.184.058-4.75.164v13.98zm0 17.432h-4.212V39.52c1.19 0 6.476-.163 9.23-.163 5.29 0 8.366.375 10.47 2.534 1.78 1.73 2.646 4.434 2.646 6.696 0 6.425-5.396 8.636-7.286 9.39 3.184 5.673 6.585 9.88 8.206 11.607.375.323 1.888 1.89 4.747 2.375l-.54 1.672c-.107.378-.482.378-.862.378-5.18 0-7.61-.86-15.87-15.058-1.185.16-2.64.38-6.53.217v14.57M206.482 42.542v31.195h-4.205V42.542h-14.415V39.52h33.14v3.022h-14.52M239.354 70.664h17.976v3.073h-22.183V39.52h22.02v3.022h-17.813V54.04h15.817v3.018h-15.816v13.606M280.212 56.305c.868.106 2.107.164 3.62.164 4.263 0 9.875-.598 9.875-7.4 0-6.744-5.18-6.908-8.744-6.908-.808 0-3.183.058-4.75.164v13.98zm0 17.432h-4.205V39.52c1.185 0 6.473-.163 9.227-.163 5.29 0 8.367.375 10.473 2.534 1.776 1.73 2.645 4.434 2.645 6.696 0 6.425-5.4 8.636-7.287 9.39 3.183 5.673 6.583 9.88 8.203 11.607.383.323 1.888 1.89 4.75 2.375l-.542 1.672c-.106.378-.48.378-.858.378-5.184 0-7.612-.86-15.87-15.058-1.188.16-2.646.38-6.535.217v14.57M345.554 38.396v.256c0 .188-.883.567-1.07.567-.125 0-.693-.506-1.135-.76-1.827-1.004-5.042-2.077-8-2.077-2.71 0-8.38 1.008-8.38 6.74 0 4.033 2.836 5.29 9.195 8 4.918 2.08 11.213 4.786 11.213 11.655 0 5.545-4.344 11.656-15.05 11.656-3.026 0-7.308-.635-9.58-1.197-.567-.128-1.635-.44-1.763-1.076l-.568-3.524c-.06-.375 0-.438.062-.5.128-.128.82-.443.944-.443.443 0 .945.443 1.324.63 2.395 1.323 6.427 2.58 10.395 2.58 4.032 0 9.26-1.952 9.26-7.054 0-4.665-4.156-6.428-8.566-8.315-6.617-2.773-11.656-4.852-11.656-11.4 0-6.178 4.978-11.09 14.43-11.09 3.968 0 7.368 1.01 7.687 1.073.312.125.627.312.69.815l.567 3.463M368.53 70.664h17.975v3.073h-22.183V39.52h22.02v3.022H368.53V54.04h15.815v3.018H368.53v13.606M420.872 59.977l-5.992-16.034-6.744 16.034h12.736zm-18.46 13.76h-4.316l15.868-34.22h3.345l13.226 34.22h-4.585l-4.054-11.062H407l-4.59 11.062M450.127 56.305c.863.106 2.1.164 3.614.164 4.267 0 9.88-.598 9.88-7.4 0-6.744-5.18-6.908-8.744-6.908-.81 0-3.187.058-4.75.164v13.98zm0 17.432h-4.21V39.52c1.186 0 6.475-.163 9.23-.163 5.288 0 8.364.375 10.47 2.534 1.777 1.73 2.645 4.434 2.645 6.696 0 6.425-5.4 8.636-7.287 9.39 3.183 5.673 6.584 9.88 8.2 11.607.384.323 1.892 1.89 4.753 2.375l-.54 1.672c-.107.378-.482.378-.86.378-5.182 0-7.61-.86-15.87-15.058-1.186.16-2.647.38-6.53.217v14.57M514.36 45.034c-.056.758-.973.864-.973.864-.164 0-.995-.69-1.192-.825-1.65-1.13-4.818-2.32-8.27-2.305-6.407.028-14.286 3.442-14.286 13.86 0 9.66 6.966 15.007 14.302 15.007 3.295 0 6.696-.81 8.854-1.78.16-.06 1.077-.54 1.184-.54.112 0 .655.432.704.48.058.11 0 .22 0 .38l-.433 2.27c-.052.375-.213.54-.647.703-.432.16-4.692 1.185-10.252 1.185-3.726 0-9.44-.375-13.978-5.346-2.91-3.18-4.53-7.34-4.53-11.656 0-7.182 3.114-13.272 10.4-16.24 3.13-1.3 5.814-1.57 8.842-1.57 4.483 0 10.07 2.613 10.504 2.884.27.162.27.433.215.648l-.444 1.982M537.7 73.737h4.212V39.52H537.7v34.217zM562.695 73.737h4.203V39.52h-4.203v34.217z"/></svg>