<svg xmlns="http://www.w3.org/2000/svg" width="632.528" height="138.624" viewBox="0 0 632.528 138.624"><path fill="#628BCF" d="M44.195 68.128c-.54 0-1.064-.27-1.368-.764-.466-.755-.232-1.744.522-2.21C107.625 25.44 197.43 0 299.046 0c88.003 0 212.708 19.09 283.808 65.172.744.48.958 1.477.474 2.222-.482.744-1.478.958-2.223.474-70.51-45.7-194.52-64.654-282.06-64.654-101.036 0-190.226 25.27-254.01 64.673-.262.163-.554.24-.842.24"/><g fill="#273679"><path d="M35.34 38.146c-.06.883-1.135 1.01-1.135 1.01-.188 0-1.384-.632-1.638-.76-2.077-.877-5.795-2.013-9.826-2.013-8.63 0-17.133 5.227-17.133 17.388 0 11.277 8.126 17.515 16.695 17.515 3.84 0 7.81-.948 10.33-2.08.19-.063 1.26-.63 1.386-.63.125 0 .756.5.82.566.06.126 0 .254 0 .443l-.506 2.644c-.063.44-.25.633-.753.82-.506.19-5.482 1.388-11.97 1.388-4.35 0-11.025-.442-16.32-6.236C1.89 64.48 0 59.627 0 54.59c0-8.382 5.102-16.194 13.607-19.657 3.652-1.514 7.62-1.826 11.15-1.826 6.297 0 10.14 1.26 10.646 1.576.314.188.314.5.25.755l-.312 2.708M56.717 73.737h4.21V39.52h-4.21v34.217zM81.708 73.737h4.21V39.52h-4.21v34.217zM125.24 59.977l-5.99-16.034-6.744 16.034h12.735zm-18.458 13.76h-4.316l15.865-34.22h3.35l13.225 34.22h-4.59l-4.048-11.062H111.37l-4.588 11.062M156.18 56.305c.86.106 2.103.164 3.616.164 4.263 0 9.877-.598 9.877-7.4 0-6.744-5.183-6.908-8.746-6.908-.81 0-3.184.058-4.75.164v13.98zm0 17.432h-4.212V39.52c1.19 0 6.476-.163 9.23-.163 5.29 0 8.366.375 10.47 2.534 1.78 1.73 2.646 4.434 2.646 6.696 0 6.425-5.396 8.636-7.286 9.39 3.184 5.673 6.585 9.88 8.206 11.607.375.323 1.888 1.89 4.747 2.375l-.54 1.672c-.107.378-.482.378-.862.378-5.18 0-7.61-.86-15.87-15.058-1.185.16-2.64.38-6.53.217v14.57M206.482 42.542v31.195h-4.205V42.542h-14.415V39.52h33.14v3.022h-14.52M239.354 70.664h17.976v3.073h-22.183V39.52h22.02v3.022h-17.813V54.04h15.817v3.018h-15.816v13.606M280.212 56.305c.868.106 2.107.164 3.62.164 4.263 0 9.875-.598 9.875-7.4 0-6.744-5.18-6.908-8.744-6.908-.808 0-3.183.058-4.75.164v13.98zm0 17.432h-4.205V39.52c1.185 0 6.473-.163 9.227-.163 5.29 0 8.367.375 10.473 2.534 1.776 1.73 2.644 4.434 2.644 6.696 0 6.425-5.397 8.636-7.286 9.39 3.183 5.673 6.583 9.88 8.203 11.607.383.323 1.888 1.89 4.75 2.375l-.542 1.672c-.106.378-.48.378-.858.378-5.183 0-7.612-.86-15.87-15.058-1.188.16-2.646.38-6.535.217v14.57M345.554 38.396v.256c0 .188-.883.567-1.07.567-.125 0-.693-.506-1.135-.76-1.827-1.004-5.042-2.077-8-2.077-2.71 0-8.38 1.008-8.38 6.74 0 4.033 2.836 5.29 9.195 8 4.918 2.08 11.213 4.786 11.213 11.655 0 5.545-4.344 11.656-15.05 11.656-3.026 0-7.308-.635-9.58-1.197-.567-.128-1.635-.44-1.763-1.076l-.568-3.524c-.06-.375 0-.438.062-.5.128-.128.82-.443.944-.443.443 0 .945.443 1.324.63 2.395 1.323 6.427 2.58 10.395 2.58 4.032 0 9.26-1.952 9.26-7.054 0-4.665-4.156-6.428-8.566-8.315-6.617-2.773-11.656-4.852-11.656-11.4 0-6.178 4.978-11.09 14.43-11.09 3.968 0 7.368 1.01 7.687 1.073.312.125.627.312.69.815l.567 3.463M368.53 70.664h17.974v3.073H364.32V39.52h22.02v3.022h-17.81V54.04h15.814v3.018H368.53v13.606M420.87 59.977l-5.99-16.034-6.745 16.034h12.736zm-18.46 13.76h-4.315l15.868-34.22h3.345l13.227 34.22h-4.585l-4.055-11.062H407l-4.59 11.062M450.127 56.305c.863.106 2.1.164 3.614.164 4.267 0 9.88-.598 9.88-7.4 0-6.744-5.18-6.908-8.744-6.908-.81 0-3.187.058-4.75.164v13.98zm0 17.432h-4.21V39.52c1.186 0 6.475-.163 9.23-.163 5.288 0 8.364.375 10.47 2.534 1.777 1.73 2.645 4.434 2.645 6.696 0 6.425-5.4 8.636-7.287 9.39 3.183 5.673 6.584 9.88 8.2 11.607.384.323 1.892 1.89 4.753 2.375l-.54 1.672c-.107.378-.482.378-.86.378-5.182 0-7.61-.86-15.87-15.058-1.186.16-2.647.38-6.53.217v14.57M514.358 45.034c-.055.758-.972.864-.972.864-.164 0-.995-.69-1.192-.825-1.65-1.13-4.818-2.32-8.27-2.305-6.407.028-14.286 3.442-14.286 13.86 0 9.66 6.967 15.007 14.303 15.007 3.296 0 6.697-.81 8.855-1.78.16-.06 1.077-.54 1.184-.54.11 0 .654.432.703.48.058.11 0 .22 0 .38l-.433 2.27c-.053.375-.214.54-.648.703-.432.16-4.692 1.185-10.252 1.185-3.727 0-9.442-.375-13.98-5.346-2.91-3.18-4.53-7.34-4.53-11.656 0-7.182 3.115-13.272 10.4-16.24 3.13-1.3 5.815-1.57 8.843-1.57 4.483 0 10.07 2.613 10.504 2.884.27.162.27.433.215.648l-.444 1.982M537.698 73.737h4.213V39.52H537.7v34.217zM562.694 73.737h4.203V39.52h-4.203v34.217z"/></g><g fill="#628BCF"><path d="M360.032 138.194c-1.215 0-2.328-.286-3.31-.852-.992-.575-1.496-1.305-1.496-2.166 0-.494.16-.91.478-1.228.32-.318.7-.48 1.123-.48.5 0 .908.18 1.21.54.3.352.452.736.452 1.145 0 .107-.02.288-.065.554l-.042.36c0 .23.154.45.475.662.327.217.728.327 1.193.327 1.68 0 3.113-.91 4.264-2.705 1.166-1.822 2.506-5.52 3.986-10.997l3.625-12.105h-4.17l.336-1.136h4.222c.06-.212.186-.625.36-1.178 1.94-7.144 5.143-10.768 9.513-10.768 1.252 0 2.228.283 2.896.84.675.562 1.016 1.128 1.016 1.684 0 .808-.403 1.234-1.17 1.234-.614 0-1.236-.498-1.907-1.525-.44-.685-.97-1.03-1.575-1.03-.944 0-1.86.443-2.73 1.317-.87.88-1.853 3.323-2.92 7.262l-.647 2.164h3.8l-.337 1.136h-3.846l-3.69 12.504c-1.52 5.673-3.206 9.54-5.01 11.488-1.82 1.958-3.85 2.952-6.032 2.952M383.255 128.504c-.69 0-1.306-.25-1.826-.746-.522-.496-.788-1.23-.788-2.185 0-.766.36-2.244 1.068-4.393l2.182-6.552c.502-1.52.755-2.45.755-2.764 0-.257-.062-.453-.18-.58-.118-.123-.295-.184-.543-.184-.524 0-1.17.427-1.915 1.27-.757.853-1.295 1.635-1.605 2.327l-.027.056h-1.246l.07-.14c.787-1.563 1.7-2.816 2.715-3.723 1.025-.914 1.998-1.378 2.89-1.378.696 0 1.277.24 1.723.718.444.476.67 1.104.67 1.87 0 .77-.342 2.183-1.02 4.193l-1.83 5.58c-.67 1.993-1.01 3.263-1.01 3.774 0 .396.076.692.226.883.145.187.355.277.645.277 1.018 0 2.247-1.263 3.652-3.755l.028-.05h1.238l-.065.14c-.67 1.39-1.556 2.642-2.634 3.72-1.09 1.09-2.157 1.642-3.175 1.642M402.848 128.504c-.666 0-1.248-.206-1.727-.613-.482-.41-.73-1.022-.73-1.822 0-.664.325-1.924.99-3.856l2.3-6.552c.608-1.77.918-2.928.918-3.442 0-.44-.097-.77-.287-.98-.188-.203-.485-.308-.884-.308-1.05 0-2.455 1.274-4.182 3.79-1.74 2.535-3.26 5.9-4.51 10.004l-1.07 3.5h-2.82l.038-.122 3.778-12.203c.68-2.23 1.026-3.52 1.026-3.84 0-.22-.037-.383-.11-.48-.067-.09-.177-.134-.332-.134-.808 0-1.795 1.04-2.937 3.09l-.027.047h-1.205l.076-.14c1.808-3.27 3.548-4.93 5.187-4.93.586 0 1.034.184 1.334.542.293.354.44.894.44 1.6 0 1.023-.33 2.523-.986 4.47 2.383-4.387 4.738-6.61 7.014-6.61.807 0 1.52.272 2.12.81.607.54.916 1.33.916 2.36 0 .66-.29 1.85-.89 3.638l-2.296 6.854c-.758 2.277-.916 2.923-.916 3.063 0 .243.06.428.177.546.112.116.29.174.522.174.458 0 .96-.27 1.497-.8.548-.54 1.143-1.36 1.765-2.44l.03-.046h1.31l-.076.143c-.864 1.547-1.755 2.727-2.653 3.505-.91.783-1.85 1.182-2.8 1.182M420.782 110.78c-.9 0-1.865.543-2.867 1.613-1.014 1.084-2.138 2.99-3.336 5.666-1.203 2.67-1.813 4.937-1.813 6.74 0 .78.137 1.372.403 1.76.26.385.64.57 1.158.57.93 0 2.03-.665 3.265-1.978 1.246-1.32 2.413-3.535 3.466-6.58 1.052-3.05 1.585-5.002 1.585-5.802 0-.505-.174-.97-.517-1.38-.335-.404-.788-.61-1.346-.61zm.784 17.724c-.784 0-1.387-.242-1.792-.722-.398-.474-.6-1.18-.6-2.103 0-.283.016-.548.047-.794-1.958 2.4-3.805 3.617-5.495 3.617-.998 0-1.86-.41-2.564-1.215-.7-.8-1.054-1.97-1.054-3.48 0-2.083.584-4.35 1.733-6.733s2.593-4.262 4.293-5.576c1.705-1.318 3.21-1.987 4.475-1.987.66 0 1.233.158 1.7.468.41.272.75.667 1.016 1.174l2.557-8.425c.39-1.262.472-1.698.472-1.843 0-.314-.082-.528-.252-.655-.12-.088-.46-.195-1.374-.195h-.73l.337-1.094h.07c2.058 0 3.718-.258 4.935-.766l.036-.008h.668l-.037.122-6.92 22.624c-.843 2.776-1.27 4.43-1.27 4.914 0 .336.06.587.186.747.12.156.287.23.517.23.4 0 .858-.242 1.36-.725.515-.494 1.085-1.247 1.694-2.236l.027-.046h1.267l-.077.14c-.646 1.18-1.475 2.242-2.456 3.16-.997.932-1.925 1.404-2.764 1.404M434.468 138.624c-1.874 0-2.825-.56-2.825-1.664 0-.463.21-.832.624-1.1.4-.262.83-.393 1.276-.393.338 0 .852.092 1.57.283.906.254 1.656.384 2.232.384.838 0 1.672-.24 2.475-.708.812-.47 1.832-1.305 3.034-2.478 1.192-1.164 2.044-2.21 2.53-3.115.478-.9.912-2.505 1.288-4.77.376-2.28.567-4.762.567-7.376 0-1.987-.188-3.538-.554-4.61-.356-1.04-.79-1.568-1.285-1.568-.982 0-1.6 1.322-1.84 3.932l-.007.086h-1.092l.01-.103c.172-2.044.63-3.553 1.36-4.487.74-.944 1.55-1.424 2.41-1.424 1.09 0 1.977.672 2.63 2 .64 1.3.964 3.306.964 5.96 0 3.29-.364 6.354-1.08 9.115 1.304-1.48 2.594-3.34 3.833-5.532 1.328-2.336 2-4.352 2-5.99 0-.767-.228-1.54-.674-2.294-.473-.78-.702-1.36-.702-1.768 0-.394.12-.743.356-1.037.238-.302.534-.456.878-.456.55 0 1.004.312 1.353.93.336.604.507 1.494.507 2.647 0 1.72-.535 3.846-1.59 6.322-1.05 2.466-2.612 4.946-4.644 7.372-2.023 2.414-4.067 4.627-6.075 6.58-2.01 1.952-3.76 3.33-5.2 4.1-1.444.77-2.9 1.16-4.327 1.16M467.292 110.758c-1.738 0-3.266 1.683-4.54 4.998-1.287 3.35-1.94 6.334-1.94 8.872 0 .748.198 1.394.585 1.92.385.523.9.777 1.576.777 1.865 0 3.428-1.814 4.647-5.393 1.23-3.61 1.854-6.405 1.854-8.305 0-.963-.184-1.69-.55-2.166-.364-.472-.898-.702-1.632-.702zm-4.404 17.64c-1.21 0-2.284-.474-3.193-1.405-.91-.93-1.37-2.56-1.37-4.837 0-1.723.406-3.625 1.21-5.652.803-2.03 1.97-3.703 3.465-4.97 1.5-1.27 2.98-1.912 4.4-1.912 1.3 0 2.386.56 3.224 1.66.832 1.093 1.253 2.59 1.253 4.45 0 2.24-.464 4.39-1.383 6.398-.92 2.013-2.09 3.575-3.476 4.646-1.39 1.076-2.78 1.62-4.13 1.62M486.646 128.504c-.728 0-1.284-.207-1.647-.615-.367-.403-.552-1.014-.552-1.812 0-.917.286-2.3.854-4.12-2.332 4.345-4.676 6.546-6.977 6.546-.925 0-1.663-.292-2.194-.868-.53-.573-.798-1.296-.798-2.148 0-.83.28-2.167.86-4.088l2.347-7.714c.34-1.13.51-1.815.51-2.034 0-.32-.142-.464-.464-.464-.856 0-1.825 1.203-2.88 3.575l-.023.057h-1.23l.048-.13c.576-1.512 1.342-2.762 2.274-3.717.944-.968 1.89-1.46 2.815-1.46.576 0 1.077.187 1.49.552.41.366.62.922.62 1.65 0 .51-.227 1.53-.672 3.032l-2.397 7.952c-.452 1.53-.683 2.547-.683 3.022 0 .418.093.736.278.947.182.205.455.31.813.31 1.224 0 2.713-1.335 4.427-3.97 1.726-2.658 3.454-6.65 5.142-11.87l.41-1.347h2.794l-.04.125-3.997 12.317c-.633 1.978-.954 3.19-.954 3.604 0 .34.064.593.192.756.125.158.312.235.57.235 1.044 0 2.055-1.172 3.008-3.486l.025-.06h1.103l-.045.13c-1.225 3.378-2.915 5.09-5.027 5.09M497.592 128.225h-2.76l.04-.122 3.463-11.388c.646-2.163.975-3.642.975-4.397 0-.396-.05-.692-.15-.88-.09-.168-.224-.25-.4-.25-.438 0-1.01.5-1.7 1.484-.705 1.014-1.212 1.946-1.504 2.77l-.022.064h-1.15l.05-.128c.6-1.607 1.37-2.997 2.28-4.13.924-1.15 1.854-1.734 2.77-1.734.647 0 1.136.265 1.453.787.31.51.467 1.28.467 2.294 0 1.058-.228 2.464-.697 4.28.072-.162.15-.34.233-.534 1.05-2.384 1.99-4.133 2.79-5.196.815-1.08 1.647-1.63 2.47-1.63.522 0 .948.17 1.267.505.316.33.477.735.477 1.202 0 .453-.135.83-.4 1.117-.267.29-.59.437-.96.437-.413 0-.833-.25-1.25-.742-.14-.163-.274-.246-.4-.246-.46 0-1.39.886-3.21 5.108-1.473 3.41-2.693 6.68-3.628 9.714l-.504 1.613M535.494 110.65c-.53 0-1.14.704-1.814 2.092-.686 1.41-1.033 3.496-1.033 6.203 0 .254.01.54.026.85 1.134-1.54 2-2.975 2.574-4.268.6-1.348.905-2.574.905-3.642 0-.428-.058-.748-.17-.952-.106-.19-.266-.284-.488-.284zm-12.74 17.854c-1.213 0-2.145-.38-2.768-1.128-.62-.743-.936-1.68-.936-2.786 0-2.398 1.56-5.824 4.637-10.183.558-.766.938-1.306 1.15-1.636-.517.248-1.014.37-1.48.37-.525 0-1.083-.275-1.657-.82-.222-.222-.42-.338-.577-.338-.3 0-.55.263-.75.776l-.085.255h-1.115l.03-.118c.568-2.172 1.358-3.273 2.35-3.273.598 0 1.222.373 1.855 1.107 1.114 1.274 1.885 1.353 2.22.102.24-.875.61-1.318 1.102-1.318.63 0 .76.38.76.697 0 .132-.123.52-1.193 2.366-1.806 3.07-2.997 5.646-3.545 7.658-.55 2.016-.826 3.415-.826 4.16 0 .704.173 1.312.51 1.804.336.484.8.72 1.417.72.92 0 2.006-.45 3.23-1.334 1.224-.885 2.213-1.778 2.944-2.654-.04-.343-.062-.715-.062-1.11 0-2.948.604-5.76 1.792-8.353 1.2-2.622 2.494-3.952 3.845-3.952.576 0 1.01.21 1.294.622.275.4.412 1.005.412 1.79 0 1.33-.374 2.802-1.114 4.377-.732 1.564-1.854 3.28-3.33 5.1.13 1.774.49 3.17 1.07 4.145.573.965 1.293 1.455 2.143 1.455.815 0 1.785-.493 2.88-1.47 1.102-.98 2.103-2.484 2.972-4.472.87-1.988 1.312-3.69 1.312-5.058 0-.812-.228-1.715-.68-2.685-.42-.897-.63-1.66-.63-2.272 0-.464.127-.84.378-1.115.257-.278.537-.42.833-.42.435 0 .838.298 1.2.885.35.57.528 1.525.528 2.84 0 1.894-.46 4.225-1.37 6.928-.908 2.714-2.196 4.8-3.828 6.202-1.638 1.404-3.23 2.115-4.734 2.115-1.283 0-2.338-.477-3.135-1.417-.74-.877-1.23-1.796-1.453-2.734-1.332 1.354-2.635 2.393-3.874 3.088-1.284.72-2.538 1.084-3.72 1.084M555.848 102.12c-.553 0-1.026-.2-1.402-.6-.373-.395-.562-.863-.562-1.385 0-.54.194-1.008.577-1.39s.85-.576 1.39-.576c.538 0 1.005.193 1.388.575s.575.85.575 1.39c0 .54-.193 1.01-.575 1.398s-.85.588-1.39.588zm-4.494 26.384c-.693 0-1.31-.25-1.828-.746-.52-.494-.785-1.23-.785-2.185 0-.773.36-2.252 1.067-4.393l2.183-6.552c.5-1.516.753-2.445.753-2.764 0-.26-.06-.454-.177-.58-.116-.12-.3-.184-.543-.184-.528 0-1.172.427-1.916 1.267-.757.86-1.3 1.643-1.606 2.33l-.025.056h-1.247l.07-.14c.79-1.564 1.706-2.817 2.72-3.723 1.02-.914 1.993-1.378 2.886-1.378.695 0 1.276.24 1.723.718.447.477.672 1.105.672 1.87 0 .773-.334 2.146-1.02 4.193l-1.836 5.58c-.668 2-1.008 3.27-1.008 3.774 0 .394.077.69.228.883.146.187.356.277.643.277 1.02 0 2.248-1.263 3.652-3.755l.026-.05h1.238l-.065.14c-.674 1.395-1.56 2.647-2.633 3.72-1.09 1.09-2.155 1.642-3.173 1.642M570.94 128.504c-.663 0-1.244-.206-1.724-.613-.486-.41-.73-1.022-.73-1.822 0-.656.32-1.916.99-3.856l2.3-6.552c.607-1.772.918-2.93.918-3.442 0-.44-.097-.77-.286-.98-.188-.203-.488-.308-.886-.308-1.048 0-2.456 1.274-4.186 3.79-1.737 2.53-3.253 5.897-4.505 10.004l-1.072 3.5h-2.82l.036-.122 3.78-12.203c.68-2.232 1.027-3.524 1.027-3.84 0-.223-.035-.384-.108-.48-.07-.09-.18-.134-.336-.134-.808 0-1.794 1.04-2.935 3.09l-.025.047h-1.205l.078-.14c1.83-3.316 3.525-4.93 5.185-4.93.59 0 1.037.184 1.33.542.298.356.443.88.443 1.6 0 1.023-.33 2.523-.987 4.47 2.382-4.387 4.736-6.61 7.01-6.61.81 0 1.525.272 2.128.81.604.54.91 1.333.91 2.36 0 .657-.29 1.848-.885 3.638l-2.297 6.854c-.76 2.273-.92 2.92-.92 3.063 0 .243.06.428.176.546.12.117.292.174.522.174.46 0 .964-.27 1.503-.8.548-.54 1.14-1.36 1.767-2.44l.025-.046h1.31l-.076.143c-.86 1.548-1.753 2.728-2.653 3.505-.905.783-1.848 1.182-2.8 1.182M587.72 110.586c-1.216 0-2.36 1.035-3.403 3.074-1.058 2.06-1.59 4.06-1.59 5.94 0 .77.218 1.4.65 1.868.43.465.974.7 1.613.7.76 0 1.448-.31 2.05-.916.612-.62 1.22-1.786 1.806-3.467.588-1.684.888-3.14.888-4.33 0-.96-.172-1.69-.51-2.17-.337-.47-.827-.7-1.504-.7zm-5.005 27.78c-2.597 0-4.65-.432-6.106-1.282-1.472-.858-2.218-1.95-2.218-3.24 0-.955.364-1.77 1.083-2.422.718-.65 1.344-.98 1.868-.98.7 0 .85.354.85.652 0 .23-.178.524-.543.904-.566.608-.854 1.21-.854 1.78 0 .897.463 1.7 1.378 2.397.926.7 2.366 1.056 4.283 1.056 2.062 0 3.646-.356 4.706-1.06 1.05-.695 1.58-1.516 1.58-2.44 0-.73-.36-1.31-1.094-1.77-.75-.466-2.403-.997-4.914-1.58-2.246-.525-3.602-1.062-4.15-1.642-.558-.56-.842-1.182-.842-1.85 0-.93.47-1.816 1.405-2.643.878-.777 2.108-1.336 3.663-1.66-.833-.505-1.474-1.15-1.91-1.92-.473-.833-.71-1.842-.71-3 0-2.107.762-4.01 2.26-5.66 1.502-1.654 3.223-2.493 5.116-2.493.593 0 1.157.097 1.68.286.488.18.946.456 1.355.822.942-.763 1.742-1.15 2.377-1.15.543 0 .99.157 1.334.466.35.31.526.704.526 1.177 0 .737-.375 1.126-1.087 1.126-.402 0-.796-.26-1.17-.772-.42-.578-.803-.572-1.25.015.56.945.843 2.078.843 3.367 0 2.492-.74 4.488-2.198 5.934-1.47 1.44-3.282 2.312-5.383 2.583-3.04.394-4.58 1.202-4.58 2.402 0 .372.164.67.5.912.344.25 1.09.496 2.22.735 1.988.446 3.63.852 4.88 1.207 1.272.362 2.23.905 2.85 1.61.623.71.94 1.56.94 2.526 0 1.488-.768 2.81-2.274 3.928-1.5 1.115-3.66 1.677-6.418 1.677M598.072 128.504c-1.494 0-2.634-.337-3.383-1-.76-.67-1.142-1.398-1.142-2.168 0-.418.12-.785.354-1.09.24-.31.553-.467.924-.467.822 0 1.258.457 1.258 1.32 0 .192-.044.46-.133.818-.056.155-.083.267-.083.342 0 .31.202.573.618.81.428.24.946.363 1.543.363.933 0 1.794-.3 2.562-.895.76-.588 1.146-1.41 1.146-2.448 0-.91-.554-2.377-1.646-4.358-1.292-2.32-1.946-4.05-1.943-5.136 0-1.398.56-2.594 1.665-3.554 1.104-.957 2.375-1.443 3.778-1.443 1.035 0 1.93.265 2.666.79.746.532 1.125 1.115 1.125 1.732 0 1.02-.564 1.235-1.04 1.235-.518 0-.895-.455-1.123-1.35-.22-.9-.8-1.337-1.777-1.337-.79 0-1.486.22-2.068.65-.573.426-.865.988-.865 1.674 0 .96.48 2.298 1.43 3.98.916 1.575 1.512 2.74 1.818 3.56.31.82.468 1.68.468 2.546 0 1.353-.524 2.606-1.56 3.728-1.038 1.126-2.582 1.696-4.59 1.696M622.944 104.45l3.216 6.704 3.093-6.703h3.275v.436c-.557.016-.91.115-1.065.298-.157.185-.234.61-.234 1.283v5.484c0 .665.072 1.08.22 1.243.148.165.508.263 1.08.294v.422h-4.667v-.423c.58-.016.956-.117 1.134-.305.175-.188.263-.594.263-1.22v-5.765l-3.59 7.71h-.373l-3.62-7.605v5.648c0 .602.068 1.008.205 1.22s.433.316.886.316h.423v.422h-3.586v-.422c.547 0 .904-.092 1.073-.275.167-.183.25-.603.25-1.26v-5.46c0-.696-.075-1.137-.228-1.324-.154-.188-.518-.28-1.097-.28v-.436h3.34zm-12.926 0h8.517l.26 2.357h-.4c-.038-.39-.2-.764-.483-1.12-.283-.354-.878-.533-1.78-.533h-.877v6.786c0 .656.08 1.07.235 1.248.155.175.49.275 1.008.3v.42h-4.383v-.42c.43-.032.734-.108.91-.23.175-.12.262-.558.262-1.308v-6.797h-.89c-.774 0-1.312.13-1.61.388-.303.26-.508.68-.617 1.267h-.398l.246-2.356"/></g></svg>